ISO-10303-21;
HEADER;
FILE_DESCRIPTION((''),'2;1');
FILE_NAME('FC1610AN_PKG','2026-06-05T11:12:23',('5015587'),(''),
'CREO PARAMETRIC BY PTC INC, 2025123','CREO PARAMETRIC BY PTC INC, 2025123','');
FILE_SCHEMA(('AUTOMOTIVE_DESIGN { 1 0 10303 214 1 1 1 1 }'));
ENDSEC;
DATA;
#129=CARTESIAN_POINT('',(8.15E-1,0.E0,-5.284271841200E-1));
#130=DIRECTION('',(0.E0,-1.E0,0.E0));
#131=DIRECTION('',(0.E0,0.E0,1.E0));
#132=AXIS2_PLACEMENT_3D('',#129,#130,#131);
#134=DIRECTION('',(-1.E0,0.E0,0.E0));
#135=VECTOR('',#134,1.43E0);
#136=CARTESIAN_POINT('',(7.15E-1,0.E0,-5.284271841200E-1));
#137=LINE('',#136,#135);
#138=CARTESIAN_POINT('',(-8.15E-1,0.E0,-5.284271841200E-1));
#139=DIRECTION('',(0.E0,-1.E0,0.E0));
#140=DIRECTION('',(1.E0,0.E0,0.E0));
#141=AXIS2_PLACEMENT_3D('',#138,#139,#140);
#143=DIRECTION('',(0.E0,0.E0,1.E0));
#144=VECTOR('',#143,8.568543682400E-1);
#145=CARTESIAN_POINT('',(-8.15E-1,0.E0,-4.284271841200E-1));
#146=LINE('',#145,#144);
#147=CARTESIAN_POINT('',(-8.15E-1,0.E0,5.284271841200E-1));
#148=DIRECTION('',(0.E0,-1.E0,0.E0));
#149=DIRECTION('',(0.E0,0.E0,-1.E0));
#150=AXIS2_PLACEMENT_3D('',#147,#148,#149);
#152=DIRECTION('',(1.E0,0.E0,0.E0));
#153=VECTOR('',#152,1.43E0);
#154=CARTESIAN_POINT('',(-7.15E-1,0.E0,5.284271841200E-1));
#155=LINE('',#154,#153);
#156=CARTESIAN_POINT('',(8.15E-1,0.E0,5.284271841200E-1));
#157=DIRECTION('',(0.E0,-1.E0,0.E0));
#158=DIRECTION('',(-1.E0,0.E0,0.E0));
#159=AXIS2_PLACEMENT_3D('',#156,#157,#158);
#161=DIRECTION('',(0.E0,0.E0,-1.E0));
#162=VECTOR('',#161,8.568543682400E-1);
#163=CARTESIAN_POINT('',(8.15E-1,0.E0,4.284271841200E-1));
#164=LINE('',#163,#162);
#165=DIRECTION('',(1.E0,0.E0,0.E0));
#166=VECTOR('',#165,3.240212782013E-1);
#167=CARTESIAN_POINT('',(-6.840212782013E-1,0.E0,-4.3E-1));
#168=LINE('',#167,#166);
#169=DIRECTION('',(0.E0,0.E0,1.E0));
#170=VECTOR('',#169,8.6E-1);
#171=CARTESIAN_POINT('',(-3.6E-1,0.E0,-4.3E-1));
#172=LINE('',#171,#170);
#173=DIRECTION('',(-1.E0,0.E0,0.E0));
#174=VECTOR('',#173,3.240212782013E-1);
#175=CARTESIAN_POINT('',(-3.6E-1,0.E0,4.3E-1));
#176=LINE('',#175,#174);
#177=CARTESIAN_POINT('',(-8.25E-1,0.E0,5.25E-1));
#178=DIRECTION('',(0.E0,-1.E0,0.E0));
#179=DIRECTION('',(4.117647058824E-1,0.E0,-9.112901991076E-1));
#180=AXIS2_PLACEMENT_3D('',#177,#178,#179);
#182=DIRECTION('',(0.E0,0.E0,-1.E0));
#183=VECTOR('',#182,7.401613323034E-1);
#184=CARTESIAN_POINT('',(-7.55E-1,0.E0,3.700806661517E-1));
#185=LINE('',#184,#183);
#186=CARTESIAN_POINT('',(-8.25E-1,0.E0,-5.25E-1));
#187=DIRECTION('',(0.E0,-1.E0,0.E0));
#188=DIRECTION('',(8.292865988160E-1,0.E0,5.588235294117E-1));
#189=AXIS2_PLACEMENT_3D('',#186,#187,#188);
#191=DIRECTION('',(-1.E0,0.E0,0.E0));
#192=VECTOR('',#191,1.240212782013E-1);
#193=CARTESIAN_POINT('',(6.840212782013E-1,0.E0,4.3E-1));
#194=LINE('',#193,#192);
#195=DIRECTION('',(-7.071067811865E-1,0.E0,-7.071067811866E-1));
#196=VECTOR('',#195,2.828427124746E-1);
#197=CARTESIAN_POINT('',(5.6E-1,0.E0,4.3E-1));
#198=LINE('',#197,#196);
#199=DIRECTION('',(0.E0,0.E0,-1.E0));
#200=VECTOR('',#199,6.6E-1);
#201=CARTESIAN_POINT('',(3.6E-1,0.E0,2.3E-1));
#202=LINE('',#201,#200);
#203=DIRECTION('',(1.E0,0.E0,0.E0));
#204=VECTOR('',#203,3.240212782013E-1);
#205=CARTESIAN_POINT('',(3.6E-1,0.E0,-4.3E-1));
#206=LINE('',#205,#204);
#207=CARTESIAN_POINT('',(8.25E-1,0.E0,-5.25E-1));
#208=DIRECTION('',(0.E0,-1.E0,0.E0));
#209=DIRECTION('',(-4.117647058824E-1,0.E0,9.112901991076E-1));
#210=AXIS2_PLACEMENT_3D('',#207,#208,#209);
#212=DIRECTION('',(0.E0,0.E0,1.E0));
#213=VECTOR('',#212,7.401613323034E-1);
#214=CARTESIAN_POINT('',(7.55E-1,0.E0,-3.700806661517E-1));
#215=LINE('',#214,#213);
#216=CARTESIAN_POINT('',(8.25E-1,0.E0,5.25E-1));
#217=DIRECTION('',(0.E0,-1.E0,0.E0));
#218=DIRECTION('',(-8.292865988160E-1,0.E0,-5.588235294117E-1));
#219=AXIS2_PLACEMENT_3D('',#216,#217,#218);
#221=DIRECTION('',(0.E0,1.E0,0.E0));
#222=VECTOR('',#221,2.8E-1);
#223=CARTESIAN_POINT('',(8.15E-1,0.E0,-4.284271841200E-1));
#224=LINE('',#223,#222);
#225=DIRECTION('',(0.E0,1.E0,0.E0));
#226=VECTOR('',#225,2.8E-1);
#227=CARTESIAN_POINT('',(8.15E-1,0.E0,4.284271841200E-1));
#228=LINE('',#227,#226);
#229=DIRECTION('',(0.E0,1.E0,0.E0));
#230=VECTOR('',#229,2.8E-1);
#231=CARTESIAN_POINT('',(7.15E-1,0.E0,5.284271841200E-1));
#232=LINE('',#231,#230);
#233=DIRECTION('',(0.E0,1.E0,0.E0));
#234=VECTOR('',#233,2.8E-1);
#235=CARTESIAN_POINT('',(-7.15E-1,0.E0,5.284271841200E-1));
#236=LINE('',#235,#234);
#237=DIRECTION('',(0.E0,1.E0,0.E0));
#238=VECTOR('',#237,2.8E-1);
#239=CARTESIAN_POINT('',(-8.15E-1,0.E0,4.284271841200E-1));
#240=LINE('',#239,#238);
#241=DIRECTION('',(0.E0,1.E0,0.E0));
#242=VECTOR('',#241,2.8E-1);
#243=CARTESIAN_POINT('',(-8.15E-1,0.E0,-4.284271841200E-1));
#244=LINE('',#243,#242);
#245=DIRECTION('',(0.E0,1.E0,0.E0));
#246=VECTOR('',#245,2.8E-1);
#247=CARTESIAN_POINT('',(-7.15E-1,0.E0,-5.284271841200E-1));
#248=LINE('',#247,#246);
#249=DIRECTION('',(0.E0,1.E0,0.E0));
#250=VECTOR('',#249,2.8E-1);
#251=CARTESIAN_POINT('',(7.15E-1,0.E0,-5.284271841200E-1));
#252=LINE('',#251,#250);
#253=CARTESIAN_POINT('',(8.15E-1,2.8E-1,-5.284271841200E-1));
#254=DIRECTION('',(0.E0,-1.E0,0.E0));
#255=DIRECTION('',(0.E0,0.E0,1.E0));
#256=AXIS2_PLACEMENT_3D('',#253,#254,#255);
#258=DIRECTION('',(0.E0,0.E0,-1.E0));
#259=VECTOR('',#258,8.568543682400E-1);
#260=CARTESIAN_POINT('',(8.15E-1,2.8E-1,4.284271841200E-1));
#261=LINE('',#260,#259);
#262=CARTESIAN_POINT('',(8.15E-1,2.8E-1,5.284271841200E-1));
#263=DIRECTION('',(0.E0,-1.E0,0.E0));
#264=DIRECTION('',(-1.E0,0.E0,0.E0));
#265=AXIS2_PLACEMENT_3D('',#262,#263,#264);
#267=DIRECTION('',(1.E0,0.E0,0.E0));
#268=VECTOR('',#267,1.43E0);
#269=CARTESIAN_POINT('',(-7.15E-1,2.8E-1,5.284271841200E-1));
#270=LINE('',#269,#268);
#271=CARTESIAN_POINT('',(-8.15E-1,2.8E-1,5.284271841200E-1));
#272=DIRECTION('',(0.E0,-1.E0,0.E0));
#273=DIRECTION('',(0.E0,0.E0,-1.E0));
#274=AXIS2_PLACEMENT_3D('',#271,#272,#273);
#276=DIRECTION('',(0.E0,0.E0,1.E0));
#277=VECTOR('',#276,8.568543682400E-1);
#278=CARTESIAN_POINT('',(-8.15E-1,2.8E-1,-4.284271841200E-1));
#279=LINE('',#278,#277);
#280=CARTESIAN_POINT('',(-8.15E-1,2.8E-1,-5.284271841200E-1));
#281=DIRECTION('',(0.E0,-1.E0,0.E0));
#282=DIRECTION('',(1.E0,0.E0,0.E0));
#283=AXIS2_PLACEMENT_3D('',#280,#281,#282);
#285=DIRECTION('',(-1.E0,0.E0,0.E0));
#286=VECTOR('',#285,1.43E0);
#287=CARTESIAN_POINT('',(7.15E-1,2.8E-1,-5.284271841200E-1));
#288=LINE('',#287,#286);
#289=CARTESIAN_POINT('',(-5.8E-1,2.8E-1,-2.8E-1));
#290=DIRECTION('',(0.E0,1.E0,0.E0));
#291=DIRECTION('',(0.E0,0.E0,-1.E0));
#292=AXIS2_PLACEMENT_3D('',#289,#290,#291);
#294=DIRECTION('',(0.E0,0.E0,1.E0));
#295=VECTOR('',#294,5.6E-1);
#296=CARTESIAN_POINT('',(-7.8E-1,2.8E-1,-2.8E-1));
#297=LINE('',#296,#295);
#298=CARTESIAN_POINT('',(-5.8E-1,2.8E-1,2.8E-1));
#299=DIRECTION('',(0.E0,1.E0,0.E0));
#300=DIRECTION('',(-1.E0,0.E0,0.E0));
#301=AXIS2_PLACEMENT_3D('',#298,#299,#300);
#303=DIRECTION('',(1.E0,0.E0,0.E0));
#304=VECTOR('',#303,1.16E0);
#305=CARTESIAN_POINT('',(-5.8E-1,2.8E-1,4.8E-1));
#306=LINE('',#305,#304);
#307=CARTESIAN_POINT('',(5.8E-1,2.8E-1,2.8E-1));
#308=DIRECTION('',(0.E0,1.E0,0.E0));
#309=DIRECTION('',(0.E0,0.E0,1.E0));
#310=AXIS2_PLACEMENT_3D('',#307,#308,#309);
#312=DIRECTION('',(0.E0,0.E0,-1.E0));
#313=VECTOR('',#312,5.6E-1);
#314=CARTESIAN_POINT('',(7.8E-1,2.8E-1,2.8E-1));
#315=LINE('',#314,#313);
#316=CARTESIAN_POINT('',(5.8E-1,2.8E-1,-2.8E-1));
#317=DIRECTION('',(0.E0,1.E0,0.E0));
#318=DIRECTION('',(1.E0,0.E0,0.E0));
#319=AXIS2_PLACEMENT_3D('',#316,#317,#318);
#321=DIRECTION('',(-1.E0,0.E0,0.E0));
#322=VECTOR('',#321,1.16E0);
#323=CARTESIAN_POINT('',(5.8E-1,2.8E-1,-4.8E-1));
#324=LINE('',#323,#322);
#325=DIRECTION('',(0.E0,1.E0,0.E0));
#326=VECTOR('',#325,1.2E-1);
#327=CARTESIAN_POINT('',(-5.8E-1,2.8E-1,-4.8E-1));
#328=LINE('',#327,#326);
#329=DIRECTION('',(0.E0,1.E0,0.E0));
#330=VECTOR('',#329,1.2E-1);
#331=CARTESIAN_POINT('',(5.8E-1,2.8E-1,-4.8E-1));
#332=LINE('',#331,#330);
#333=DIRECTION('',(0.E0,1.E0,0.E0));
#334=VECTOR('',#333,1.2E-1);
#335=CARTESIAN_POINT('',(7.8E-1,2.8E-1,-2.8E-1));
#336=LINE('',#335,#334);
#337=DIRECTION('',(0.E0,1.E0,0.E0));
#338=VECTOR('',#337,1.2E-1);
#339=CARTESIAN_POINT('',(7.8E-1,2.8E-1,2.8E-1));
#340=LINE('',#339,#338);
#341=DIRECTION('',(0.E0,1.E0,0.E0));
#342=VECTOR('',#341,1.2E-1);
#343=CARTESIAN_POINT('',(5.8E-1,2.8E-1,4.8E-1));
#344=LINE('',#343,#342);
#345=DIRECTION('',(0.E0,1.E0,0.E0));
#346=VECTOR('',#345,1.2E-1);
#347=CARTESIAN_POINT('',(-5.8E-1,2.8E-1,4.8E-1));
#348=LINE('',#347,#346);
#349=DIRECTION('',(0.E0,1.E0,0.E0));
#350=VECTOR('',#349,1.2E-1);
#351=CARTESIAN_POINT('',(-7.8E-1,2.8E-1,2.8E-1));
#352=LINE('',#351,#350);
#353=DIRECTION('',(0.E0,1.E0,0.E0));
#354=VECTOR('',#353,1.2E-1);
#355=CARTESIAN_POINT('',(-7.8E-1,2.8E-1,-2.8E-1));
#356=LINE('',#355,#354);
#357=CARTESIAN_POINT('',(-5.8E-1,4.E-1,-2.8E-1));
#358=DIRECTION('',(0.E0,1.E0,0.E0));
#359=DIRECTION('',(0.E0,0.E0,-1.E0));
#360=AXIS2_PLACEMENT_3D('',#357,#358,#359);
#362=DIRECTION('',(-1.E0,0.E0,0.E0));
#363=VECTOR('',#362,1.16E0);
#364=CARTESIAN_POINT('',(5.8E-1,4.E-1,-4.8E-1));
#365=LINE('',#364,#363);
#366=CARTESIAN_POINT('',(5.8E-1,4.E-1,-2.8E-1));
#367=DIRECTION('',(0.E0,1.E0,0.E0));
#368=DIRECTION('',(1.E0,0.E0,0.E0));
#369=AXIS2_PLACEMENT_3D('',#366,#367,#368);
#371=DIRECTION('',(0.E0,0.E0,-1.E0));
#372=VECTOR('',#371,5.6E-1);
#373=CARTESIAN_POINT('',(7.8E-1,4.E-1,2.8E-1));
#374=LINE('',#373,#372);
#375=CARTESIAN_POINT('',(5.8E-1,4.E-1,2.8E-1));
#376=DIRECTION('',(0.E0,1.E0,0.E0));
#377=DIRECTION('',(0.E0,0.E0,1.E0));
#378=AXIS2_PLACEMENT_3D('',#375,#376,#377);
#380=DIRECTION('',(1.E0,0.E0,0.E0));
#381=VECTOR('',#380,1.16E0);
#382=CARTESIAN_POINT('',(-5.8E-1,4.E-1,4.8E-1));
#383=LINE('',#382,#381);
#384=CARTESIAN_POINT('',(-5.8E-1,4.E-1,2.8E-1));
#385=DIRECTION('',(0.E0,1.E0,0.E0));
#386=DIRECTION('',(-1.E0,0.E0,0.E0));
#387=AXIS2_PLACEMENT_3D('',#384,#385,#386);
#389=DIRECTION('',(0.E0,0.E0,1.E0));
#390=VECTOR('',#389,5.6E-1);
#391=CARTESIAN_POINT('',(-7.8E-1,4.E-1,-2.8E-1));
#392=LINE('',#391,#390);
#393=CARTESIAN_POINT('',(5.6E-1,4.E-1,-2.65E-1));
#394=DIRECTION('',(0.E0,1.E0,0.E0));
#395=DIRECTION('',(1.E0,0.E0,0.E0));
#396=AXIS2_PLACEMENT_3D('',#393,#394,#395);
#398=DIRECTION('',(-1.E0,0.E0,0.E0));
#399=VECTOR('',#398,1.12E0);
#400=CARTESIAN_POINT('',(5.6E-1,4.E-1,-4.65E-1));
#401=LINE('',#400,#399);
#402=CARTESIAN_POINT('',(-5.6E-1,4.E-1,-2.65E-1));
#403=DIRECTION('',(0.E0,1.E0,0.E0));
#404=DIRECTION('',(0.E0,0.E0,-1.E0));
#405=AXIS2_PLACEMENT_3D('',#402,#403,#404);
#407=DIRECTION('',(0.E0,0.E0,1.E0));
#408=VECTOR('',#407,5.3E-1);
#409=CARTESIAN_POINT('',(-7.6E-1,4.E-1,-2.65E-1));
#410=LINE('',#409,#408);
#411=CARTESIAN_POINT('',(-5.6E-1,4.E-1,2.65E-1));
#412=DIRECTION('',(0.E0,1.E0,0.E0));
#413=DIRECTION('',(-1.E0,0.E0,0.E0));
#414=AXIS2_PLACEMENT_3D('',#411,#412,#413);
#416=DIRECTION('',(1.E0,0.E0,0.E0));
#417=VECTOR('',#416,1.12E0);
#418=CARTESIAN_POINT('',(-5.6E-1,4.E-1,4.65E-1));
#419=LINE('',#418,#417);
#420=CARTESIAN_POINT('',(5.6E-1,4.E-1,2.65E-1));
#421=DIRECTION('',(0.E0,1.E0,0.E0));
#422=DIRECTION('',(0.E0,0.E0,1.E0));
#423=AXIS2_PLACEMENT_3D('',#420,#421,#422);
#425=DIRECTION('',(0.E0,0.E0,-1.E0));
#426=VECTOR('',#425,5.3E-1);
#427=CARTESIAN_POINT('',(7.6E-1,4.E-1,2.65E-1));
#428=LINE('',#427,#426);
#429=DIRECTION('',(0.E0,1.E0,0.E0));
#430=VECTOR('',#429,6.E-2);
#431=CARTESIAN_POINT('',(7.6E-1,4.E-1,-2.65E-1));
#432=LINE('',#431,#430);
#433=DIRECTION('',(0.E0,1.E0,0.E0));
#434=VECTOR('',#433,6.E-2);
#435=CARTESIAN_POINT('',(7.6E-1,4.E-1,2.65E-1));
#436=LINE('',#435,#434);
#437=DIRECTION('',(0.E0,1.E0,0.E0));
#438=VECTOR('',#437,6.E-2);
#439=CARTESIAN_POINT('',(5.6E-1,4.E-1,4.65E-1));
#440=LINE('',#439,#438);
#441=DIRECTION('',(0.E0,1.E0,0.E0));
#442=VECTOR('',#441,6.E-2);
#443=CARTESIAN_POINT('',(-5.6E-1,4.E-1,4.65E-1));
#444=LINE('',#443,#442);
#445=DIRECTION('',(0.E0,1.E0,0.E0));
#446=VECTOR('',#445,6.E-2);
#447=CARTESIAN_POINT('',(-7.6E-1,4.E-1,2.65E-1));
#448=LINE('',#447,#446);
#449=DIRECTION('',(0.E0,1.E0,0.E0));
#450=VECTOR('',#449,6.E-2);
#451=CARTESIAN_POINT('',(-7.6E-1,4.E-1,-2.65E-1));
#452=LINE('',#451,#450);
#453=DIRECTION('',(0.E0,1.E0,0.E0));
#454=VECTOR('',#453,6.E-2);
#455=CARTESIAN_POINT('',(-5.6E-1,4.E-1,-4.65E-1));
#456=LINE('',#455,#454);
#457=DIRECTION('',(0.E0,1.E0,0.E0));
#458=VECTOR('',#457,6.E-2);
#459=CARTESIAN_POINT('',(5.6E-1,4.E-1,-4.65E-1));
#460=LINE('',#459,#458);
#461=CARTESIAN_POINT('',(5.6E-1,4.6E-1,-2.65E-1));
#462=DIRECTION('',(0.E0,1.E0,0.E0));
#463=DIRECTION('',(1.E0,0.E0,0.E0));
#464=AXIS2_PLACEMENT_3D('',#461,#462,#463);
#466=DIRECTION('',(0.E0,0.E0,-1.E0));
#467=VECTOR('',#466,5.3E-1);
#468=CARTESIAN_POINT('',(7.6E-1,4.6E-1,2.65E-1));
#469=LINE('',#468,#467);
#470=CARTESIAN_POINT('',(5.6E-1,4.6E-1,2.65E-1));
#471=DIRECTION('',(0.E0,1.E0,0.E0));
#472=DIRECTION('',(0.E0,0.E0,1.E0));
#473=AXIS2_PLACEMENT_3D('',#470,#471,#472);
#475=DIRECTION('',(1.E0,0.E0,0.E0));
#476=VECTOR('',#475,1.12E0);
#477=CARTESIAN_POINT('',(-5.6E-1,4.6E-1,4.65E-1));
#478=LINE('',#477,#476);
#479=CARTESIAN_POINT('',(-5.6E-1,4.6E-1,2.65E-1));
#480=DIRECTION('',(0.E0,1.E0,0.E0));
#481=DIRECTION('',(-1.E0,0.E0,0.E0));
#482=AXIS2_PLACEMENT_3D('',#479,#480,#481);
#484=DIRECTION('',(0.E0,0.E0,1.E0));
#485=VECTOR('',#484,5.3E-1);
#486=CARTESIAN_POINT('',(-7.6E-1,4.6E-1,-2.65E-1));
#487=LINE('',#486,#485);
#488=CARTESIAN_POINT('',(-5.6E-1,4.6E-1,-2.65E-1));
#489=DIRECTION('',(0.E0,1.E0,0.E0));
#490=DIRECTION('',(0.E0,0.E0,-1.E0));
#491=AXIS2_PLACEMENT_3D('',#488,#489,#490);
#493=DIRECTION('',(-1.E0,0.E0,0.E0));
#494=VECTOR('',#493,1.12E0);
#495=CARTESIAN_POINT('',(5.6E-1,4.6E-1,-4.65E-1));
#496=LINE('',#495,#494);
#497=DIRECTION('',(1.110223024625E-14,-1.E0,0.E0));
#498=VECTOR('',#497,1.E-2);
#499=CARTESIAN_POINT('',(-6.840212782013E-1,0.E0,-4.3E-1));
#500=LINE('',#499,#498);
#501=DIRECTION('',(-1.110223024625E-14,-1.E0,0.E0));
#502=VECTOR('',#501,1.E-2);
#503=CARTESIAN_POINT('',(-7.55E-1,0.E0,-3.700806661517E-1));
#504=LINE('',#503,#502);
#505=DIRECTION('',(0.E0,-1.E0,-1.110223024625E-14));
#506=VECTOR('',#505,1.E-2);
#507=CARTESIAN_POINT('',(-7.55E-1,0.E0,3.700806661517E-1));
#508=LINE('',#507,#506);
#509=DIRECTION('',(0.E0,-1.E0,0.E0));
#510=VECTOR('',#509,1.E-2);
#511=CARTESIAN_POINT('',(-6.840212782013E-1,0.E0,4.3E-1));
#512=LINE('',#511,#510);
#513=DIRECTION('',(0.E0,-1.E0,0.E0));
#514=VECTOR('',#513,1.E-2);
#515=CARTESIAN_POINT('',(-3.6E-1,0.E0,4.3E-1));
#516=LINE('',#515,#514);
#517=DIRECTION('',(0.E0,-1.E0,0.E0));
#518=VECTOR('',#517,1.E-2);
#519=CARTESIAN_POINT('',(-3.6E-1,0.E0,-4.3E-1));
#520=LINE('',#519,#518);
#521=DIRECTION('',(1.E0,0.E0,0.E0));
#522=VECTOR('',#521,3.240212782013E-1);
#523=CARTESIAN_POINT('',(-6.840212782013E-1,-1.E-2,-4.3E-1));
#524=LINE('',#523,#522);
#525=CARTESIAN_POINT('',(-8.25E-1,-1.E-2,-5.25E-1));
#526=DIRECTION('',(0.E0,1.E0,0.E0));
#527=DIRECTION('',(4.117647058824E-1,0.E0,9.112901991076E-1));
#528=AXIS2_PLACEMENT_3D('',#525,#526,#527);
#530=DIRECTION('',(0.E0,0.E0,-1.E0));
#531=VECTOR('',#530,7.401613323034E-1);
#532=CARTESIAN_POINT('',(-7.55E-1,-1.E-2,3.700806661517E-1));
#533=LINE('',#532,#531);
#534=CARTESIAN_POINT('',(-8.25E-1,-1.E-2,5.25E-1));
#535=DIRECTION('',(0.E0,1.E0,0.E0));
#536=DIRECTION('',(8.292865988160E-1,0.E0,-5.588235294117E-1));
#537=AXIS2_PLACEMENT_3D('',#534,#535,#536);
#539=DIRECTION('',(-1.E0,0.E0,0.E0));
#540=VECTOR('',#539,3.240212782013E-1);
#541=CARTESIAN_POINT('',(-3.6E-1,-1.E-2,4.3E-1));
#542=LINE('',#541,#540);
#543=DIRECTION('',(0.E0,0.E0,1.E0));
#544=VECTOR('',#543,8.6E-1);
#545=CARTESIAN_POINT('',(-3.6E-1,-1.E-2,-4.3E-1));
#546=LINE('',#545,#544);
#547=DIRECTION('',(-1.E0,0.E0,0.E0));
#548=VECTOR('',#547,1.240212782013E-1);
#549=CARTESIAN_POINT('',(6.840212782013E-1,-1.E-2,4.3E-1));
#550=LINE('',#549,#548);
#551=CARTESIAN_POINT('',(8.25E-1,-1.E-2,5.25E-1));
#552=DIRECTION('',(0.E0,1.E0,0.E0));
#553=DIRECTION('',(-4.117647058824E-1,0.E0,-9.112901991076E-1));
#554=AXIS2_PLACEMENT_3D('',#551,#552,#553);
#556=DIRECTION('',(0.E0,0.E0,1.E0));
#557=VECTOR('',#556,7.401613323034E-1);
#558=CARTESIAN_POINT('',(7.55E-1,-1.E-2,-3.700806661517E-1));
#559=LINE('',#558,#557);
#560=CARTESIAN_POINT('',(8.25E-1,-1.E-2,-5.25E-1));
#561=DIRECTION('',(0.E0,1.E0,0.E0));
#562=DIRECTION('',(-8.292865988160E-1,0.E0,5.588235294117E-1));
#563=AXIS2_PLACEMENT_3D('',#560,#561,#562);
#565=DIRECTION('',(1.E0,0.E0,0.E0));
#566=VECTOR('',#565,3.240212782013E-1);
#567=CARTESIAN_POINT('',(3.6E-1,-1.E-2,-4.3E-1));
#568=LINE('',#567,#566);
#569=DIRECTION('',(0.E0,0.E0,-1.E0));
#570=VECTOR('',#569,6.6E-1);
#571=CARTESIAN_POINT('',(3.6E-1,-1.E-2,2.3E-1));
#572=LINE('',#571,#570);
#573=DIRECTION('',(-7.071067811865E-1,0.E0,-7.071067811866E-1));
#574=VECTOR('',#573,2.828427124746E-1);
#575=CARTESIAN_POINT('',(5.6E-1,-1.E-2,4.3E-1));
#576=LINE('',#575,#574);
#577=DIRECTION('',(0.E0,-1.E0,0.E0));
#578=VECTOR('',#577,1.E-2);
#579=CARTESIAN_POINT('',(6.840212782013E-1,0.E0,4.3E-1));
#580=LINE('',#579,#578);
#581=DIRECTION('',(0.E0,-1.E0,-1.665334536938E-14));
#582=VECTOR('',#581,1.E-2);
#583=CARTESIAN_POINT('',(7.55E-1,0.E0,3.700806661517E-1));
#584=LINE('',#583,#582);
#585=DIRECTION('',(2.220446049250E-14,-1.E0,3.330669073875E-14));
#586=VECTOR('',#585,1.E-2);
#587=CARTESIAN_POINT('',(7.55E-1,0.E0,-3.700806661517E-1));
#588=LINE('',#587,#586);
#589=DIRECTION('',(-4.440892098501E-14,-1.E0,-1.110223024625E-14));
#590=VECTOR('',#589,1.E-2);
#591=CARTESIAN_POINT('',(6.840212782013E-1,0.E0,-4.3E-1));
#592=LINE('',#591,#590);
#593=DIRECTION('',(0.E0,-1.E0,0.E0));
#594=VECTOR('',#593,1.E-2);
#595=CARTESIAN_POINT('',(3.6E-1,0.E0,-4.3E-1));
#596=LINE('',#595,#594);
#597=DIRECTION('',(0.E0,-1.E0,0.E0));
#598=VECTOR('',#597,1.E-2);
#599=CARTESIAN_POINT('',(3.6E-1,0.E0,2.3E-1));
#600=LINE('',#599,#598);
#601=DIRECTION('',(0.E0,-1.E0,0.E0));
#602=VECTOR('',#601,1.E-2);
#603=CARTESIAN_POINT('',(5.6E-1,0.E0,4.3E-1));
#604=LINE('',#603,#602);
#605=CARTESIAN_POINT('',(8.15E-1,0.E0,-4.284271841200E-1));
#606=CARTESIAN_POINT('',(7.15E-1,0.E0,-5.284271841200E-1));
#607=VERTEX_POINT('',#605);
#608=VERTEX_POINT('',#606);
#609=CARTESIAN_POINT('',(-7.15E-1,0.E0,-5.284271841200E-1));
#610=VERTEX_POINT('',#609);
#611=CARTESIAN_POINT('',(-8.15E-1,0.E0,-4.284271841200E-1));
#612=VERTEX_POINT('',#611);
#613=CARTESIAN_POINT('',(-8.15E-1,0.E0,4.284271841200E-1));
#614=VERTEX_POINT('',#613);
#615=CARTESIAN_POINT('',(-7.15E-1,0.E0,5.284271841200E-1));
#616=VERTEX_POINT('',#615);
#617=CARTESIAN_POINT('',(7.15E-1,0.E0,5.284271841200E-1));
#618=VERTEX_POINT('',#617);
#619=CARTESIAN_POINT('',(8.15E-1,0.E0,4.284271841200E-1));
#620=VERTEX_POINT('',#619);
#621=CARTESIAN_POINT('',(8.15E-1,2.8E-1,-4.284271841200E-1));
#622=CARTESIAN_POINT('',(7.15E-1,2.8E-1,-5.284271841200E-1));
#623=VERTEX_POINT('',#621);
#624=VERTEX_POINT('',#622);
#625=CARTESIAN_POINT('',(-7.15E-1,2.8E-1,-5.284271841200E-1));
#626=VERTEX_POINT('',#625);
#627=CARTESIAN_POINT('',(-8.15E-1,2.8E-1,-4.284271841200E-1));
#628=VERTEX_POINT('',#627);
#629=CARTESIAN_POINT('',(-8.15E-1,2.8E-1,4.284271841200E-1));
#630=VERTEX_POINT('',#629);
#631=CARTESIAN_POINT('',(-7.15E-1,2.8E-1,5.284271841200E-1));
#632=VERTEX_POINT('',#631);
#633=CARTESIAN_POINT('',(7.15E-1,2.8E-1,5.284271841200E-1));
#634=VERTEX_POINT('',#633);
#635=CARTESIAN_POINT('',(8.15E-1,2.8E-1,4.284271841200E-1));
#636=VERTEX_POINT('',#635);
#637=CARTESIAN_POINT('',(-5.8E-1,4.E-1,-4.8E-1));
#638=CARTESIAN_POINT('',(-7.8E-1,4.E-1,-2.8E-1));
#639=VERTEX_POINT('',#637);
#640=VERTEX_POINT('',#638);
#641=CARTESIAN_POINT('',(-7.8E-1,4.E-1,2.8E-1));
#642=VERTEX_POINT('',#641);
#643=CARTESIAN_POINT('',(-5.8E-1,4.E-1,4.8E-1));
#644=VERTEX_POINT('',#643);
#645=CARTESIAN_POINT('',(5.8E-1,4.E-1,4.8E-1));
#646=VERTEX_POINT('',#645);
#647=CARTESIAN_POINT('',(7.8E-1,4.E-1,2.8E-1));
#648=VERTEX_POINT('',#647);
#649=CARTESIAN_POINT('',(7.8E-1,4.E-1,-2.8E-1));
#650=VERTEX_POINT('',#649);
#651=CARTESIAN_POINT('',(5.8E-1,4.E-1,-4.8E-1));
#652=VERTEX_POINT('',#651);
#653=CARTESIAN_POINT('',(-5.8E-1,2.8E-1,-4.8E-1));
#654=CARTESIAN_POINT('',(-7.8E-1,2.8E-1,-2.8E-1));
#655=VERTEX_POINT('',#653);
#656=VERTEX_POINT('',#654);
#657=CARTESIAN_POINT('',(-7.8E-1,2.8E-1,2.8E-1));
#658=VERTEX_POINT('',#657);
#659=CARTESIAN_POINT('',(-5.8E-1,2.8E-1,4.8E-1));
#660=VERTEX_POINT('',#659);
#661=CARTESIAN_POINT('',(5.8E-1,2.8E-1,4.8E-1));
#662=VERTEX_POINT('',#661);
#663=CARTESIAN_POINT('',(7.8E-1,2.8E-1,2.8E-1));
#664=VERTEX_POINT('',#663);
#665=CARTESIAN_POINT('',(7.8E-1,2.8E-1,-2.8E-1));
#666=VERTEX_POINT('',#665);
#667=CARTESIAN_POINT('',(5.8E-1,2.8E-1,-4.8E-1));
#668=VERTEX_POINT('',#667);
#669=CARTESIAN_POINT('',(7.6E-1,4.6E-1,-2.65E-1));
#670=CARTESIAN_POINT('',(5.6E-1,4.6E-1,-4.65E-1));
#671=VERTEX_POINT('',#669);
#672=VERTEX_POINT('',#670);
#673=CARTESIAN_POINT('',(-5.6E-1,4.6E-1,-4.65E-1));
#674=VERTEX_POINT('',#673);
#675=CARTESIAN_POINT('',(-7.6E-1,4.6E-1,-2.65E-1));
#676=VERTEX_POINT('',#675);
#677=CARTESIAN_POINT('',(-7.6E-1,4.6E-1,2.65E-1));
#678=VERTEX_POINT('',#677);
#679=CARTESIAN_POINT('',(-5.6E-1,4.6E-1,4.65E-1));
#680=VERTEX_POINT('',#679);
#681=CARTESIAN_POINT('',(5.6E-1,4.6E-1,4.65E-1));
#682=VERTEX_POINT('',#681);
#683=CARTESIAN_POINT('',(7.6E-1,4.6E-1,2.65E-1));
#684=VERTEX_POINT('',#683);
#685=CARTESIAN_POINT('',(7.6E-1,4.E-1,-2.65E-1));
#686=CARTESIAN_POINT('',(5.6E-1,4.E-1,-4.65E-1));
#687=VERTEX_POINT('',#685);
#688=VERTEX_POINT('',#686);
#689=CARTESIAN_POINT('',(-5.6E-1,4.E-1,-4.65E-1));
#690=VERTEX_POINT('',#689);
#691=CARTESIAN_POINT('',(-7.6E-1,4.E-1,-2.65E-1));
#692=VERTEX_POINT('',#691);
#693=CARTESIAN_POINT('',(-7.6E-1,4.E-1,2.65E-1));
#694=VERTEX_POINT('',#693);
#695=CARTESIAN_POINT('',(-5.6E-1,4.E-1,4.65E-1));
#696=VERTEX_POINT('',#695);
#697=CARTESIAN_POINT('',(5.6E-1,4.E-1,4.65E-1));
#698=VERTEX_POINT('',#697);
#699=CARTESIAN_POINT('',(7.6E-1,4.E-1,2.65E-1));
#700=VERTEX_POINT('',#699);
#701=CARTESIAN_POINT('',(-6.840212782013E-1,-1.E-2,-4.3E-1));
#702=CARTESIAN_POINT('',(-3.6E-1,-1.E-2,-4.3E-1));
#703=VERTEX_POINT('',#701);
#704=VERTEX_POINT('',#702);
#705=CARTESIAN_POINT('',(-3.6E-1,-1.E-2,4.3E-1));
#706=VERTEX_POINT('',#705);
#707=CARTESIAN_POINT('',(-6.840212782013E-1,-1.E-2,4.3E-1));
#708=VERTEX_POINT('',#707);
#709=CARTESIAN_POINT('',(-7.55E-1,-1.E-2,3.700806661517E-1));
#710=VERTEX_POINT('',#709);
#711=CARTESIAN_POINT('',(-7.55E-1,-1.E-2,-3.700806661517E-1));
#712=VERTEX_POINT('',#711);
#713=CARTESIAN_POINT('',(6.840212782013E-1,-1.E-2,4.3E-1));
#714=CARTESIAN_POINT('',(5.6E-1,-1.E-2,4.3E-1));
#715=VERTEX_POINT('',#713);
#716=VERTEX_POINT('',#714);
#717=CARTESIAN_POINT('',(3.6E-1,-1.E-2,2.3E-1));
#718=VERTEX_POINT('',#717);
#719=CARTESIAN_POINT('',(3.6E-1,-1.E-2,-4.3E-1));
#720=VERTEX_POINT('',#719);
#721=CARTESIAN_POINT('',(6.840212782013E-1,-1.E-2,-4.3E-1));
#722=VERTEX_POINT('',#721);
#723=CARTESIAN_POINT('',(7.55E-1,-1.E-2,-3.700806661517E-1));
#724=VERTEX_POINT('',#723);
#725=CARTESIAN_POINT('',(7.55E-1,-1.E-2,3.700806661517E-1));
#726=VERTEX_POINT('',#725);
#727=CARTESIAN_POINT('',(-6.840212782013E-1,0.E0,-4.3E-1));
#728=CARTESIAN_POINT('',(-3.6E-1,0.E0,-4.3E-1));
#729=VERTEX_POINT('',#727);
#730=VERTEX_POINT('',#728);
#731=CARTESIAN_POINT('',(-3.6E-1,0.E0,4.3E-1));
#732=VERTEX_POINT('',#731);
#733=CARTESIAN_POINT('',(-6.840212782013E-1,0.E0,4.3E-1));
#734=VERTEX_POINT('',#733);
#735=CARTESIAN_POINT('',(-7.55E-1,0.E0,3.700806661517E-1));
#736=VERTEX_POINT('',#735);
#737=CARTESIAN_POINT('',(-7.55E-1,0.E0,-3.700806661517E-1));
#738=VERTEX_POINT('',#737);
#739=CARTESIAN_POINT('',(6.840212782013E-1,0.E0,4.3E-1));
#740=CARTESIAN_POINT('',(5.6E-1,0.E0,4.3E-1));
#741=VERTEX_POINT('',#739);
#742=VERTEX_POINT('',#740);
#743=CARTESIAN_POINT('',(3.6E-1,0.E0,2.3E-1));
#744=VERTEX_POINT('',#743);
#745=CARTESIAN_POINT('',(3.6E-1,0.E0,-4.3E-1));
#746=VERTEX_POINT('',#745);
#747=CARTESIAN_POINT('',(6.840212782013E-1,0.E0,-4.3E-1));
#748=VERTEX_POINT('',#747);
#749=CARTESIAN_POINT('',(7.55E-1,0.E0,-3.700806661517E-1));
#750=VERTEX_POINT('',#749);
#751=CARTESIAN_POINT('',(7.55E-1,0.E0,3.700806661517E-1));
#752=VERTEX_POINT('',#751);
#753=CARTESIAN_POINT('',(0.E0,0.E0,0.E0));
#754=DIRECTION('',(0.E0,1.E0,0.E0));
#755=DIRECTION('',(1.E0,0.E0,0.E0));
#756=AXIS2_PLACEMENT_3D('',#753,#754,#755);
#757=PLANE('',#756);
#759=ORIENTED_EDGE('',*,*,#758,.T.);
#761=ORIENTED_EDGE('',*,*,#760,.T.);
#763=ORIENTED_EDGE('',*,*,#762,.T.);
#765=ORIENTED_EDGE('',*,*,#764,.T.);
#767=ORIENTED_EDGE('',*,*,#766,.T.);
#769=ORIENTED_EDGE('',*,*,#768,.T.);
#771=ORIENTED_EDGE('',*,*,#770,.T.);
#773=ORIENTED_EDGE('',*,*,#772,.T.);
#774=EDGE_LOOP('',(#759,#761,#763,#765,#767,#769,#771,#773));
#775=FACE_OUTER_BOUND('',#774,.F.);
#777=ORIENTED_EDGE('',*,*,#776,.T.);
#779=ORIENTED_EDGE('',*,*,#778,.T.);
#781=ORIENTED_EDGE('',*,*,#780,.T.);
#783=ORIENTED_EDGE('',*,*,#782,.F.);
#785=ORIENTED_EDGE('',*,*,#784,.T.);
#787=ORIENTED_EDGE('',*,*,#786,.F.);
#788=EDGE_LOOP('',(#777,#779,#781,#783,#785,#787));
#789=FACE_BOUND('',#788,.F.);
#791=ORIENTED_EDGE('',*,*,#790,.T.);
#793=ORIENTED_EDGE('',*,*,#792,.T.);
#795=ORIENTED_EDGE('',*,*,#794,.T.);
#797=ORIENTED_EDGE('',*,*,#796,.T.);
#799=ORIENTED_EDGE('',*,*,#798,.F.);
#801=ORIENTED_EDGE('',*,*,#800,.T.);
#803=ORIENTED_EDGE('',*,*,#802,.F.);
#804=EDGE_LOOP('',(#791,#793,#795,#797,#799,#801,#803));
#805=FACE_BOUND('',#804,.F.);
#807=FILL_AREA_STYLE_COLOUR('',#65);
#808=FILL_AREA_STYLE('',(#807));
#809=SURFACE_STYLE_FILL_AREA(#808);
#810=SURFACE_SIDE_STYLE('',(#809));
#811=SURFACE_STYLE_USAGE(.POSITIVE.,#810);
#812=PRESENTATION_STYLE_ASSIGNMENT((#811));
#813=STYLED_ITEM('',(#812),#806);
#814=CARTESIAN_POINT('',(8.15E-1,0.E0,-5.284271841200E-1));
#815=DIRECTION('',(0.E0,1.E0,0.E0));
#816=DIRECTION('',(1.E0,0.E0,0.E0));
#817=AXIS2_PLACEMENT_3D('',#814,#815,#816);
#818=CYLINDRICAL_SURFACE('',#817,1.E-1);
#819=ORIENTED_EDGE('',*,*,#758,.F.);
#821=ORIENTED_EDGE('',*,*,#820,.T.);
#823=ORIENTED_EDGE('',*,*,#822,.T.);
#825=ORIENTED_EDGE('',*,*,#824,.F.);
#826=EDGE_LOOP('',(#819,#821,#823,#825));
#827=FACE_OUTER_BOUND('',#826,.F.);
#829=FILL_AREA_STYLE_COLOUR('',#65);
#830=FILL_AREA_STYLE('',(#829));
#831=SURFACE_STYLE_FILL_AREA(#830);
#832=SURFACE_SIDE_STYLE('',(#831));
#833=SURFACE_STYLE_USAGE(.POSITIVE.,#832);
#834=PRESENTATION_STYLE_ASSIGNMENT((#833));
#835=STYLED_ITEM('',(#834),#828);
#836=CARTESIAN_POINT('',(8.15E-1,0.E0,4.284271841200E-1));
#837=DIRECTION('',(1.E0,0.E0,0.E0));
#838=DIRECTION('',(0.E0,0.E0,-1.E0));
#839=AXIS2_PLACEMENT_3D('',#836,#837,#838);
#840=PLANE('',#839);
#841=ORIENTED_EDGE('',*,*,#772,.F.);
#843=ORIENTED_EDGE('',*,*,#842,.T.);
#845=ORIENTED_EDGE('',*,*,#844,.T.);
#846=ORIENTED_EDGE('',*,*,#820,.F.);
#847=EDGE_LOOP('',(#841,#843,#845,#846));
#848=FACE_OUTER_BOUND('',#847,.F.);
#850=FILL_AREA_STYLE_COLOUR('',#65);
#851=FILL_AREA_STYLE('',(#850));
#852=SURFACE_STYLE_FILL_AREA(#851);
#853=SURFACE_SIDE_STYLE('',(#852));
#854=SURFACE_STYLE_USAGE(.POSITIVE.,#853);
#855=PRESENTATION_STYLE_ASSIGNMENT((#854));
#856=STYLED_ITEM('',(#855),#849);
#857=CARTESIAN_POINT('',(8.15E-1,0.E0,5.284271841200E-1));
#858=DIRECTION('',(0.E0,1.E0,0.E0));
#859=DIRECTION('',(1.E0,0.E0,0.E0));
#860=AXIS2_PLACEMENT_3D('',#857,#858,#859);
#861=CYLINDRICAL_SURFACE('',#860,1.E-1);
#862=ORIENTED_EDGE('',*,*,#770,.F.);
#864=ORIENTED_EDGE('',*,*,#863,.T.);
#866=ORIENTED_EDGE('',*,*,#865,.T.);
#867=ORIENTED_EDGE('',*,*,#842,.F.);
#868=EDGE_LOOP('',(#862,#864,#866,#867));
#869=FACE_OUTER_BOUND('',#868,.F.);
#871=FILL_AREA_STYLE_COLOUR('',#65);
#872=FILL_AREA_STYLE('',(#871));
#873=SURFACE_STYLE_FILL_AREA(#872);
#874=SURFACE_SIDE_STYLE('',(#873));
#875=SURFACE_STYLE_USAGE(.POSITIVE.,#874);
#876=PRESENTATION_STYLE_ASSIGNMENT((#875));
#877=STYLED_ITEM('',(#876),#870);
#878=CARTESIAN_POINT('',(-7.15E-1,0.E0,5.284271841200E-1));
#879=DIRECTION('',(0.E0,0.E0,1.E0));
#880=DIRECTION('',(1.E0,0.E0,0.E0));
#881=AXIS2_PLACEMENT_3D('',#878,#879,#880);
#882=PLANE('',#881);
#883=ORIENTED_EDGE('',*,*,#768,.F.);
#885=ORIENTED_EDGE('',*,*,#884,.T.);
#887=ORIENTED_EDGE('',*,*,#886,.T.);
#888=ORIENTED_EDGE('',*,*,#863,.F.);
#889=EDGE_LOOP('',(#883,#885,#887,#888));
#890=FACE_OUTER_BOUND('',#889,.F.);
#892=FILL_AREA_STYLE_COLOUR('',#65);
#893=FILL_AREA_STYLE('',(#892));
#894=SURFACE_STYLE_FILL_AREA(#893);
#895=SURFACE_SIDE_STYLE('',(#894));
#896=SURFACE_STYLE_USAGE(.POSITIVE.,#895);
#897=PRESENTATION_STYLE_ASSIGNMENT((#896));
#898=STYLED_ITEM('',(#897),#891);
#899=CARTESIAN_POINT('',(-8.15E-1,0.E0,5.284271841200E-1));
#900=DIRECTION('',(0.E0,1.E0,0.E0));
#901=DIRECTION('',(1.E0,0.E0,0.E0));
#902=AXIS2_PLACEMENT_3D('',#899,#900,#901);
#903=CYLINDRICAL_SURFACE('',#902,1.E-1);
#904=ORIENTED_EDGE('',*,*,#766,.F.);
#906=ORIENTED_EDGE('',*,*,#905,.T.);
#908=ORIENTED_EDGE('',*,*,#907,.T.);
#909=ORIENTED_EDGE('',*,*,#884,.F.);
#910=EDGE_LOOP('',(#904,#906,#908,#909));
#911=FACE_OUTER_BOUND('',#910,.F.);
#913=FILL_AREA_STYLE_COLOUR('',#65);
#914=FILL_AREA_STYLE('',(#913));
#915=SURFACE_STYLE_FILL_AREA(#914);
#916=SURFACE_SIDE_STYLE('',(#915));
#917=SURFACE_STYLE_USAGE(.POSITIVE.,#916);
#918=PRESENTATION_STYLE_ASSIGNMENT((#917));
#919=STYLED_ITEM('',(#918),#912);
#920=CARTESIAN_POINT('',(-8.15E-1,0.E0,-4.284271841200E-1));
#921=DIRECTION('',(-1.E0,0.E0,0.E0));
#922=DIRECTION('',(0.E0,0.E0,1.E0));
#923=AXIS2_PLACEMENT_3D('',#920,#921,#922);
#924=PLANE('',#923);
#925=ORIENTED_EDGE('',*,*,#764,.F.);
#927=ORIENTED_EDGE('',*,*,#926,.T.);
#929=ORIENTED_EDGE('',*,*,#928,.T.);
#930=ORIENTED_EDGE('',*,*,#905,.F.);
#931=EDGE_LOOP('',(#925,#927,#929,#930));
#932=FACE_OUTER_BOUND('',#931,.F.);
#934=FILL_AREA_STYLE_COLOUR('',#65);
#935=FILL_AREA_STYLE('',(#934));
#936=SURFACE_STYLE_FILL_AREA(#935);
#937=SURFACE_SIDE_STYLE('',(#936));
#938=SURFACE_STYLE_USAGE(.POSITIVE.,#937);
#939=PRESENTATION_STYLE_ASSIGNMENT((#938));
#940=STYLED_ITEM('',(#939),#933);
#941=CARTESIAN_POINT('',(-8.15E-1,0.E0,-5.284271841200E-1));
#942=DIRECTION('',(0.E0,1.E0,0.E0));
#943=DIRECTION('',(1.E0,0.E0,0.E0));
#944=AXIS2_PLACEMENT_3D('',#941,#942,#943);
#945=CYLINDRICAL_SURFACE('',#944,1.E-1);
#946=ORIENTED_EDGE('',*,*,#762,.F.);
#948=ORIENTED_EDGE('',*,*,#947,.T.);
#950=ORIENTED_EDGE('',*,*,#949,.T.);
#951=ORIENTED_EDGE('',*,*,#926,.F.);
#952=EDGE_LOOP('',(#946,#948,#950,#951));
#953=FACE_OUTER_BOUND('',#952,.F.);
#955=FILL_AREA_STYLE_COLOUR('',#65);
#956=FILL_AREA_STYLE('',(#955));
#957=SURFACE_STYLE_FILL_AREA(#956);
#958=SURFACE_SIDE_STYLE('',(#957));
#959=SURFACE_STYLE_USAGE(.POSITIVE.,#958);
#960=PRESENTATION_STYLE_ASSIGNMENT((#959));
#961=STYLED_ITEM('',(#960),#954);
#962=CARTESIAN_POINT('',(7.15E-1,0.E0,-5.284271841200E-1));
#963=DIRECTION('',(0.E0,0.E0,-1.E0));
#964=DIRECTION('',(-1.E0,0.E0,0.E0));
#965=AXIS2_PLACEMENT_3D('',#962,#963,#964);
#966=PLANE('',#965);
#967=ORIENTED_EDGE('',*,*,#760,.F.);
#968=ORIENTED_EDGE('',*,*,#824,.T.);
#970=ORIENTED_EDGE('',*,*,#969,.T.);
#971=ORIENTED_EDGE('',*,*,#947,.F.);
#972=EDGE_LOOP('',(#967,#968,#970,#971));
#973=FACE_OUTER_BOUND('',#972,.F.);
#975=FILL_AREA_STYLE_COLOUR('',#65);
#976=FILL_AREA_STYLE('',(#975));
#977=SURFACE_STYLE_FILL_AREA(#976);
#978=SURFACE_SIDE_STYLE('',(#977));
#979=SURFACE_STYLE_USAGE(.POSITIVE.,#978);
#980=PRESENTATION_STYLE_ASSIGNMENT((#979));
#981=STYLED_ITEM('',(#980),#974);
#982=CARTESIAN_POINT('',(0.E0,2.8E-1,0.E0));
#983=DIRECTION('',(0.E0,1.E0,0.E0));
#984=DIRECTION('',(1.E0,0.E0,0.E0));
#985=AXIS2_PLACEMENT_3D('',#982,#983,#984);
#986=PLANE('',#985);
#987=ORIENTED_EDGE('',*,*,#822,.F.);
#988=ORIENTED_EDGE('',*,*,#844,.F.);
#989=ORIENTED_EDGE('',*,*,#865,.F.);
#990=ORIENTED_EDGE('',*,*,#886,.F.);
#991=ORIENTED_EDGE('',*,*,#907,.F.);
#992=ORIENTED_EDGE('',*,*,#928,.F.);
#993=ORIENTED_EDGE('',*,*,#949,.F.);
#994=ORIENTED_EDGE('',*,*,#969,.F.);
#995=EDGE_LOOP('',(#987,#988,#989,#990,#991,#992,#993,#994));
#996=FACE_OUTER_BOUND('',#995,.F.);
#998=ORIENTED_EDGE('',*,*,#997,.T.);
#1000=ORIENTED_EDGE('',*,*,#999,.T.);
#1002=ORIENTED_EDGE('',*,*,#1001,.T.);
#1004=ORIENTED_EDGE('',*,*,#1003,.T.);
#1006=ORIENTED_EDGE('',*,*,#1005,.T.);
#1008=ORIENTED_EDGE('',*,*,#1007,.T.);
#1010=ORIENTED_EDGE('',*,*,#1009,.T.);
#1012=ORIENTED_EDGE('',*,*,#1011,.T.);
#1013=EDGE_LOOP('',(#998,#1000,#1002,#1004,#1006,#1008,#1010,#1012));
#1014=FACE_BOUND('',#1013,.F.);
#1016=FILL_AREA_STYLE_COLOUR('',#65);
#1017=FILL_AREA_STYLE('',(#1016));
#1018=SURFACE_STYLE_FILL_AREA(#1017);
#1019=SURFACE_SIDE_STYLE('',(#1018));
#1020=SURFACE_STYLE_USAGE(.POSITIVE.,#1019);
#1021=PRESENTATION_STYLE_ASSIGNMENT((#1020));
#1022=STYLED_ITEM('',(#1021),#1015);
#1023=CARTESIAN_POINT('',(-5.8E-1,2.8E-1,-2.8E-1));
#1024=DIRECTION('',(0.E0,1.E0,0.E0));
#1025=DIRECTION('',(1.E0,0.E0,0.E0));
#1026=AXIS2_PLACEMENT_3D('',#1023,#1024,#1025);
#1027=CYLINDRICAL_SURFACE('',#1026,2.E-1);
#1028=ORIENTED_EDGE('',*,*,#997,.F.);
#1030=ORIENTED_EDGE('',*,*,#1029,.T.);
#1032=ORIENTED_EDGE('',*,*,#1031,.T.);
#1034=ORIENTED_EDGE('',*,*,#1033,.F.);
#1035=EDGE_LOOP('',(#1028,#1030,#1032,#1034));
#1036=FACE_OUTER_BOUND('',#1035,.F.);
#1038=FILL_AREA_STYLE_COLOUR('',#124);
#1039=FILL_AREA_STYLE('',(#1038));
#1040=SURFACE_STYLE_FILL_AREA(#1039);
#1041=SURFACE_SIDE_STYLE('',(#1040));
#1042=SURFACE_STYLE_USAGE(.POSITIVE.,#1041);
#1043=PRESENTATION_STYLE_ASSIGNMENT((#1042));
#1044=STYLED_ITEM('',(#1043),#1037);
#1045=CARTESIAN_POINT('',(5.8E-1,2.8E-1,-4.8E-1));
#1046=DIRECTION('',(0.E0,0.E0,-1.E0));
#1047=DIRECTION('',(-1.E0,0.E0,0.E0));
#1048=AXIS2_PLACEMENT_3D('',#1045,#1046,#1047);
#1049=PLANE('',#1048);
#1050=ORIENTED_EDGE('',*,*,#1011,.F.);
#1052=ORIENTED_EDGE('',*,*,#1051,.T.);
#1054=ORIENTED_EDGE('',*,*,#1053,.T.);
#1055=ORIENTED_EDGE('',*,*,#1029,.F.);
#1056=EDGE_LOOP('',(#1050,#1052,#1054,#1055));
#1057=FACE_OUTER_BOUND('',#1056,.F.);
#1059=FILL_AREA_STYLE_COLOUR('',#124);
#1060=FILL_AREA_STYLE('',(#1059));
#1061=SURFACE_STYLE_FILL_AREA(#1060);
#1062=SURFACE_SIDE_STYLE('',(#1061));
#1063=SURFACE_STYLE_USAGE(.POSITIVE.,#1062);
#1064=PRESENTATION_STYLE_ASSIGNMENT((#1063));
#1065=STYLED_ITEM('',(#1064),#1058);
#1066=CARTESIAN_POINT('',(5.8E-1,2.8E-1,-2.8E-1));
#1067=DIRECTION('',(0.E0,1.E0,0.E0));
#1068=DIRECTION('',(1.E0,0.E0,0.E0));
#1069=AXIS2_PLACEMENT_3D('',#1066,#1067,#1068);
#1070=CYLINDRICAL_SURFACE('',#1069,2.E-1);
#1071=ORIENTED_EDGE('',*,*,#1009,.F.);
#1073=ORIENTED_EDGE('',*,*,#1072,.T.);
#1075=ORIENTED_EDGE('',*,*,#1074,.T.);
#1076=ORIENTED_EDGE('',*,*,#1051,.F.);
#1077=EDGE_LOOP('',(#1071,#1073,#1075,#1076));
#1078=FACE_OUTER_BOUND('',#1077,.F.);
#1080=FILL_AREA_STYLE_COLOUR('',#124);
#1081=FILL_AREA_STYLE('',(#1080));
#1082=SURFACE_STYLE_FILL_AREA(#1081);
#1083=SURFACE_SIDE_STYLE('',(#1082));
#1084=SURFACE_STYLE_USAGE(.POSITIVE.,#1083);
#1085=PRESENTATION_STYLE_ASSIGNMENT((#1084));
#1086=STYLED_ITEM('',(#1085),#1079);
#1087=CARTESIAN_POINT('',(7.8E-1,2.8E-1,2.8E-1));
#1088=DIRECTION('',(1.E0,0.E0,0.E0));
#1089=DIRECTION('',(0.E0,0.E0,-1.E0));
#1090=AXIS2_PLACEMENT_3D('',#1087,#1088,#1089);
#1091=PLANE('',#1090);
#1092=ORIENTED_EDGE('',*,*,#1007,.F.);
#1094=ORIENTED_EDGE('',*,*,#1093,.T.);
#1096=ORIENTED_EDGE('',*,*,#1095,.T.);
#1097=ORIENTED_EDGE('',*,*,#1072,.F.);
#1098=EDGE_LOOP('',(#1092,#1094,#1096,#1097));
#1099=FACE_OUTER_BOUND('',#1098,.F.);
#1101=FILL_AREA_STYLE_COLOUR('',#124);
#1102=FILL_AREA_STYLE('',(#1101));
#1103=SURFACE_STYLE_FILL_AREA(#1102);
#1104=SURFACE_SIDE_STYLE('',(#1103));
#1105=SURFACE_STYLE_USAGE(.POSITIVE.,#1104);
#1106=PRESENTATION_STYLE_ASSIGNMENT((#1105));
#1107=STYLED_ITEM('',(#1106),#1100);
#1108=CARTESIAN_POINT('',(5.8E-1,2.8E-1,2.8E-1));
#1109=DIRECTION('',(0.E0,1.E0,0.E0));
#1110=DIRECTION('',(1.E0,0.E0,0.E0));
#1111=AXIS2_PLACEMENT_3D('',#1108,#1109,#1110);
#1112=CYLINDRICAL_SURFACE('',#1111,2.E-1);
#1113=ORIENTED_EDGE('',*,*,#1005,.F.);
#1115=ORIENTED_EDGE('',*,*,#1114,.T.);
#1117=ORIENTED_EDGE('',*,*,#1116,.T.);
#1118=ORIENTED_EDGE('',*,*,#1093,.F.);
#1119=EDGE_LOOP('',(#1113,#1115,#1117,#1118));
#1120=FACE_OUTER_BOUND('',#1119,.F.);
#1122=FILL_AREA_STYLE_COLOUR('',#124);
#1123=FILL_AREA_STYLE('',(#1122));
#1124=SURFACE_STYLE_FILL_AREA(#1123);
#1125=SURFACE_SIDE_STYLE('',(#1124));
#1126=SURFACE_STYLE_USAGE(.POSITIVE.,#1125);
#1127=PRESENTATION_STYLE_ASSIGNMENT((#1126));
#1128=STYLED_ITEM('',(#1127),#1121);
#1129=CARTESIAN_POINT('',(-5.8E-1,2.8E-1,4.8E-1));
#1130=DIRECTION('',(0.E0,0.E0,1.E0));
#1131=DIRECTION('',(1.E0,0.E0,0.E0));
#1132=AXIS2_PLACEMENT_3D('',#1129,#1130,#1131);
#1133=PLANE('',#1132);
#1134=ORIENTED_EDGE('',*,*,#1003,.F.);
#1136=ORIENTED_EDGE('',*,*,#1135,.T.);
#1138=ORIENTED_EDGE('',*,*,#1137,.T.);
#1139=ORIENTED_EDGE('',*,*,#1114,.F.);
#1140=EDGE_LOOP('',(#1134,#1136,#1138,#1139));
#1141=FACE_OUTER_BOUND('',#1140,.F.);
#1143=FILL_AREA_STYLE_COLOUR('',#124);
#1144=FILL_AREA_STYLE('',(#1143));
#1145=SURFACE_STYLE_FILL_AREA(#1144);
#1146=SURFACE_SIDE_STYLE('',(#1145));
#1147=SURFACE_STYLE_USAGE(.POSITIVE.,#1146);
#1148=PRESENTATION_STYLE_ASSIGNMENT((#1147));
#1149=STYLED_ITEM('',(#1148),#1142);
#1150=CARTESIAN_POINT('',(-5.8E-1,2.8E-1,2.8E-1));
#1151=DIRECTION('',(0.E0,1.E0,0.E0));
#1152=DIRECTION('',(1.E0,0.E0,0.E0));
#1153=AXIS2_PLACEMENT_3D('',#1150,#1151,#1152);
#1154=CYLINDRICAL_SURFACE('',#1153,2.E-1);
#1155=ORIENTED_EDGE('',*,*,#1001,.F.);
#1157=ORIENTED_EDGE('',*,*,#1156,.T.);
#1159=ORIENTED_EDGE('',*,*,#1158,.T.);
#1160=ORIENTED_EDGE('',*,*,#1135,.F.);
#1161=EDGE_LOOP('',(#1155,#1157,#1159,#1160));
#1162=FACE_OUTER_BOUND('',#1161,.F.);
#1164=FILL_AREA_STYLE_COLOUR('',#124);
#1165=FILL_AREA_STYLE('',(#1164));
#1166=SURFACE_STYLE_FILL_AREA(#1165);
#1167=SURFACE_SIDE_STYLE('',(#1166));
#1168=SURFACE_STYLE_USAGE(.POSITIVE.,#1167);
#1169=PRESENTATION_STYLE_ASSIGNMENT((#1168));
#1170=STYLED_ITEM('',(#1169),#1163);
#1171=CARTESIAN_POINT('',(-7.8E-1,2.8E-1,-2.8E-1));
#1172=DIRECTION('',(-1.E0,0.E0,0.E0));
#1173=DIRECTION('',(0.E0,0.E0,1.E0));
#1174=AXIS2_PLACEMENT_3D('',#1171,#1172,#1173);
#1175=PLANE('',#1174);
#1176=ORIENTED_EDGE('',*,*,#999,.F.);
#1177=ORIENTED_EDGE('',*,*,#1033,.T.);
#1179=ORIENTED_EDGE('',*,*,#1178,.T.);
#1180=ORIENTED_EDGE('',*,*,#1156,.F.);
#1181=EDGE_LOOP('',(#1176,#1177,#1179,#1180));
#1182=FACE_OUTER_BOUND('',#1181,.F.);
#1184=FILL_AREA_STYLE_COLOUR('',#124);
#1185=FILL_AREA_STYLE('',(#1184));
#1186=SURFACE_STYLE_FILL_AREA(#1185);
#1187=SURFACE_SIDE_STYLE('',(#1186));
#1188=SURFACE_STYLE_USAGE(.POSITIVE.,#1187);
#1189=PRESENTATION_STYLE_ASSIGNMENT((#1188));
#1190=STYLED_ITEM('',(#1189),#1183);
#1191=CARTESIAN_POINT('',(0.E0,4.E-1,0.E0));
#1192=DIRECTION('',(0.E0,1.E0,0.E0));
#1193=DIRECTION('',(1.E0,0.E0,0.E0));
#1194=AXIS2_PLACEMENT_3D('',#1191,#1192,#1193);
#1195=PLANE('',#1194);
#1196=ORIENTED_EDGE('',*,*,#1031,.F.);
#1197=ORIENTED_EDGE('',*,*,#1053,.F.);
#1198=ORIENTED_EDGE('',*,*,#1074,.F.);
#1199=ORIENTED_EDGE('',*,*,#1095,.F.);
#1200=ORIENTED_EDGE('',*,*,#1116,.F.);
#1201=ORIENTED_EDGE('',*,*,#1137,.F.);
#1202=ORIENTED_EDGE('',*,*,#1158,.F.);
#1203=ORIENTED_EDGE('',*,*,#1178,.F.);
#1204=EDGE_LOOP('',(#1196,#1197,#1198,#1199,#1200,#1201,#1202,#1203));
#1205=FACE_OUTER_BOUND('',#1204,.F.);
#1207=ORIENTED_EDGE('',*,*,#1206,.T.);
#1209=ORIENTED_EDGE('',*,*,#1208,.T.);
#1211=ORIENTED_EDGE('',*,*,#1210,.T.);
#1213=ORIENTED_EDGE('',*,*,#1212,.T.);
#1215=ORIENTED_EDGE('',*,*,#1214,.T.);
#1217=ORIENTED_EDGE('',*,*,#1216,.T.);
#1219=ORIENTED_EDGE('',*,*,#1218,.T.);
#1221=ORIENTED_EDGE('',*,*,#1220,.T.);
#1222=EDGE_LOOP('',(#1207,#1209,#1211,#1213,#1215,#1217,#1219,#1221));
#1223=FACE_BOUND('',#1222,.F.);
#1225=FILL_AREA_STYLE_COLOUR('',#124);
#1226=FILL_AREA_STYLE('',(#1225));
#1227=SURFACE_STYLE_FILL_AREA(#1226);
#1228=SURFACE_SIDE_STYLE('',(#1227));
#1229=SURFACE_STYLE_USAGE(.POSITIVE.,#1228);
#1230=PRESENTATION_STYLE_ASSIGNMENT((#1229));
#1231=STYLED_ITEM('',(#1230),#1224);
#1232=CARTESIAN_POINT('',(5.6E-1,4.E-1,-2.65E-1));
#1233=DIRECTION('',(0.E0,1.E0,0.E0));
#1234=DIRECTION('',(1.E0,0.E0,0.E0));
#1235=AXIS2_PLACEMENT_3D('',#1232,#1233,#1234);
#1236=CYLINDRICAL_SURFACE('',#1235,2.E-1);
#1237=ORIENTED_EDGE('',*,*,#1206,.F.);
#1239=ORIENTED_EDGE('',*,*,#1238,.T.);
#1241=ORIENTED_EDGE('',*,*,#1240,.T.);
#1243=ORIENTED_EDGE('',*,*,#1242,.F.);
#1244=EDGE_LOOP('',(#1237,#1239,#1241,#1243));
#1245=FACE_OUTER_BOUND('',#1244,.F.);
#1247=FILL_AREA_STYLE_COLOUR('',#97);
#1248=FILL_AREA_STYLE('',(#1247));
#1249=SURFACE_STYLE_FILL_AREA(#1248);
#1250=SURFACE_SIDE_STYLE('',(#1249));
#1251=SURFACE_STYLE_USAGE(.POSITIVE.,#1250);
#1252=PRESENTATION_STYLE_ASSIGNMENT((#1251));
#1253=STYLED_ITEM('',(#1252),#1246);
#1254=CARTESIAN_POINT('',(7.6E-1,4.E-1,2.65E-1));
#1255=DIRECTION('',(1.E0,0.E0,0.E0));
#1256=DIRECTION('',(0.E0,0.E0,-1.E0));
#1257=AXIS2_PLACEMENT_3D('',#1254,#1255,#1256);
#1258=PLANE('',#1257);
#1259=ORIENTED_EDGE('',*,*,#1220,.F.);
#1261=ORIENTED_EDGE('',*,*,#1260,.T.);
#1263=ORIENTED_EDGE('',*,*,#1262,.T.);
#1264=ORIENTED_EDGE('',*,*,#1238,.F.);
#1265=EDGE_LOOP('',(#1259,#1261,#1263,#1264));
#1266=FACE_OUTER_BOUND('',#1265,.F.);
#1268=FILL_AREA_STYLE_COLOUR('',#97);
#1269=FILL_AREA_STYLE('',(#1268));
#1270=SURFACE_STYLE_FILL_AREA(#1269);
#1271=SURFACE_SIDE_STYLE('',(#1270));
#1272=SURFACE_STYLE_USAGE(.POSITIVE.,#1271);
#1273=PRESENTATION_STYLE_ASSIGNMENT((#1272));
#1274=STYLED_ITEM('',(#1273),#1267);
#1275=CARTESIAN_POINT('',(5.6E-1,4.E-1,2.65E-1));
#1276=DIRECTION('',(0.E0,1.E0,0.E0));
#1277=DIRECTION('',(1.E0,0.E0,0.E0));
#1278=AXIS2_PLACEMENT_3D('',#1275,#1276,#1277);
#1279=CYLINDRICAL_SURFACE('',#1278,2.E-1);
#1280=ORIENTED_EDGE('',*,*,#1218,.F.);
#1282=ORIENTED_EDGE('',*,*,#1281,.T.);
#1284=ORIENTED_EDGE('',*,*,#1283,.T.);
#1285=ORIENTED_EDGE('',*,*,#1260,.F.);
#1286=EDGE_LOOP('',(#1280,#1282,#1284,#1285));
#1287=FACE_OUTER_BOUND('',#1286,.F.);
#1289=FILL_AREA_STYLE_COLOUR('',#97);
#1290=FILL_AREA_STYLE('',(#1289));
#1291=SURFACE_STYLE_FILL_AREA(#1290);
#1292=SURFACE_SIDE_STYLE('',(#1291));
#1293=SURFACE_STYLE_USAGE(.POSITIVE.,#1292);
#1294=PRESENTATION_STYLE_ASSIGNMENT((#1293));
#1295=STYLED_ITEM('',(#1294),#1288);
#1296=CARTESIAN_POINT('',(-5.6E-1,4.E-1,4.65E-1));
#1297=DIRECTION('',(0.E0,0.E0,1.E0));
#1298=DIRECTION('',(1.E0,0.E0,0.E0));
#1299=AXIS2_PLACEMENT_3D('',#1296,#1297,#1298);
#1300=PLANE('',#1299);
#1301=ORIENTED_EDGE('',*,*,#1216,.F.);
#1303=ORIENTED_EDGE('',*,*,#1302,.T.);
#1305=ORIENTED_EDGE('',*,*,#1304,.T.);
#1306=ORIENTED_EDGE('',*,*,#1281,.F.);
#1307=EDGE_LOOP('',(#1301,#1303,#1305,#1306));
#1308=FACE_OUTER_BOUND('',#1307,.F.);
#1310=FILL_AREA_STYLE_COLOUR('',#97);
#1311=FILL_AREA_STYLE('',(#1310));
#1312=SURFACE_STYLE_FILL_AREA(#1311);
#1313=SURFACE_SIDE_STYLE('',(#1312));
#1314=SURFACE_STYLE_USAGE(.POSITIVE.,#1313);
#1315=PRESENTATION_STYLE_ASSIGNMENT((#1314));
#1316=STYLED_ITEM('',(#1315),#1309);
#1317=CARTESIAN_POINT('',(-5.6E-1,4.E-1,2.65E-1));
#1318=DIRECTION('',(0.E0,1.E0,0.E0));
#1319=DIRECTION('',(1.E0,0.E0,0.E0));
#1320=AXIS2_PLACEMENT_3D('',#1317,#1318,#1319);
#1321=CYLINDRICAL_SURFACE('',#1320,2.E-1);
#1322=ORIENTED_EDGE('',*,*,#1214,.F.);
#1324=ORIENTED_EDGE('',*,*,#1323,.T.);
#1326=ORIENTED_EDGE('',*,*,#1325,.T.);
#1327=ORIENTED_EDGE('',*,*,#1302,.F.);
#1328=EDGE_LOOP('',(#1322,#1324,#1326,#1327));
#1329=FACE_OUTER_BOUND('',#1328,.F.);
#1331=FILL_AREA_STYLE_COLOUR('',#97);
#1332=FILL_AREA_STYLE('',(#1331));
#1333=SURFACE_STYLE_FILL_AREA(#1332);
#1334=SURFACE_SIDE_STYLE('',(#1333));
#1335=SURFACE_STYLE_USAGE(.POSITIVE.,#1334);
#1336=PRESENTATION_STYLE_ASSIGNMENT((#1335));
#1337=STYLED_ITEM('',(#1336),#1330);
#1338=CARTESIAN_POINT('',(-7.6E-1,4.E-1,-2.65E-1));
#1339=DIRECTION('',(-1.E0,0.E0,0.E0));
#1340=DIRECTION('',(0.E0,0.E0,1.E0));
#1341=AXIS2_PLACEMENT_3D('',#1338,#1339,#1340);
#1342=PLANE('',#1341);
#1343=ORIENTED_EDGE('',*,*,#1212,.F.);
#1345=ORIENTED_EDGE('',*,*,#1344,.T.);
#1347=ORIENTED_EDGE('',*,*,#1346,.T.);
#1348=ORIENTED_EDGE('',*,*,#1323,.F.);
#1349=EDGE_LOOP('',(#1343,#1345,#1347,#1348));
#1350=FACE_OUTER_BOUND('',#1349,.F.);
#1352=FILL_AREA_STYLE_COLOUR('',#97);
#1353=FILL_AREA_STYLE('',(#1352));
#1354=SURFACE_STYLE_FILL_AREA(#1353);
#1355=SURFACE_SIDE_STYLE('',(#1354));
#1356=SURFACE_STYLE_USAGE(.POSITIVE.,#1355);
#1357=PRESENTATION_STYLE_ASSIGNMENT((#1356));
#1358=STYLED_ITEM('',(#1357),#1351);
#1359=CARTESIAN_POINT('',(-5.6E-1,4.E-1,-2.65E-1));
#1360=DIRECTION('',(0.E0,1.E0,0.E0));
#1361=DIRECTION('',(1.E0,0.E0,0.E0));
#1362=AXIS2_PLACEMENT_3D('',#1359,#1360,#1361);
#1363=CYLINDRICAL_SURFACE('',#1362,2.E-1);
#1364=ORIENTED_EDGE('',*,*,#1210,.F.);
#1366=ORIENTED_EDGE('',*,*,#1365,.T.);
#1368=ORIENTED_EDGE('',*,*,#1367,.T.);
#1369=ORIENTED_EDGE('',*,*,#1344,.F.);
#1370=EDGE_LOOP('',(#1364,#1366,#1368,#1369));
#1371=FACE_OUTER_BOUND('',#1370,.F.);
#1373=FILL_AREA_STYLE_COLOUR('',#97);
#1374=FILL_AREA_STYLE('',(#1373));
#1375=SURFACE_STYLE_FILL_AREA(#1374);
#1376=SURFACE_SIDE_STYLE('',(#1375));
#1377=SURFACE_STYLE_USAGE(.POSITIVE.,#1376);
#1378=PRESENTATION_STYLE_ASSIGNMENT((#1377));
#1379=STYLED_ITEM('',(#1378),#1372);
#1380=CARTESIAN_POINT('',(5.6E-1,4.E-1,-4.65E-1));
#1381=DIRECTION('',(0.E0,0.E0,-1.E0));
#1382=DIRECTION('',(-1.E0,0.E0,0.E0));
#1383=AXIS2_PLACEMENT_3D('',#1380,#1381,#1382);
#1384=PLANE('',#1383);
#1385=ORIENTED_EDGE('',*,*,#1208,.F.);
#1386=ORIENTED_EDGE('',*,*,#1242,.T.);
#1388=ORIENTED_EDGE('',*,*,#1387,.T.);
#1389=ORIENTED_EDGE('',*,*,#1365,.F.);
#1390=EDGE_LOOP('',(#1385,#1386,#1388,#1389));
#1391=FACE_OUTER_BOUND('',#1390,.F.);
#1393=FILL_AREA_STYLE_COLOUR('',#97);
#1394=FILL_AREA_STYLE('',(#1393));
#1395=SURFACE_STYLE_FILL_AREA(#1394);
#1396=SURFACE_SIDE_STYLE('',(#1395));
#1397=SURFACE_STYLE_USAGE(.POSITIVE.,#1396);
#1398=PRESENTATION_STYLE_ASSIGNMENT((#1397));
#1399=STYLED_ITEM('',(#1398),#1392);
#1400=CARTESIAN_POINT('',(0.E0,4.6E-1,0.E0));
#1401=DIRECTION('',(0.E0,1.E0,0.E0));
#1402=DIRECTION('',(1.E0,0.E0,0.E0));
#1403=AXIS2_PLACEMENT_3D('',#1400,#1401,#1402);
#1404=PLANE('',#1403);
#1405=ORIENTED_EDGE('',*,*,#1240,.F.);
#1406=ORIENTED_EDGE('',*,*,#1262,.F.);
#1407=ORIENTED_EDGE('',*,*,#1283,.F.);
#1408=ORIENTED_EDGE('',*,*,#1304,.F.);
#1409=ORIENTED_EDGE('',*,*,#1325,.F.);
#1410=ORIENTED_EDGE('',*,*,#1346,.F.);
#1411=ORIENTED_EDGE('',*,*,#1367,.F.);
#1412=ORIENTED_EDGE('',*,*,#1387,.F.);
#1413=EDGE_LOOP('',(#1405,#1406,#1407,#1408,#1409,#1410,#1411,#1412));
#1414=FACE_OUTER_BOUND('',#1413,.F.);
#1416=FILL_AREA_STYLE_COLOUR('',#97);
#1417=FILL_AREA_STYLE('',(#1416));
#1418=SURFACE_STYLE_FILL_AREA(#1417);
#1419=SURFACE_SIDE_STYLE('',(#1418));
#1420=SURFACE_STYLE_USAGE(.POSITIVE.,#1419);
#1421=PRESENTATION_STYLE_ASSIGNMENT((#1420));
#1422=STYLED_ITEM('',(#1421),#1415);
#1423=CARTESIAN_POINT('',(-6.840212782013E-1,0.E0,-4.3E-1));
#1424=DIRECTION('',(0.E0,0.E0,-1.E0));
#1425=DIRECTION('',(1.E0,0.E0,0.E0));
#1426=AXIS2_PLACEMENT_3D('',#1423,#1424,#1425);
#1427=PLANE('',#1426);
#1428=ORIENTED_EDGE('',*,*,#776,.F.);
#1430=ORIENTED_EDGE('',*,*,#1429,.T.);
#1432=ORIENTED_EDGE('',*,*,#1431,.T.);
#1434=ORIENTED_EDGE('',*,*,#1433,.F.);
#1435=EDGE_LOOP('',(#1428,#1430,#1432,#1434));
#1436=FACE_OUTER_BOUND('',#1435,.F.);
#1438=FILL_AREA_STYLE_COLOUR('',#124);
#1439=FILL_AREA_STYLE('',(#1438));
#1440=SURFACE_STYLE_FILL_AREA(#1439);
#1441=SURFACE_SIDE_STYLE('',(#1440));
#1442=SURFACE_STYLE_USAGE(.POSITIVE.,#1441);
#1443=PRESENTATION_STYLE_ASSIGNMENT((#1442));
#1444=STYLED_ITEM('',(#1443),#1437);
#1445=CARTESIAN_POINT('',(-8.25E-1,0.E0,-5.25E-1));
#1446=DIRECTION('',(0.E0,-1.E0,0.E0));
#1447=DIRECTION('',(-1.E0,0.E0,0.E0));
#1448=AXIS2_PLACEMENT_3D('',#1445,#1446,#1447);
#1449=CYLINDRICAL_SURFACE('',#1448,1.7E-1);
#1450=ORIENTED_EDGE('',*,*,#786,.T.);
#1452=ORIENTED_EDGE('',*,*,#1451,.T.);
#1454=ORIENTED_EDGE('',*,*,#1453,.T.);
#1455=ORIENTED_EDGE('',*,*,#1429,.F.);
#1456=EDGE_LOOP('',(#1450,#1452,#1454,#1455));
#1457=FACE_OUTER_BOUND('',#1456,.F.);
#1459=FILL_AREA_STYLE_COLOUR('',#124);
#1460=FILL_AREA_STYLE('',(#1459));
#1461=SURFACE_STYLE_FILL_AREA(#1460);
#1462=SURFACE_SIDE_STYLE('',(#1461));
#1463=SURFACE_STYLE_USAGE(.POSITIVE.,#1462);
#1464=PRESENTATION_STYLE_ASSIGNMENT((#1463));
#1465=STYLED_ITEM('',(#1464),#1458);
#1466=CARTESIAN_POINT('',(-7.55E-1,0.E0,3.700806661517E-1));
#1467=DIRECTION('',(-1.E0,0.E0,0.E0));
#1468=DIRECTION('',(0.E0,0.E0,-1.E0));
#1469=AXIS2_PLACEMENT_3D('',#1466,#1467,#1468);
#1470=PLANE('',#1469);
#1471=ORIENTED_EDGE('',*,*,#784,.F.);
#1473=ORIENTED_EDGE('',*,*,#1472,.T.);
#1475=ORIENTED_EDGE('',*,*,#1474,.T.);
#1476=ORIENTED_EDGE('',*,*,#1451,.F.);
#1477=EDGE_LOOP('',(#1471,#1473,#1475,#1476));
#1478=FACE_OUTER_BOUND('',#1477,.F.);
#1480=FILL_AREA_STYLE_COLOUR('',#124);
#1481=FILL_AREA_STYLE('',(#1480));
#1482=SURFACE_STYLE_FILL_AREA(#1481);
#1483=SURFACE_SIDE_STYLE('',(#1482));
#1484=SURFACE_STYLE_USAGE(.POSITIVE.,#1483);
#1485=PRESENTATION_STYLE_ASSIGNMENT((#1484));
#1486=STYLED_ITEM('',(#1485),#1479);
#1487=CARTESIAN_POINT('',(-8.25E-1,0.E0,5.25E-1));
#1488=DIRECTION('',(0.E0,-1.E0,0.E0));
#1489=DIRECTION('',(-1.E0,0.E0,0.E0));
#1490=AXIS2_PLACEMENT_3D('',#1487,#1488,#1489);
#1491=CYLINDRICAL_SURFACE('',#1490,1.7E-1);
#1492=ORIENTED_EDGE('',*,*,#782,.T.);
#1494=ORIENTED_EDGE('',*,*,#1493,.T.);
#1496=ORIENTED_EDGE('',*,*,#1495,.T.);
#1497=ORIENTED_EDGE('',*,*,#1472,.F.);
#1498=EDGE_LOOP('',(#1492,#1494,#1496,#1497));
#1499=FACE_OUTER_BOUND('',#1498,.F.);
#1501=FILL_AREA_STYLE_COLOUR('',#124);
#1502=FILL_AREA_STYLE('',(#1501));
#1503=SURFACE_STYLE_FILL_AREA(#1502);
#1504=SURFACE_SIDE_STYLE('',(#1503));
#1505=SURFACE_STYLE_USAGE(.POSITIVE.,#1504);
#1506=PRESENTATION_STYLE_ASSIGNMENT((#1505));
#1507=STYLED_ITEM('',(#1506),#1500);
#1508=CARTESIAN_POINT('',(-3.6E-1,0.E0,4.3E-1));
#1509=DIRECTION('',(0.E0,0.E0,1.E0));
#1510=DIRECTION('',(-1.E0,0.E0,0.E0));
#1511=AXIS2_PLACEMENT_3D('',#1508,#1509,#1510);
#1512=PLANE('',#1511);
#1513=ORIENTED_EDGE('',*,*,#780,.F.);
#1515=ORIENTED_EDGE('',*,*,#1514,.T.);
#1517=ORIENTED_EDGE('',*,*,#1516,.T.);
#1518=ORIENTED_EDGE('',*,*,#1493,.F.);
#1519=EDGE_LOOP('',(#1513,#1515,#1517,#1518));
#1520=FACE_OUTER_BOUND('',#1519,.F.);
#1522=FILL_AREA_STYLE_COLOUR('',#124);
#1523=FILL_AREA_STYLE('',(#1522));
#1524=SURFACE_STYLE_FILL_AREA(#1523);
#1525=SURFACE_SIDE_STYLE('',(#1524));
#1526=SURFACE_STYLE_USAGE(.POSITIVE.,#1525);
#1527=PRESENTATION_STYLE_ASSIGNMENT((#1526));
#1528=STYLED_ITEM('',(#1527),#1521);
#1529=CARTESIAN_POINT('',(-3.6E-1,0.E0,-4.3E-1));
#1530=DIRECTION('',(1.E0,0.E0,0.E0));
#1531=DIRECTION('',(0.E0,0.E0,1.E0));
#1532=AXIS2_PLACEMENT_3D('',#1529,#1530,#1531);
#1533=PLANE('',#1532);
#1534=ORIENTED_EDGE('',*,*,#778,.F.);
#1535=ORIENTED_EDGE('',*,*,#1433,.T.);
#1537=ORIENTED_EDGE('',*,*,#1536,.T.);
#1538=ORIENTED_EDGE('',*,*,#1514,.F.);
#1539=EDGE_LOOP('',(#1534,#1535,#1537,#1538));
#1540=FACE_OUTER_BOUND('',#1539,.F.);
#1542=FILL_AREA_STYLE_COLOUR('',#124);
#1543=FILL_AREA_STYLE('',(#1542));
#1544=SURFACE_STYLE_FILL_AREA(#1543);
#1545=SURFACE_SIDE_STYLE('',(#1544));
#1546=SURFACE_STYLE_USAGE(.POSITIVE.,#1545);
#1547=PRESENTATION_STYLE_ASSIGNMENT((#1546));
#1548=STYLED_ITEM('',(#1547),#1541);
#1549=CARTESIAN_POINT('',(0.E0,-1.E-2,0.E0));
#1550=DIRECTION('',(0.E0,-1.E0,0.E0));
#1551=DIRECTION('',(-1.E0,0.E0,0.E0));
#1552=AXIS2_PLACEMENT_3D('',#1549,#1550,#1551);
#1553=PLANE('',#1552);
#1554=ORIENTED_EDGE('',*,*,#1431,.F.);
#1555=ORIENTED_EDGE('',*,*,#1453,.F.);
#1556=ORIENTED_EDGE('',*,*,#1474,.F.);
#1557=ORIENTED_EDGE('',*,*,#1495,.F.);
#1558=ORIENTED_EDGE('',*,*,#1516,.F.);
#1559=ORIENTED_EDGE('',*,*,#1536,.F.);
#1560=EDGE_LOOP('',(#1554,#1555,#1556,#1557,#1558,#1559));
#1561=FACE_OUTER_BOUND('',#1560,.F.);
#1563=FILL_AREA_STYLE_COLOUR('',#124);
#1564=FILL_AREA_STYLE('',(#1563));
#1565=SURFACE_STYLE_FILL_AREA(#1564);
#1566=SURFACE_SIDE_STYLE('',(#1565));
#1567=SURFACE_STYLE_USAGE(.POSITIVE.,#1566);
#1568=PRESENTATION_STYLE_ASSIGNMENT((#1567));
#1569=STYLED_ITEM('',(#1568),#1562);
#1570=CARTESIAN_POINT('',(0.E0,-1.E-2,0.E0));
#1571=DIRECTION('',(0.E0,-1.E0,0.E0));
#1572=DIRECTION('',(-1.E0,0.E0,0.E0));
#1573=AXIS2_PLACEMENT_3D('',#1570,#1571,#1572);
#1574=PLANE('',#1573);
#1576=ORIENTED_EDGE('',*,*,#1575,.F.);
#1578=ORIENTED_EDGE('',*,*,#1577,.F.);
#1580=ORIENTED_EDGE('',*,*,#1579,.F.);
#1582=ORIENTED_EDGE('',*,*,#1581,.F.);
#1584=ORIENTED_EDGE('',*,*,#1583,.F.);
#1586=ORIENTED_EDGE('',*,*,#1585,.F.);
#1588=ORIENTED_EDGE('',*,*,#1587,.F.);
#1589=EDGE_LOOP('',(#1576,#1578,#1580,#1582,#1584,#1586,#1588));
#1590=FACE_OUTER_BOUND('',#1589,.F.);
#1592=FILL_AREA_STYLE_COLOUR('',#124);
#1593=FILL_AREA_STYLE('',(#1592));
#1594=SURFACE_STYLE_FILL_AREA(#1593);
#1595=SURFACE_SIDE_STYLE('',(#1594));
#1596=SURFACE_STYLE_USAGE(.POSITIVE.,#1595);
#1597=PRESENTATION_STYLE_ASSIGNMENT((#1596));
#1598=STYLED_ITEM('',(#1597),#1591);
#1599=CARTESIAN_POINT('',(6.840212782013E-1,0.E0,4.3E-1));
#1600=DIRECTION('',(0.E0,0.E0,1.E0));
#1601=DIRECTION('',(-1.E0,0.E0,0.E0));
#1602=AXIS2_PLACEMENT_3D('',#1599,#1600,#1601);
#1603=PLANE('',#1602);
#1604=ORIENTED_EDGE('',*,*,#790,.F.);
#1606=ORIENTED_EDGE('',*,*,#1605,.T.);
#1607=ORIENTED_EDGE('',*,*,#1575,.T.);
#1609=ORIENTED_EDGE('',*,*,#1608,.F.);
#1610=EDGE_LOOP('',(#1604,#1606,#1607,#1609));
#1611=FACE_OUTER_BOUND('',#1610,.F.);
#1613=FILL_AREA_STYLE_COLOUR('',#124);
#1614=FILL_AREA_STYLE('',(#1613));
#1615=SURFACE_STYLE_FILL_AREA(#1614);
#1616=SURFACE_SIDE_STYLE('',(#1615));
#1617=SURFACE_STYLE_USAGE(.POSITIVE.,#1616);
#1618=PRESENTATION_STYLE_ASSIGNMENT((#1617));
#1619=STYLED_ITEM('',(#1618),#1612);
#1620=CARTESIAN_POINT('',(8.25E-1,0.E0,5.25E-1));
#1621=DIRECTION('',(0.E0,-1.E0,0.E0));
#1622=DIRECTION('',(-1.E0,0.E0,0.E0));
#1623=AXIS2_PLACEMENT_3D('',#1620,#1621,#1622);
#1624=CYLINDRICAL_SURFACE('',#1623,1.7E-1);
#1625=ORIENTED_EDGE('',*,*,#802,.T.);
#1627=ORIENTED_EDGE('',*,*,#1626,.T.);
#1628=ORIENTED_EDGE('',*,*,#1577,.T.);
#1629=ORIENTED_EDGE('',*,*,#1605,.F.);
#1630=EDGE_LOOP('',(#1625,#1627,#1628,#1629));
#1631=FACE_OUTER_BOUND('',#1630,.F.);
#1633=FILL_AREA_STYLE_COLOUR('',#124);
#1634=FILL_AREA_STYLE('',(#1633));
#1635=SURFACE_STYLE_FILL_AREA(#1634);
#1636=SURFACE_SIDE_STYLE('',(#1635));
#1637=SURFACE_STYLE_USAGE(.POSITIVE.,#1636);
#1638=PRESENTATION_STYLE_ASSIGNMENT((#1637));
#1639=STYLED_ITEM('',(#1638),#1632);
#1640=CARTESIAN_POINT('',(7.55E-1,0.E0,-3.700806661517E-1));
#1641=DIRECTION('',(1.E0,0.E0,0.E0));
#1642=DIRECTION('',(0.E0,0.E0,1.E0));
#1643=AXIS2_PLACEMENT_3D('',#1640,#1641,#1642);
#1644=PLANE('',#1643);
#1645=ORIENTED_EDGE('',*,*,#800,.F.);
#1647=ORIENTED_EDGE('',*,*,#1646,.T.);
#1648=ORIENTED_EDGE('',*,*,#1579,.T.);
#1649=ORIENTED_EDGE('',*,*,#1626,.F.);
#1650=EDGE_LOOP('',(#1645,#1647,#1648,#1649));
#1651=FACE_OUTER_BOUND('',#1650,.F.);
#1653=FILL_AREA_STYLE_COLOUR('',#124);
#1654=FILL_AREA_STYLE('',(#1653));
#1655=SURFACE_STYLE_FILL_AREA(#1654);
#1656=SURFACE_SIDE_STYLE('',(#1655));
#1657=SURFACE_STYLE_USAGE(.POSITIVE.,#1656);
#1658=PRESENTATION_STYLE_ASSIGNMENT((#1657));
#1659=STYLED_ITEM('',(#1658),#1652);
#1660=CARTESIAN_POINT('',(8.25E-1,0.E0,-5.25E-1));
#1661=DIRECTION('',(0.E0,-1.E0,0.E0));
#1662=DIRECTION('',(-1.E0,0.E0,0.E0));
#1663=AXIS2_PLACEMENT_3D('',#1660,#1661,#1662);
#1664=CYLINDRICAL_SURFACE('',#1663,1.7E-1);
#1665=ORIENTED_EDGE('',*,*,#798,.T.);
#1667=ORIENTED_EDGE('',*,*,#1666,.T.);
#1668=ORIENTED_EDGE('',*,*,#1581,.T.);
#1669=ORIENTED_EDGE('',*,*,#1646,.F.);
#1670=EDGE_LOOP('',(#1665,#1667,#1668,#1669));
#1671=FACE_OUTER_BOUND('',#1670,.F.);
#1673=FILL_AREA_STYLE_COLOUR('',#124);
#1674=FILL_AREA_STYLE('',(#1673));
#1675=SURFACE_STYLE_FILL_AREA(#1674);
#1676=SURFACE_SIDE_STYLE('',(#1675));
#1677=SURFACE_STYLE_USAGE(.POSITIVE.,#1676);
#1678=PRESENTATION_STYLE_ASSIGNMENT((#1677));
#1679=STYLED_ITEM('',(#1678),#1672);
#1680=CARTESIAN_POINT('',(3.6E-1,0.E0,-4.3E-1));
#1681=DIRECTION('',(0.E0,0.E0,-1.E0));
#1682=DIRECTION('',(1.E0,0.E0,0.E0));
#1683=AXIS2_PLACEMENT_3D('',#1680,#1681,#1682);
#1684=PLANE('',#1683);
#1685=ORIENTED_EDGE('',*,*,#796,.F.);
#1687=ORIENTED_EDGE('',*,*,#1686,.T.);
#1688=ORIENTED_EDGE('',*,*,#1583,.T.);
#1689=ORIENTED_EDGE('',*,*,#1666,.F.);
#1690=EDGE_LOOP('',(#1685,#1687,#1688,#1689));
#1691=FACE_OUTER_BOUND('',#1690,.F.);
#1693=FILL_AREA_STYLE_COLOUR('',#124);
#1694=FILL_AREA_STYLE('',(#1693));
#1695=SURFACE_STYLE_FILL_AREA(#1694);
#1696=SURFACE_SIDE_STYLE('',(#1695));
#1697=SURFACE_STYLE_USAGE(.POSITIVE.,#1696);
#1698=PRESENTATION_STYLE_ASSIGNMENT((#1697));
#1699=STYLED_ITEM('',(#1698),#1692);
#1700=CARTESIAN_POINT('',(3.6E-1,0.E0,2.3E-1));
#1701=DIRECTION('',(-1.E0,0.E0,0.E0));
#1702=DIRECTION('',(0.E0,0.E0,-1.E0));
#1703=AXIS2_PLACEMENT_3D('',#1700,#1701,#1702);
#1704=PLANE('',#1703);
#1705=ORIENTED_EDGE('',*,*,#794,.F.);
#1707=ORIENTED_EDGE('',*,*,#1706,.T.);
#1708=ORIENTED_EDGE('',*,*,#1585,.T.);
#1709=ORIENTED_EDGE('',*,*,#1686,.F.);
#1710=EDGE_LOOP('',(#1705,#1707,#1708,#1709));
#1711=FACE_OUTER_BOUND('',#1710,.F.);
#1713=FILL_AREA_STYLE_COLOUR('',#124);
#1714=FILL_AREA_STYLE('',(#1713));
#1715=SURFACE_STYLE_FILL_AREA(#1714);
#1716=SURFACE_SIDE_STYLE('',(#1715));
#1717=SURFACE_STYLE_USAGE(.POSITIVE.,#1716);
#1718=PRESENTATION_STYLE_ASSIGNMENT((#1717));
#1719=STYLED_ITEM('',(#1718),#1712);
#1720=CARTESIAN_POINT('',(5.6E-1,0.E0,4.3E-1));
#1721=DIRECTION('',(-7.071067811866E-1,0.E0,7.071067811865E-1));
#1722=DIRECTION('',(-7.071067811865E-1,0.E0,-7.071067811866E-1));
#1723=AXIS2_PLACEMENT_3D('',#1720,#1721,#1722);
#1724=PLANE('',#1723);
#1725=ORIENTED_EDGE('',*,*,#792,.F.);
#1726=ORIENTED_EDGE('',*,*,#1608,.T.);
#1727=ORIENTED_EDGE('',*,*,#1587,.T.);
#1728=ORIENTED_EDGE('',*,*,#1706,.F.);
#1729=EDGE_LOOP('',(#1725,#1726,#1727,#1728));
#1730=FACE_OUTER_BOUND('',#1729,.F.);
#1732=FILL_AREA_STYLE_COLOUR('',#124);
#1733=FILL_AREA_STYLE('',(#1732));
#1734=SURFACE_STYLE_FILL_AREA(#1733);
#1735=SURFACE_SIDE_STYLE('',(#1734));
#1736=SURFACE_STYLE_USAGE(.POSITIVE.,#1735);
#1737=PRESENTATION_STYLE_ASSIGNMENT((#1736));
#1738=STYLED_ITEM('',(#1737),#1731);
#1741=PRESENTATION_LAYER_ASSIGNMENT('9_ALL_SOLID_GEOM','',(#1740));
#1744=PLANE_ANGLE_MEASURE_WITH_UNIT(PLANE_ANGLE_MEASURE(1.745329251994E-2),
#1743);
#1745=(CONVERSION_BASED_UNIT('DEGREE',#1744)NAMED_UNIT(*)PLANE_ANGLE_UNIT());
#1747=UNCERTAINTY_MEASURE_WITH_UNIT(LENGTH_MEASURE(1.E-3),#1742,
'distance_accuracy_value',
'Maximum model space distance between geometric entities at asserted connectivities');
#1750=MECHANICAL_DESIGN_GEOMETRIC_PRESENTATION_REPRESENTATION('',(#813,#835,
#856,#877,#898,#919,#940,#961,#981,#1022,#1044,#1065,#1086,#1107,#1128,#1149,
#1170,#1190,#1231,#1253,#1274,#1295,#1316,#1337,#1358,#1379,#1399,#1422,#1444,
#1465,#1486,#1507,#1528,#1548,#1569,#1598,#1619,#1639,#1659,#1679,#1699,#1719,
#1738),#1748);
#1751=APPLICATION_CONTEXT('automotive_design');
#1752=APPLICATION_PROTOCOL_DEFINITION('international standard',
'automotive_design',2001,#1751);
#1753=PRODUCT_DEFINITION_CONTEXT('part definition',#1751,'design');
#1754=PRODUCT_CONTEXT('',#1751,'mechanical');
#1755=PRODUCT('FC1610AN_PKG','FC1610AN_PKG','NOT SPECIFIED',(#1754));
#1756=PRODUCT_DEFINITION_FORMATION('1','LAST_VERSION',#1755);
#1764=DERIVED_UNIT_ELEMENT(#1763,2.E0);
#1765=DERIVED_UNIT((#1764));
#1766=MEASURE_REPRESENTATION_ITEM('surface area measure',AREA_MEASURE(
5.723631585925E0),#1765);
#1771=DERIVED_UNIT_ELEMENT(#1770,3.E0);
#1772=DERIVED_UNIT((#1771));
#1773=MEASURE_REPRESENTATION_ITEM('volume measure',VOLUME_MEASURE(
7.383921986888E-1),#1772);
#1777=CARTESIAN_POINT('centre point',(-1.155664069815E-4,2.187874697325E-1,
-9.841201843099E-5));
#1782=DERIVED_UNIT_ELEMENT(#1781,2.E0);
#1783=DERIVED_UNIT((#1782));
#1784=MEASURE_REPRESENTATION_ITEM('surface area measure',AREA_MEASURE(
5.723631585925E0),#1783);
#1789=DERIVED_UNIT_ELEMENT(#1788,3.E0);
#1790=DERIVED_UNIT((#1789));
#1791=MEASURE_REPRESENTATION_ITEM('volume measure',VOLUME_MEASURE(
7.383921986888E-1),#1790);
#1795=CARTESIAN_POINT('centre point',(-1.155664069815E-4,2.187874697325E-1,
-9.841201843099E-5));
#1800=PRODUCT_RELATED_PRODUCT_CATEGORY('part','',(#1755));
#1=DRAUGHTING_PRE_DEFINED_COLOUR('black');
#2=COLOUR_RGB('',0.E0,0.E0,2.5E-1);
#3=COLOUR_RGB('',0.E0,0.E0,5.E-1);
#4=COLOUR_RGB('',0.E0,0.E0,7.5E-1);
#5=DRAUGHTING_PRE_DEFINED_COLOUR('blue');
#6=COLOUR_RGB('',0.E0,2.5E-1,0.E0);
#7=COLOUR_RGB('',0.E0,2.5E-1,2.5E-1);
#8=COLOUR_RGB('',0.E0,2.5E-1,5.E-1);
#9=COLOUR_RGB('',0.E0,2.5E-1,7.5E-1);
#10=COLOUR_RGB('',0.E0,2.5E-1,1.E0);
#11=COLOUR_RGB('',0.E0,5.E-1,0.E0);
#12=COLOUR_RGB('',0.E0,5.E-1,2.5E-1);
#13=COLOUR_RGB('',0.E0,5.E-1,5.E-1);
#14=COLOUR_RGB('',0.E0,5.E-1,7.5E-1);
#15=COLOUR_RGB('',0.E0,5.E-1,1.E0);
#16=COLOUR_RGB('',0.E0,7.5E-1,0.E0);
#17=COLOUR_RGB('',0.E0,7.5E-1,2.5E-1);
#18=COLOUR_RGB('',0.E0,7.5E-1,5.E-1);
#19=COLOUR_RGB('',0.E0,7.5E-1,7.5E-1);
#20=COLOUR_RGB('',0.E0,7.5E-1,1.E0);
#21=DRAUGHTING_PRE_DEFINED_COLOUR('green');
#22=COLOUR_RGB('',0.E0,1.E0,2.5E-1);
#23=COLOUR_RGB('',0.E0,1.E0,5.E-1);
#24=COLOUR_RGB('',0.E0,1.E0,7.5E-1);
#25=DRAUGHTING_PRE_DEFINED_COLOUR('cyan');
#26=COLOUR_RGB('',2.35294E-1,2.35294E-1,2.35294E-1);
#27=COLOUR_RGB('',2.5E-1,0.E0,0.E0);
#28=COLOUR_RGB('',2.5E-1,0.E0,2.5E-1);
#29=COLOUR_RGB('',2.5E-1,0.E0,5.E-1);
#30=COLOUR_RGB('',2.5E-1,0.E0,7.5E-1);
#31=COLOUR_RGB('',2.5E-1,0.E0,1.E0);
#32=COLOUR_RGB('',2.5E-1,2.5E-1,0.E0);
#33=COLOUR_RGB('',2.5E-1,2.5E-1,2.5E-1);
#34=COLOUR_RGB('',2.5E-1,2.5E-1,5.E-1);
#35=COLOUR_RGB('',2.5E-1,2.5E-1,7.5E-1);
#36=COLOUR_RGB('',2.5E-1,2.5E-1,1.E0);
#37=COLOUR_RGB('',2.5E-1,5.E-1,0.E0);
#38=COLOUR_RGB('',2.5E-1,5.E-1,2.5E-1);
#39=COLOUR_RGB('',2.5E-1,5.E-1,5.E-1);
#40=COLOUR_RGB('',2.5E-1,5.E-1,7.5E-1);
#41=COLOUR_RGB('',2.5E-1,5.E-1,1.E0);
#42=COLOUR_RGB('',2.5E-1,7.5E-1,0.E0);
#43=COLOUR_RGB('',2.5E-1,7.5E-1,2.5E-1);
#44=COLOUR_RGB('',2.5E-1,7.5E-1,5.E-1);
#45=COLOUR_RGB('',2.5E-1,7.5E-1,7.5E-1);
#46=COLOUR_RGB('',2.5E-1,7.5E-1,1.E0);
#47=COLOUR_RGB('',2.5E-1,1.E0,0.E0);
#48=COLOUR_RGB('',2.5E-1,1.E0,2.5E-1);
#49=COLOUR_RGB('',2.5E-1,1.E0,5.E-1);
#50=COLOUR_RGB('',2.5E-1,1.E0,7.5E-1);
#51=COLOUR_RGB('',2.5E-1,1.E0,1.E0);
#52=COLOUR_RGB('',3.33E-1,3.33E-1,3.33E-1);
#53=COLOUR_RGB('',5.E-1,0.E0,0.E0);
#54=COLOUR_RGB('',5.E-1,0.E0,2.5E-1);
#55=COLOUR_RGB('',5.E-1,0.E0,5.E-1);
#56=COLOUR_RGB('',5.E-1,0.E0,7.5E-1);
#57=COLOUR_RGB('',5.E-1,0.E0,1.E0);
#58=COLOUR_RGB('',5.E-1,2.5E-1,0.E0);
#59=COLOUR_RGB('',5.E-1,2.5E-1,2.5E-1);
#60=COLOUR_RGB('',5.E-1,2.5E-1,5.E-1);
#61=COLOUR_RGB('',5.E-1,2.5E-1,7.5E-1);
#62=COLOUR_RGB('',5.E-1,2.5E-1,1.E0);
#63=COLOUR_RGB('',5.E-1,5.E-1,0.E0);
#64=COLOUR_RGB('',5.E-1,5.E-1,2.5E-1);
#65=COLOUR_RGB('',5.E-1,5.E-1,5.E-1);
#66=COLOUR_RGB('',5.E-1,5.E-1,7.5E-1);
#67=COLOUR_RGB('',5.E-1,5.E-1,1.E0);
#68=COLOUR_RGB('',5.E-1,7.5E-1,0.E0);
#69=COLOUR_RGB('',5.E-1,7.5E-1,2.5E-1);
#70=COLOUR_RGB('',5.E-1,7.5E-1,5.E-1);
#71=COLOUR_RGB('',5.E-1,7.5E-1,7.5E-1);
#72=COLOUR_RGB('',5.E-1,7.5E-1,1.E0);
#73=COLOUR_RGB('',5.E-1,1.E0,0.E0);
#74=COLOUR_RGB('',5.E-1,1.E0,2.5E-1);
#75=COLOUR_RGB('',5.E-1,1.E0,5.E-1);
#76=COLOUR_RGB('',5.E-1,1.E0,7.5E-1);
#77=COLOUR_RGB('',5.E-1,1.E0,1.E0);
#78=COLOUR_RGB('',6.952E-1,7.426E-1,7.9E-1);
#79=COLOUR_RGB('',7.5E-1,0.E0,0.E0);
#80=COLOUR_RGB('',7.5E-1,0.E0,2.5E-1);
#81=COLOUR_RGB('',7.5E-1,0.E0,5.E-1);
#82=COLOUR_RGB('',7.5E-1,0.E0,7.5E-1);
#83=COLOUR_RGB('',7.5E-1,0.E0,1.E0);
#84=COLOUR_RGB('',7.5E-1,2.5E-1,0.E0);
#85=COLOUR_RGB('',7.5E-1,2.5E-1,2.5E-1);
#86=COLOUR_RGB('',7.5E-1,2.5E-1,5.E-1);
#87=COLOUR_RGB('',7.5E-1,2.5E-1,7.5E-1);
#88=COLOUR_RGB('',7.5E-1,2.5E-1,1.E0);
#89=COLOUR_RGB('',7.5E-1,5.E-1,0.E0);
#90=COLOUR_RGB('',7.5E-1,5.E-1,2.5E-1);
#91=COLOUR_RGB('',7.5E-1,5.E-1,5.E-1);
#92=COLOUR_RGB('',7.5E-1,5.E-1,7.5E-1);
#93=COLOUR_RGB('',7.5E-1,5.E-1,1.E0);
#94=COLOUR_RGB('',7.5E-1,7.5E-1,0.E0);
#95=COLOUR_RGB('',7.5E-1,7.5E-1,2.5E-1);
#96=COLOUR_RGB('',7.5E-1,7.5E-1,5.E-1);
#97=COLOUR_RGB('',7.5E-1,7.5E-1,7.5E-1);
#98=COLOUR_RGB('',7.5E-1,7.5E-1,1.E0);
#99=COLOUR_RGB('',7.5E-1,1.E0,0.E0);
#100=COLOUR_RGB('',7.5E-1,1.E0,2.5E-1);
#101=COLOUR_RGB('',7.5E-1,1.E0,5.E-1);
#102=COLOUR_RGB('',7.5E-1,1.E0,7.5E-1);
#103=COLOUR_RGB('',7.5E-1,1.E0,1.E0);
#104=COLOUR_RGB('',8.784E-1,9.49E-1,1.E0);
#105=DRAUGHTING_PRE_DEFINED_COLOUR('red');
#106=COLOUR_RGB('',1.E0,0.E0,2.5E-1);
#107=COLOUR_RGB('',1.E0,0.E0,5.E-1);
#108=COLOUR_RGB('',1.E0,0.E0,7.5E-1);
#109=DRAUGHTING_PRE_DEFINED_COLOUR('magenta');
#110=COLOUR_RGB('',1.E0,2.5E-1,0.E0);
#111=COLOUR_RGB('',1.E0,2.5E-1,2.5E-1);
#112=COLOUR_RGB('',1.E0,2.5E-1,5.E-1);
#113=COLOUR_RGB('',1.E0,2.5E-1,7.5E-1);
#114=COLOUR_RGB('',1.E0,5.E-1,0.E0);
#115=COLOUR_RGB('',1.E0,5.E-1,2.5E-1);
#116=COLOUR_RGB('',1.E0,5.E-1,5.E-1);
#117=COLOUR_RGB('',1.E0,5.E-1,7.5E-1);
#118=COLOUR_RGB('',1.E0,5.E-1,1.E0);
#119=COLOUR_RGB('',1.E0,7.5E-1,0.E0);
#120=COLOUR_RGB('',1.E0,7.5E-1,2.5E-1);
#121=COLOUR_RGB('',1.E0,7.5E-1,5.E-1);
#122=COLOUR_RGB('',1.E0,7.5E-1,7.5E-1);
#123=COLOUR_RGB('',1.E0,7.5E-1,1.E0);
#124=DRAUGHTING_PRE_DEFINED_COLOUR('yellow');
#125=COLOUR_RGB('',1.E0,1.E0,2.5E-1);
#126=COLOUR_RGB('',1.E0,1.E0,5.E-1);
#127=COLOUR_RGB('',1.E0,1.E0,7.5E-1);
#128=DRAUGHTING_PRE_DEFINED_COLOUR('white');
#133=CIRCLE('',#132,1.E-1);
#142=CIRCLE('',#141,1.E-1);
#151=CIRCLE('',#150,1.E-1);
#160=CIRCLE('',#159,1.E-1);
#181=CIRCLE('',#180,1.7E-1);
#190=CIRCLE('',#189,1.7E-1);
#211=CIRCLE('',#210,1.7E-1);
#220=CIRCLE('',#219,1.7E-1);
#257=CIRCLE('',#256,1.E-1);
#266=CIRCLE('',#265,1.E-1);
#275=CIRCLE('',#274,1.E-1);
#284=CIRCLE('',#283,1.E-1);
#293=CIRCLE('',#292,2.E-1);
#302=CIRCLE('',#301,2.E-1);
#311=CIRCLE('',#310,2.E-1);
#320=CIRCLE('',#319,2.E-1);
#361=CIRCLE('',#360,2.E-1);
#370=CIRCLE('',#369,2.E-1);
#379=CIRCLE('',#378,2.E-1);
#388=CIRCLE('',#387,2.E-1);
#397=CIRCLE('',#396,2.E-1);
#406=CIRCLE('',#405,2.E-1);
#415=CIRCLE('',#414,2.E-1);
#424=CIRCLE('',#423,2.E-1);
#465=CIRCLE('',#464,2.E-1);
#474=CIRCLE('',#473,2.E-1);
#483=CIRCLE('',#482,2.E-1);
#492=CIRCLE('',#491,2.E-1);
#529=CIRCLE('',#528,1.7E-1);
#538=CIRCLE('',#537,1.7E-1);
#555=CIRCLE('',#554,1.7E-1);
#564=CIRCLE('',#563,1.7E-1);
#758=EDGE_CURVE('',#607,#608,#133,.T.);
#760=EDGE_CURVE('',#608,#610,#137,.T.);
#762=EDGE_CURVE('',#610,#612,#142,.T.);
#764=EDGE_CURVE('',#612,#614,#146,.T.);
#766=EDGE_CURVE('',#614,#616,#151,.T.);
#768=EDGE_CURVE('',#616,#618,#155,.T.);
#770=EDGE_CURVE('',#618,#620,#160,.T.);
#772=EDGE_CURVE('',#620,#607,#164,.T.);
#776=EDGE_CURVE('',#729,#730,#168,.T.);
#778=EDGE_CURVE('',#730,#732,#172,.T.);
#780=EDGE_CURVE('',#732,#734,#176,.T.);
#782=EDGE_CURVE('',#736,#734,#181,.T.);
#784=EDGE_CURVE('',#736,#738,#185,.T.);
#786=EDGE_CURVE('',#729,#738,#190,.T.);
#790=EDGE_CURVE('',#741,#742,#194,.T.);
#792=EDGE_CURVE('',#742,#744,#198,.T.);
#794=EDGE_CURVE('',#744,#746,#202,.T.);
#796=EDGE_CURVE('',#746,#748,#206,.T.);
#798=EDGE_CURVE('',#750,#748,#211,.T.);
#800=EDGE_CURVE('',#750,#752,#215,.T.);
#802=EDGE_CURVE('',#741,#752,#220,.T.);
#806=ADVANCED_FACE('',(#775,#789,#805),#757,.F.);
#820=EDGE_CURVE('',#607,#623,#224,.T.);
#822=EDGE_CURVE('',#623,#624,#257,.T.);
#824=EDGE_CURVE('',#608,#624,#252,.T.);
#828=ADVANCED_FACE('',(#827),#818,.F.);
#842=EDGE_CURVE('',#620,#636,#228,.T.);
#844=EDGE_CURVE('',#636,#623,#261,.T.);
#849=ADVANCED_FACE('',(#848),#840,.T.);
#863=EDGE_CURVE('',#618,#634,#232,.T.);
#865=EDGE_CURVE('',#634,#636,#266,.T.);
#870=ADVANCED_FACE('',(#869),#861,.F.);
#884=EDGE_CURVE('',#616,#632,#236,.T.);
#886=EDGE_CURVE('',#632,#634,#270,.T.);
#891=ADVANCED_FACE('',(#890),#882,.T.);
#905=EDGE_CURVE('',#614,#630,#240,.T.);
#907=EDGE_CURVE('',#630,#632,#275,.T.);
#912=ADVANCED_FACE('',(#911),#903,.F.);
#926=EDGE_CURVE('',#612,#628,#244,.T.);
#928=EDGE_CURVE('',#628,#630,#279,.T.);
#933=ADVANCED_FACE('',(#932),#924,.T.);
#947=EDGE_CURVE('',#610,#626,#248,.T.);
#949=EDGE_CURVE('',#626,#628,#284,.T.);
#954=ADVANCED_FACE('',(#953),#945,.F.);
#969=EDGE_CURVE('',#624,#626,#288,.T.);
#974=ADVANCED_FACE('',(#973),#966,.T.);
#997=EDGE_CURVE('',#655,#656,#293,.T.);
#999=EDGE_CURVE('',#656,#658,#297,.T.);
#1001=EDGE_CURVE('',#658,#660,#302,.T.);
#1003=EDGE_CURVE('',#660,#662,#306,.T.);
#1005=EDGE_CURVE('',#662,#664,#311,.T.);
#1007=EDGE_CURVE('',#664,#666,#315,.T.);
#1009=EDGE_CURVE('',#666,#668,#320,.T.);
#1011=EDGE_CURVE('',#668,#655,#324,.T.);
#1015=ADVANCED_FACE('',(#996,#1014),#986,.T.);
#1029=EDGE_CURVE('',#655,#639,#328,.T.);
#1031=EDGE_CURVE('',#639,#640,#361,.T.);
#1033=EDGE_CURVE('',#656,#640,#356,.T.);
#1037=ADVANCED_FACE('',(#1036),#1027,.T.);
#1051=EDGE_CURVE('',#668,#652,#332,.T.);
#1053=EDGE_CURVE('',#652,#639,#365,.T.);
#1058=ADVANCED_FACE('',(#1057),#1049,.T.);
#1072=EDGE_CURVE('',#666,#650,#336,.T.);
#1074=EDGE_CURVE('',#650,#652,#370,.T.);
#1079=ADVANCED_FACE('',(#1078),#1070,.T.);
#1093=EDGE_CURVE('',#664,#648,#340,.T.);
#1095=EDGE_CURVE('',#648,#650,#374,.T.);
#1100=ADVANCED_FACE('',(#1099),#1091,.T.);
#1114=EDGE_CURVE('',#662,#646,#344,.T.);
#1116=EDGE_CURVE('',#646,#648,#379,.T.);
#1121=ADVANCED_FACE('',(#1120),#1112,.T.);
#1135=EDGE_CURVE('',#660,#644,#348,.T.);
#1137=EDGE_CURVE('',#644,#646,#383,.T.);
#1142=ADVANCED_FACE('',(#1141),#1133,.T.);
#1156=EDGE_CURVE('',#658,#642,#352,.T.);
#1158=EDGE_CURVE('',#642,#644,#388,.T.);
#1163=ADVANCED_FACE('',(#1162),#1154,.T.);
#1178=EDGE_CURVE('',#640,#642,#392,.T.);
#1183=ADVANCED_FACE('',(#1182),#1175,.T.);
#1206=EDGE_CURVE('',#687,#688,#397,.T.);
#1208=EDGE_CURVE('',#688,#690,#401,.T.);
#1210=EDGE_CURVE('',#690,#692,#406,.T.);
#1212=EDGE_CURVE('',#692,#694,#410,.T.);
#1214=EDGE_CURVE('',#694,#696,#415,.T.);
#1216=EDGE_CURVE('',#696,#698,#419,.T.);
#1218=EDGE_CURVE('',#698,#700,#424,.T.);
#1220=EDGE_CURVE('',#700,#687,#428,.T.);
#1224=ADVANCED_FACE('',(#1205,#1223),#1195,.T.);
#1238=EDGE_CURVE('',#687,#671,#432,.T.);
#1240=EDGE_CURVE('',#671,#672,#465,.T.);
#1242=EDGE_CURVE('',#688,#672,#460,.T.);
#1246=ADVANCED_FACE('',(#1245),#1236,.T.);
#1260=EDGE_CURVE('',#700,#684,#436,.T.);
#1262=EDGE_CURVE('',#684,#671,#469,.T.);
#1267=ADVANCED_FACE('',(#1266),#1258,.T.);
#1281=EDGE_CURVE('',#698,#682,#440,.T.);
#1283=EDGE_CURVE('',#682,#684,#474,.T.);
#1288=ADVANCED_FACE('',(#1287),#1279,.T.);
#1302=EDGE_CURVE('',#696,#680,#444,.T.);
#1304=EDGE_CURVE('',#680,#682,#478,.T.);
#1309=ADVANCED_FACE('',(#1308),#1300,.T.);
#1323=EDGE_CURVE('',#694,#678,#448,.T.);
#1325=EDGE_CURVE('',#678,#680,#483,.T.);
#1330=ADVANCED_FACE('',(#1329),#1321,.T.);
#1344=EDGE_CURVE('',#692,#676,#452,.T.);
#1346=EDGE_CURVE('',#676,#678,#487,.T.);
#1351=ADVANCED_FACE('',(#1350),#1342,.T.);
#1365=EDGE_CURVE('',#690,#674,#456,.T.);
#1367=EDGE_CURVE('',#674,#676,#492,.T.);
#1372=ADVANCED_FACE('',(#1371),#1363,.T.);
#1387=EDGE_CURVE('',#672,#674,#496,.T.);
#1392=ADVANCED_FACE('',(#1391),#1384,.T.);
#1415=ADVANCED_FACE('',(#1414),#1404,.T.);
#1429=EDGE_CURVE('',#729,#703,#500,.T.);
#1431=EDGE_CURVE('',#703,#704,#524,.T.);
#1433=EDGE_CURVE('',#730,#704,#520,.T.);
#1437=ADVANCED_FACE('',(#1436),#1427,.T.);
#1451=EDGE_CURVE('',#738,#712,#504,.T.);
#1453=EDGE_CURVE('',#712,#703,#529,.T.);
#1458=ADVANCED_FACE('',(#1457),#1449,.F.);
#1472=EDGE_CURVE('',#736,#710,#508,.T.);
#1474=EDGE_CURVE('',#710,#712,#533,.T.);
#1479=ADVANCED_FACE('',(#1478),#1470,.T.);
#1493=EDGE_CURVE('',#734,#708,#512,.T.);
#1495=EDGE_CURVE('',#708,#710,#538,.T.);
#1500=ADVANCED_FACE('',(#1499),#1491,.F.);
#1514=EDGE_CURVE('',#732,#706,#516,.T.);
#1516=EDGE_CURVE('',#706,#708,#542,.T.);
#1521=ADVANCED_FACE('',(#1520),#1512,.T.);
#1536=EDGE_CURVE('',#704,#706,#546,.T.);
#1541=ADVANCED_FACE('',(#1540),#1533,.T.);
#1562=ADVANCED_FACE('',(#1561),#1553,.T.);
#1575=EDGE_CURVE('',#715,#716,#550,.T.);
#1577=EDGE_CURVE('',#726,#715,#555,.T.);
#1579=EDGE_CURVE('',#724,#726,#559,.T.);
#1581=EDGE_CURVE('',#722,#724,#564,.T.);
#1583=EDGE_CURVE('',#720,#722,#568,.T.);
#1585=EDGE_CURVE('',#718,#720,#572,.T.);
#1587=EDGE_CURVE('',#716,#718,#576,.T.);
#1591=ADVANCED_FACE('',(#1590),#1574,.T.);
#1605=EDGE_CURVE('',#741,#715,#580,.T.);
#1608=EDGE_CURVE('',#742,#716,#604,.T.);
#1612=ADVANCED_FACE('',(#1611),#1603,.T.);
#1626=EDGE_CURVE('',#752,#726,#584,.T.);
#1632=ADVANCED_FACE('',(#1631),#1624,.F.);
#1646=EDGE_CURVE('',#750,#724,#588,.T.);
#1652=ADVANCED_FACE('',(#1651),#1644,.T.);
#1666=EDGE_CURVE('',#748,#722,#592,.T.);
#1672=ADVANCED_FACE('',(#1671),#1664,.F.);
#1686=EDGE_CURVE('',#746,#720,#596,.T.);
#1692=ADVANCED_FACE('',(#1691),#1684,.T.);
#1706=EDGE_CURVE('',#744,#718,#600,.T.);
#1712=ADVANCED_FACE('',(#1711),#1704,.T.);
#1731=ADVANCED_FACE('',(#1730),#1724,.T.);
#1739=CLOSED_SHELL('',(#806,#828,#849,#870,#891,#912,#933,#954,#974,#1015,#1037,
#1058,#1079,#1100,#1121,#1142,#1163,#1183,#1224,#1246,#1267,#1288,#1309,#1330,
#1351,#1372,#1392,#1415,#1437,#1458,#1479,#1500,#1521,#1541,#1562,#1591,#1612,
#1632,#1652,#1672,#1692,#1712,#1731));
#1740=MANIFOLD_SOLID_BREP('',#1739);
#1742=(LENGTH_UNIT()NAMED_UNIT(*)SI_UNIT(.MILLI.,.METRE.));
#1743=(NAMED_UNIT(*)PLANE_ANGLE_UNIT()SI_UNIT($,.RADIAN.));
#1746=(NAMED_UNIT(*)SI_UNIT($,.STERADIAN.)SOLID_ANGLE_UNIT());
#1748=(GEOMETRIC_REPRESENTATION_CONTEXT(3)GLOBAL_UNCERTAINTY_ASSIGNED_CONTEXT((
#1747))GLOBAL_UNIT_ASSIGNED_CONTEXT((#1742,#1745,#1746))REPRESENTATION_CONTEXT(
'ID1','3'));
#1749=ADVANCED_BREP_SHAPE_REPRESENTATION('',(#1740),#1748);
#1757=PRODUCT_DEFINITION('part definition','',#1756,#1753);
#1758=PRODUCT_DEFINITION_SHAPE('','SHAPE FOR FC1610AN_PKG.',#1757);
#1759=SHAPE_ASPECT('','solid data associated with FC1610AN_PKG',#1758,.F.);
#1760=PROPERTY_DEFINITION('',
'shape for solid data with which properties are associated',#1759);
#1761=SHAPE_REPRESENTATION('',(#1740),#1748);
#1762=SHAPE_DEFINITION_REPRESENTATION(#1760,#1761);
#1763=(LENGTH_UNIT()NAMED_UNIT(*)SI_UNIT(.MILLI.,.METRE.));
#1767=PROPERTY_DEFINITION('geometric validation property',
'area of FC1610AN_PKG',#1759);
#1768=REPRESENTATION('surface area',(#1766),#1748);
#1769=PROPERTY_DEFINITION_REPRESENTATION(#1767,#1768);
#1770=(LENGTH_UNIT()NAMED_UNIT(*)SI_UNIT(.MILLI.,.METRE.));
#1774=PROPERTY_DEFINITION('geometric validation property',
'volume of FC1610AN_PKG',#1759);
#1775=REPRESENTATION('volume',(#1773),#1748);
#1776=PROPERTY_DEFINITION_REPRESENTATION(#1774,#1775);
#1778=PROPERTY_DEFINITION('geometric validation property',
'centroid of FC1610AN_PKG',#1759);
#1779=REPRESENTATION('centroid',(#1777),#1748);
#1780=PROPERTY_DEFINITION_REPRESENTATION(#1778,#1779);
#1781=(LENGTH_UNIT()NAMED_UNIT(*)SI_UNIT(.MILLI.,.METRE.));
#1785=PROPERTY_DEFINITION('geometric validation property',
'area of FC1610AN_PKG',#1758);
#1786=REPRESENTATION('surface area',(#1784),#1748);
#1787=PROPERTY_DEFINITION_REPRESENTATION(#1785,#1786);
#1788=(LENGTH_UNIT()NAMED_UNIT(*)SI_UNIT(.MILLI.,.METRE.));
#1792=PROPERTY_DEFINITION('geometric validation property',
'volume of FC1610AN_PKG',#1758);
#1793=REPRESENTATION('volume',(#1791),#1748);
#1794=PROPERTY_DEFINITION_REPRESENTATION(#1792,#1793);
#1796=PROPERTY_DEFINITION('geometric validation property',
'centroid of FC1610AN_PKG',#1758);
#1797=REPRESENTATION('centroid',(#1795),#1748);
#1798=PROPERTY_DEFINITION_REPRESENTATION(#1796,#1797);
#1799=SHAPE_DEFINITION_REPRESENTATION(#1758,#1749);
ENDSEC;
END-ISO-10303-21;
