ISO-10303-21;
HEADER;
/* Generated by software containing ST-Developer
 * from STEP Tools, Inc. (www.steptools.com) 
 */

FILE_DESCRIPTION(
/* description */ ('model of LED_0603_1608Metric'),
/* implementation_level */ '2;1');

FILE_NAME(
/* name */ 'ALS-PT19-315C.step',
/* time_stamp */ '2026-08-24T08:48:46+02:00',
/* author */ (''),
/* organization */ (''),
/* preprocessor_version */ 'ST-DEVELOPER v20.1',
/* originating_system */ 'Autodesk Translation Framework v15.8.0.0',
/* authorisation */ '');

FILE_SCHEMA (('AUTOMOTIVE_DESIGN { 1 0 10303 214 3 1 1 }'));
ENDSEC;

DATA;
#10=MECHANICAL_DESIGN_GEOMETRIC_PRESENTATION_REPRESENTATION('',(#13,#14,
#15),#1157);
#11=SHAPE_REPRESENTATION_RELATIONSHIP('SRR','None',#1164,#12);
#12=ADVANCED_BREP_SHAPE_REPRESENTATION('',(#16,#17,#18),#1156);
#13=STYLED_ITEM('',(#1174),#16);
#14=STYLED_ITEM('',(#1174),#17);
#15=STYLED_ITEM('',(#1175),#18);
#16=MANIFOLD_SOLID_BREP('Body2',#703);
#17=MANIFOLD_SOLID_BREP('Body3',#704);
#18=MANIFOLD_SOLID_BREP('Body4',#705);
#19=PLANE('',#722);
#20=PLANE('',#723);
#21=PLANE('',#724);
#22=PLANE('',#725);
#23=PLANE('',#726);
#24=PLANE('',#727);
#25=PLANE('',#728);
#26=PLANE('',#729);
#27=PLANE('',#730);
#28=PLANE('',#734);
#29=PLANE('',#735);
#30=PLANE('',#736);
#31=PLANE('',#737);
#32=PLANE('',#738);
#33=PLANE('',#739);
#34=PLANE('',#740);
#35=PLANE('',#741);
#36=PLANE('',#742);
#37=PLANE('',#743);
#38=PLANE('',#744);
#39=PLANE('',#745);
#40=PLANE('',#746);
#41=PLANE('',#750);
#42=PLANE('',#754);
#43=PLANE('',#758);
#44=PLANE('',#759);
#45=PLANE('',#763);
#46=PLANE('',#764);
#47=PLANE('',#765);
#48=PLANE('',#766);
#49=PLANE('',#767);
#50=PLANE('',#768);
#51=FACE_OUTER_BOUND('',#89,.T.);
#52=FACE_OUTER_BOUND('',#90,.T.);
#53=FACE_OUTER_BOUND('',#91,.T.);
#54=FACE_OUTER_BOUND('',#92,.T.);
#55=FACE_OUTER_BOUND('',#93,.T.);
#56=FACE_OUTER_BOUND('',#94,.T.);
#57=FACE_OUTER_BOUND('',#95,.T.);
#58=FACE_OUTER_BOUND('',#96,.T.);
#59=FACE_OUTER_BOUND('',#97,.T.);
#60=FACE_OUTER_BOUND('',#98,.T.);
#61=FACE_OUTER_BOUND('',#99,.T.);
#62=FACE_OUTER_BOUND('',#100,.T.);
#63=FACE_OUTER_BOUND('',#101,.T.);
#64=FACE_OUTER_BOUND('',#102,.T.);
#65=FACE_OUTER_BOUND('',#103,.T.);
#66=FACE_OUTER_BOUND('',#104,.T.);
#67=FACE_OUTER_BOUND('',#105,.T.);
#68=FACE_OUTER_BOUND('',#106,.T.);
#69=FACE_OUTER_BOUND('',#107,.T.);
#70=FACE_OUTER_BOUND('',#108,.T.);
#71=FACE_OUTER_BOUND('',#109,.T.);
#72=FACE_OUTER_BOUND('',#110,.T.);
#73=FACE_OUTER_BOUND('',#111,.T.);
#74=FACE_OUTER_BOUND('',#112,.T.);
#75=FACE_OUTER_BOUND('',#113,.T.);
#76=FACE_OUTER_BOUND('',#114,.T.);
#77=FACE_OUTER_BOUND('',#115,.T.);
#78=FACE_OUTER_BOUND('',#116,.T.);
#79=FACE_OUTER_BOUND('',#117,.T.);
#80=FACE_OUTER_BOUND('',#118,.T.);
#81=FACE_OUTER_BOUND('',#119,.T.);
#82=FACE_OUTER_BOUND('',#120,.T.);
#83=FACE_OUTER_BOUND('',#121,.T.);
#84=FACE_OUTER_BOUND('',#122,.T.);
#85=FACE_OUTER_BOUND('',#123,.T.);
#86=FACE_OUTER_BOUND('',#124,.T.);
#87=FACE_OUTER_BOUND('',#125,.T.);
#88=FACE_OUTER_BOUND('',#126,.T.);
#89=EDGE_LOOP('',(#467,#468,#469,#470));
#90=EDGE_LOOP('',(#471,#472,#473,#474,#475,#476,#477,#478));
#91=EDGE_LOOP('',(#479,#480,#481,#482));
#92=EDGE_LOOP('',(#483,#484,#485,#486));
#93=EDGE_LOOP('',(#487,#488,#489,#490));
#94=EDGE_LOOP('',(#491,#492,#493,#494));
#95=EDGE_LOOP('',(#495,#496,#497,#498));
#96=EDGE_LOOP('',(#499,#500,#501,#502));
#97=EDGE_LOOP('',(#503,#504,#505,#506));
#98=EDGE_LOOP('',(#507,#508,#509,#510,#511,#512,#513,#514));
#99=EDGE_LOOP('',(#515,#516,#517,#518));
#100=EDGE_LOOP('',(#519,#520,#521,#522));
#101=EDGE_LOOP('',(#523,#524,#525,#526,#527,#528,#529,#530));
#102=EDGE_LOOP('',(#531,#532,#533,#534));
#103=EDGE_LOOP('',(#535,#536,#537,#538));
#104=EDGE_LOOP('',(#539,#540,#541,#542));
#105=EDGE_LOOP('',(#543,#544,#545,#546));
#106=EDGE_LOOP('',(#547,#548,#549,#550));
#107=EDGE_LOOP('',(#551,#552,#553,#554,#555,#556,#557,#558));
#108=EDGE_LOOP('',(#559,#560,#561,#562));
#109=EDGE_LOOP('',(#563,#564,#565,#566));
#110=EDGE_LOOP('',(#567,#568,#569,#570));
#111=EDGE_LOOP('',(#571,#572,#573,#574,#575,#576,#577,#578));
#112=EDGE_LOOP('',(#579,#580,#581,#582,#583,#584,#585,#586));
#113=EDGE_LOOP('',(#587,#588,#589,#590));
#114=EDGE_LOOP('',(#591,#592,#593,#594));
#115=EDGE_LOOP('',(#595,#596,#597,#598));
#116=EDGE_LOOP('',(#599,#600,#601,#602));
#117=EDGE_LOOP('',(#603,#604,#605,#606));
#118=EDGE_LOOP('',(#607,#608,#609,#610));
#119=EDGE_LOOP('',(#611,#612,#613,#614,#615,#616,#617,#618,#619,#620,#621,
#622));
#120=EDGE_LOOP('',(#623,#624,#625,#626));
#121=EDGE_LOOP('',(#627,#628,#629,#630));
#122=EDGE_LOOP('',(#631,#632,#633,#634));
#123=EDGE_LOOP('',(#635,#636,#637,#638));
#124=EDGE_LOOP('',(#639,#640,#641,#642));
#125=EDGE_LOOP('',(#643,#644,#645,#646));
#126=EDGE_LOOP('',(#647,#648,#649,#650,#651,#652,#653,#654,#655,#656,#657,
#658));
#127=LINE('',#961,#211);
#128=LINE('',#964,#212);
#129=LINE('',#967,#213);
#130=LINE('',#969,#214);
#131=LINE('',#971,#215);
#132=LINE('',#973,#216);
#133=LINE('',#975,#217);
#134=LINE('',#977,#218);
#135=LINE('',#978,#219);
#136=LINE('',#981,#220);
#137=LINE('',#982,#221);
#138=LINE('',#985,#222);
#139=LINE('',#986,#223);
#140=LINE('',#989,#224);
#141=LINE('',#990,#225);
#142=LINE('',#993,#226);
#143=LINE('',#994,#227);
#144=LINE('',#997,#228);
#145=LINE('',#998,#229);
#146=LINE('',#1001,#230);
#147=LINE('',#1002,#231);
#148=LINE('',#1004,#232);
#149=LINE('',#1011,#233);
#150=LINE('',#1014,#234);
#151=LINE('',#1017,#235);
#152=LINE('',#1019,#236);
#153=LINE('',#1020,#237);
#154=LINE('',#1023,#238);
#155=LINE('',#1025,#239);
#156=LINE('',#1027,#240);
#157=LINE('',#1029,#241);
#158=LINE('',#1031,#242);
#159=LINE('',#1032,#243);
#160=LINE('',#1036,#244);
#161=LINE('',#1038,#245);
#162=LINE('',#1040,#246);
#163=LINE('',#1041,#247);
#164=LINE('',#1044,#248);
#165=LINE('',#1046,#249);
#166=LINE('',#1047,#250);
#167=LINE('',#1050,#251);
#168=LINE('',#1052,#252);
#169=LINE('',#1053,#253);
#170=LINE('',#1055,#254);
#171=LINE('',#1056,#255);
#172=LINE('',#1059,#256);
#173=LINE('',#1061,#257);
#174=LINE('',#1062,#258);
#175=LINE('',#1065,#259);
#176=LINE('',#1066,#260);
#177=LINE('',#1068,#261);
#178=LINE('',#1071,#262);
#179=LINE('',#1072,#263);
#180=LINE('',#1075,#264);
#181=LINE('',#1076,#265);
#182=LINE('',#1078,#266);
#183=LINE('',#1085,#267);
#184=LINE('',#1088,#268);
#185=LINE('',#1091,#269);
#186=LINE('',#1093,#270);
#187=LINE('',#1094,#271);
#188=LINE('',#1100,#272);
#189=LINE('',#1103,#273);
#190=LINE('',#1106,#274);
#191=LINE('',#1108,#275);
#192=LINE('',#1109,#276);
#193=LINE('',#1114,#277);
#194=LINE('',#1118,#278);
#195=LINE('',#1120,#279);
#196=LINE('',#1121,#280);
#197=LINE('',#1124,#281);
#198=LINE('',#1126,#282);
#199=LINE('',#1128,#283);
#200=LINE('',#1129,#284);
#201=LINE('',#1131,#285);
#202=LINE('',#1136,#286);
#203=LINE('',#1138,#287);
#204=LINE('',#1141,#288);
#205=LINE('',#1142,#289);
#206=LINE('',#1145,#290);
#207=LINE('',#1146,#291);
#208=LINE('',#1149,#292);
#209=LINE('',#1150,#293);
#210=LINE('',#1152,#294);
#211=VECTOR('',#775,0.05);
#212=VECTOR('',#778,10.);
#213=VECTOR('',#781,10.);
#214=VECTOR('',#782,10.);
#215=VECTOR('',#783,10.);
#216=VECTOR('',#784,10.);
#217=VECTOR('',#785,10.);
#218=VECTOR('',#786,10.);
#219=VECTOR('',#787,10.);
#220=VECTOR('',#790,10.);
#221=VECTOR('',#791,10.);
#222=VECTOR('',#794,10.);
#223=VECTOR('',#795,10.);
#224=VECTOR('',#798,10.);
#225=VECTOR('',#799,10.);
#226=VECTOR('',#802,10.);
#227=VECTOR('',#803,10.);
#228=VECTOR('',#806,10.);
#229=VECTOR('',#807,10.);
#230=VECTOR('',#810,10.);
#231=VECTOR('',#811,10.);
#232=VECTOR('',#814,10.);
#233=VECTOR('',#821,0.05);
#234=VECTOR('',#824,10.);
#235=VECTOR('',#827,10.);
#236=VECTOR('',#828,10.);
#237=VECTOR('',#829,10.);
#238=VECTOR('',#832,10.);
#239=VECTOR('',#833,10.);
#240=VECTOR('',#834,10.);
#241=VECTOR('',#835,10.);
#242=VECTOR('',#836,10.);
#243=VECTOR('',#837,10.);
#244=VECTOR('',#840,10.);
#245=VECTOR('',#841,10.);
#246=VECTOR('',#842,10.);
#247=VECTOR('',#843,10.);
#248=VECTOR('',#846,10.);
#249=VECTOR('',#847,10.);
#250=VECTOR('',#848,10.);
#251=VECTOR('',#851,10.);
#252=VECTOR('',#852,10.);
#253=VECTOR('',#853,10.);
#254=VECTOR('',#856,10.);
#255=VECTOR('',#857,10.);
#256=VECTOR('',#860,10.);
#257=VECTOR('',#861,10.);
#258=VECTOR('',#862,10.);
#259=VECTOR('',#865,10.);
#260=VECTOR('',#866,10.);
#261=VECTOR('',#869,10.);
#262=VECTOR('',#872,10.);
#263=VECTOR('',#873,10.);
#264=VECTOR('',#876,10.);
#265=VECTOR('',#877,10.);
#266=VECTOR('',#880,10.);
#267=VECTOR('',#887,10.);
#268=VECTOR('',#890,10.);
#269=VECTOR('',#893,10.);
#270=VECTOR('',#894,10.);
#271=VECTOR('',#895,10.);
#272=VECTOR('',#900,10.);
#273=VECTOR('',#903,10.);
#274=VECTOR('',#906,10.);
#275=VECTOR('',#907,10.);
#276=VECTOR('',#908,10.);
#277=VECTOR('',#913,10.);
#278=VECTOR('',#918,10.);
#279=VECTOR('',#919,10.);
#280=VECTOR('',#920,10.);
#281=VECTOR('',#923,10.);
#282=VECTOR('',#924,10.);
#283=VECTOR('',#925,10.);
#284=VECTOR('',#926,10.);
#285=VECTOR('',#927,10.);
#286=VECTOR('',#934,10.);
#287=VECTOR('',#937,10.);
#288=VECTOR('',#940,10.);
#289=VECTOR('',#941,10.);
#290=VECTOR('',#944,10.);
#291=VECTOR('',#945,10.);
#292=VECTOR('',#948,10.);
#293=VECTOR('',#949,10.);
#294=VECTOR('',#952,10.);
#295=CIRCLE('',#720,0.0500000000000001);
#296=CIRCLE('',#721,0.0500000000000001);
#297=CIRCLE('',#732,0.0500000000000001);
#298=CIRCLE('',#733,0.0500000000000001);
#299=CIRCLE('',#748,0.05);
#300=CIRCLE('',#749,0.05);
#301=CIRCLE('',#752,0.05);
#302=CIRCLE('',#753,0.05);
#303=CIRCLE('',#756,0.1);
#304=CIRCLE('',#757,0.1);
#305=CIRCLE('',#760,0.1);
#306=CIRCLE('',#762,0.1);
#307=VERTEX_POINT('',#957);
#308=VERTEX_POINT('',#958);
#309=VERTEX_POINT('',#960);
#310=VERTEX_POINT('',#962);
#311=VERTEX_POINT('',#966);
#312=VERTEX_POINT('',#968);
#313=VERTEX_POINT('',#970);
#314=VERTEX_POINT('',#972);
#315=VERTEX_POINT('',#974);
#316=VERTEX_POINT('',#976);
#317=VERTEX_POINT('',#980);
#318=VERTEX_POINT('',#984);
#319=VERTEX_POINT('',#988);
#320=VERTEX_POINT('',#992);
#321=VERTEX_POINT('',#996);
#322=VERTEX_POINT('',#1000);
#323=VERTEX_POINT('',#1007);
#324=VERTEX_POINT('',#1008);
#325=VERTEX_POINT('',#1010);
#326=VERTEX_POINT('',#1012);
#327=VERTEX_POINT('',#1016);
#328=VERTEX_POINT('',#1018);
#329=VERTEX_POINT('',#1022);
#330=VERTEX_POINT('',#1024);
#331=VERTEX_POINT('',#1026);
#332=VERTEX_POINT('',#1028);
#333=VERTEX_POINT('',#1030);
#334=VERTEX_POINT('',#1034);
#335=VERTEX_POINT('',#1035);
#336=VERTEX_POINT('',#1037);
#337=VERTEX_POINT('',#1039);
#338=VERTEX_POINT('',#1043);
#339=VERTEX_POINT('',#1045);
#340=VERTEX_POINT('',#1049);
#341=VERTEX_POINT('',#1051);
#342=VERTEX_POINT('',#1058);
#343=VERTEX_POINT('',#1060);
#344=VERTEX_POINT('',#1064);
#345=VERTEX_POINT('',#1070);
#346=VERTEX_POINT('',#1074);
#347=VERTEX_POINT('',#1081);
#348=VERTEX_POINT('',#1082);
#349=VERTEX_POINT('',#1084);
#350=VERTEX_POINT('',#1086);
#351=VERTEX_POINT('',#1090);
#352=VERTEX_POINT('',#1092);
#353=VERTEX_POINT('',#1096);
#354=VERTEX_POINT('',#1097);
#355=VERTEX_POINT('',#1099);
#356=VERTEX_POINT('',#1101);
#357=VERTEX_POINT('',#1105);
#358=VERTEX_POINT('',#1107);
#359=VERTEX_POINT('',#1111);
#360=VERTEX_POINT('',#1113);
#361=VERTEX_POINT('',#1117);
#362=VERTEX_POINT('',#1119);
#363=VERTEX_POINT('',#1123);
#364=VERTEX_POINT('',#1125);
#365=VERTEX_POINT('',#1127);
#366=VERTEX_POINT('',#1130);
#367=VERTEX_POINT('',#1134);
#368=VERTEX_POINT('',#1140);
#369=VERTEX_POINT('',#1144);
#370=VERTEX_POINT('',#1148);
#371=EDGE_CURVE('',#307,#308,#295,.T.);
#372=EDGE_CURVE('',#308,#309,#127,.T.);
#373=EDGE_CURVE('',#309,#310,#296,.T.);
#374=EDGE_CURVE('',#310,#307,#128,.T.);
#375=EDGE_CURVE('',#309,#311,#129,.T.);
#376=EDGE_CURVE('',#311,#312,#130,.T.);
#377=EDGE_CURVE('',#312,#313,#131,.T.);
#378=EDGE_CURVE('',#313,#314,#132,.T.);
#379=EDGE_CURVE('',#314,#315,#133,.T.);
#380=EDGE_CURVE('',#315,#316,#134,.T.);
#381=EDGE_CURVE('',#316,#310,#135,.T.);
#382=EDGE_CURVE('',#317,#316,#136,.T.);
#383=EDGE_CURVE('',#307,#317,#137,.T.);
#384=EDGE_CURVE('',#318,#308,#138,.T.);
#385=EDGE_CURVE('',#311,#318,#139,.T.);
#386=EDGE_CURVE('',#319,#318,#140,.T.);
#387=EDGE_CURVE('',#312,#319,#141,.T.);
#388=EDGE_CURVE('',#320,#319,#142,.T.);
#389=EDGE_CURVE('',#313,#320,#143,.T.);
#390=EDGE_CURVE('',#321,#320,#144,.T.);
#391=EDGE_CURVE('',#314,#321,#145,.T.);
#392=EDGE_CURVE('',#322,#321,#146,.T.);
#393=EDGE_CURVE('',#315,#322,#147,.T.);
#394=EDGE_CURVE('',#317,#322,#148,.T.);
#395=EDGE_CURVE('',#323,#324,#297,.T.);
#396=EDGE_CURVE('',#324,#325,#149,.T.);
#397=EDGE_CURVE('',#325,#326,#298,.T.);
#398=EDGE_CURVE('',#323,#326,#150,.T.);
#399=EDGE_CURVE('',#327,#324,#151,.T.);
#400=EDGE_CURVE('',#327,#328,#152,.T.);
#401=EDGE_CURVE('',#325,#328,#153,.T.);
#402=EDGE_CURVE('',#323,#329,#154,.T.);
#403=EDGE_CURVE('',#329,#330,#155,.T.);
#404=EDGE_CURVE('',#330,#331,#156,.T.);
#405=EDGE_CURVE('',#331,#332,#157,.T.);
#406=EDGE_CURVE('',#332,#333,#158,.T.);
#407=EDGE_CURVE('',#333,#327,#159,.T.);
#408=EDGE_CURVE('',#334,#335,#160,.T.);
#409=EDGE_CURVE('',#336,#334,#161,.T.);
#410=EDGE_CURVE('',#337,#336,#162,.T.);
#411=EDGE_CURVE('',#335,#337,#163,.T.);
#412=EDGE_CURVE('',#335,#338,#164,.T.);
#413=EDGE_CURVE('',#339,#337,#165,.T.);
#414=EDGE_CURVE('',#338,#339,#166,.T.);
#415=EDGE_CURVE('',#338,#340,#167,.T.);
#416=EDGE_CURVE('',#341,#339,#168,.T.);
#417=EDGE_CURVE('',#340,#341,#169,.T.);
#418=EDGE_CURVE('',#334,#332,#170,.T.);
#419=EDGE_CURVE('',#331,#336,#171,.T.);
#420=EDGE_CURVE('',#341,#342,#172,.T.);
#421=EDGE_CURVE('',#343,#342,#173,.T.);
#422=EDGE_CURVE('',#343,#340,#174,.T.);
#423=EDGE_CURVE('',#344,#343,#175,.T.);
#424=EDGE_CURVE('',#333,#344,#176,.T.);
#425=EDGE_CURVE('',#328,#344,#177,.T.);
#426=EDGE_CURVE('',#345,#326,#178,.T.);
#427=EDGE_CURVE('',#329,#345,#179,.T.);
#428=EDGE_CURVE('',#346,#345,#180,.T.);
#429=EDGE_CURVE('',#330,#346,#181,.T.);
#430=EDGE_CURVE('',#342,#346,#182,.T.);
#431=EDGE_CURVE('',#347,#348,#299,.T.);
#432=EDGE_CURVE('',#348,#349,#183,.T.);
#433=EDGE_CURVE('',#349,#350,#300,.T.);
#434=EDGE_CURVE('',#350,#347,#184,.T.);
#435=EDGE_CURVE('',#351,#348,#185,.T.);
#436=EDGE_CURVE('',#351,#352,#186,.T.);
#437=EDGE_CURVE('',#349,#352,#187,.T.);
#438=EDGE_CURVE('',#353,#354,#301,.T.);
#439=EDGE_CURVE('',#354,#355,#188,.T.);
#440=EDGE_CURVE('',#355,#356,#302,.T.);
#441=EDGE_CURVE('',#356,#353,#189,.T.);
#442=EDGE_CURVE('',#357,#354,#190,.T.);
#443=EDGE_CURVE('',#358,#357,#191,.T.);
#444=EDGE_CURVE('',#355,#358,#192,.T.);
#445=EDGE_CURVE('',#357,#359,#303,.T.);
#446=EDGE_CURVE('',#359,#360,#193,.T.);
#447=EDGE_CURVE('',#360,#358,#304,.T.);
#448=EDGE_CURVE('',#361,#359,#194,.T.);
#449=EDGE_CURVE('',#362,#361,#195,.T.);
#450=EDGE_CURVE('',#360,#362,#196,.T.);
#451=EDGE_CURVE('',#353,#363,#197,.T.);
#452=EDGE_CURVE('',#363,#364,#198,.T.);
#453=EDGE_CURVE('',#364,#365,#199,.T.);
#454=EDGE_CURVE('',#365,#351,#200,.T.);
#455=EDGE_CURVE('',#347,#366,#201,.T.);
#456=EDGE_CURVE('',#361,#366,#305,.T.);
#457=EDGE_CURVE('',#367,#362,#306,.T.);
#458=EDGE_CURVE('',#366,#367,#202,.T.);
#459=EDGE_CURVE('',#367,#350,#203,.T.);
#460=EDGE_CURVE('',#368,#356,#204,.T.);
#461=EDGE_CURVE('',#363,#368,#205,.T.);
#462=EDGE_CURVE('',#369,#368,#206,.T.);
#463=EDGE_CURVE('',#364,#369,#207,.T.);
#464=EDGE_CURVE('',#370,#369,#208,.T.);
#465=EDGE_CURVE('',#365,#370,#209,.T.);
#466=EDGE_CURVE('',#352,#370,#210,.T.);
#467=ORIENTED_EDGE('',*,*,#371,.T.);
#468=ORIENTED_EDGE('',*,*,#372,.T.);
#469=ORIENTED_EDGE('',*,*,#373,.T.);
#470=ORIENTED_EDGE('',*,*,#374,.T.);
#471=ORIENTED_EDGE('',*,*,#373,.F.);
#472=ORIENTED_EDGE('',*,*,#375,.T.);
#473=ORIENTED_EDGE('',*,*,#376,.T.);
#474=ORIENTED_EDGE('',*,*,#377,.T.);
#475=ORIENTED_EDGE('',*,*,#378,.T.);
#476=ORIENTED_EDGE('',*,*,#379,.T.);
#477=ORIENTED_EDGE('',*,*,#380,.T.);
#478=ORIENTED_EDGE('',*,*,#381,.T.);
#479=ORIENTED_EDGE('',*,*,#382,.F.);
#480=ORIENTED_EDGE('',*,*,#383,.F.);
#481=ORIENTED_EDGE('',*,*,#374,.F.);
#482=ORIENTED_EDGE('',*,*,#381,.F.);
#483=ORIENTED_EDGE('',*,*,#372,.F.);
#484=ORIENTED_EDGE('',*,*,#384,.F.);
#485=ORIENTED_EDGE('',*,*,#385,.F.);
#486=ORIENTED_EDGE('',*,*,#375,.F.);
#487=ORIENTED_EDGE('',*,*,#385,.T.);
#488=ORIENTED_EDGE('',*,*,#386,.F.);
#489=ORIENTED_EDGE('',*,*,#387,.F.);
#490=ORIENTED_EDGE('',*,*,#376,.F.);
#491=ORIENTED_EDGE('',*,*,#387,.T.);
#492=ORIENTED_EDGE('',*,*,#388,.F.);
#493=ORIENTED_EDGE('',*,*,#389,.F.);
#494=ORIENTED_EDGE('',*,*,#377,.F.);
#495=ORIENTED_EDGE('',*,*,#389,.T.);
#496=ORIENTED_EDGE('',*,*,#390,.F.);
#497=ORIENTED_EDGE('',*,*,#391,.F.);
#498=ORIENTED_EDGE('',*,*,#378,.F.);
#499=ORIENTED_EDGE('',*,*,#391,.T.);
#500=ORIENTED_EDGE('',*,*,#392,.F.);
#501=ORIENTED_EDGE('',*,*,#393,.F.);
#502=ORIENTED_EDGE('',*,*,#379,.F.);
#503=ORIENTED_EDGE('',*,*,#393,.T.);
#504=ORIENTED_EDGE('',*,*,#394,.F.);
#505=ORIENTED_EDGE('',*,*,#382,.T.);
#506=ORIENTED_EDGE('',*,*,#380,.F.);
#507=ORIENTED_EDGE('',*,*,#371,.F.);
#508=ORIENTED_EDGE('',*,*,#383,.T.);
#509=ORIENTED_EDGE('',*,*,#394,.T.);
#510=ORIENTED_EDGE('',*,*,#392,.T.);
#511=ORIENTED_EDGE('',*,*,#390,.T.);
#512=ORIENTED_EDGE('',*,*,#388,.T.);
#513=ORIENTED_EDGE('',*,*,#386,.T.);
#514=ORIENTED_EDGE('',*,*,#384,.T.);
#515=ORIENTED_EDGE('',*,*,#395,.T.);
#516=ORIENTED_EDGE('',*,*,#396,.T.);
#517=ORIENTED_EDGE('',*,*,#397,.T.);
#518=ORIENTED_EDGE('',*,*,#398,.F.);
#519=ORIENTED_EDGE('',*,*,#396,.F.);
#520=ORIENTED_EDGE('',*,*,#399,.F.);
#521=ORIENTED_EDGE('',*,*,#400,.T.);
#522=ORIENTED_EDGE('',*,*,#401,.F.);
#523=ORIENTED_EDGE('',*,*,#395,.F.);
#524=ORIENTED_EDGE('',*,*,#402,.T.);
#525=ORIENTED_EDGE('',*,*,#403,.T.);
#526=ORIENTED_EDGE('',*,*,#404,.T.);
#527=ORIENTED_EDGE('',*,*,#405,.T.);
#528=ORIENTED_EDGE('',*,*,#406,.T.);
#529=ORIENTED_EDGE('',*,*,#407,.T.);
#530=ORIENTED_EDGE('',*,*,#399,.T.);
#531=ORIENTED_EDGE('',*,*,#408,.F.);
#532=ORIENTED_EDGE('',*,*,#409,.F.);
#533=ORIENTED_EDGE('',*,*,#410,.F.);
#534=ORIENTED_EDGE('',*,*,#411,.F.);
#535=ORIENTED_EDGE('',*,*,#412,.F.);
#536=ORIENTED_EDGE('',*,*,#411,.T.);
#537=ORIENTED_EDGE('',*,*,#413,.F.);
#538=ORIENTED_EDGE('',*,*,#414,.F.);
#539=ORIENTED_EDGE('',*,*,#415,.F.);
#540=ORIENTED_EDGE('',*,*,#414,.T.);
#541=ORIENTED_EDGE('',*,*,#416,.F.);
#542=ORIENTED_EDGE('',*,*,#417,.F.);
#543=ORIENTED_EDGE('',*,*,#409,.T.);
#544=ORIENTED_EDGE('',*,*,#418,.T.);
#545=ORIENTED_EDGE('',*,*,#405,.F.);
#546=ORIENTED_EDGE('',*,*,#419,.T.);
#547=ORIENTED_EDGE('',*,*,#417,.T.);
#548=ORIENTED_EDGE('',*,*,#420,.T.);
#549=ORIENTED_EDGE('',*,*,#421,.F.);
#550=ORIENTED_EDGE('',*,*,#422,.T.);
#551=ORIENTED_EDGE('',*,*,#422,.F.);
#552=ORIENTED_EDGE('',*,*,#423,.F.);
#553=ORIENTED_EDGE('',*,*,#424,.F.);
#554=ORIENTED_EDGE('',*,*,#406,.F.);
#555=ORIENTED_EDGE('',*,*,#418,.F.);
#556=ORIENTED_EDGE('',*,*,#408,.T.);
#557=ORIENTED_EDGE('',*,*,#412,.T.);
#558=ORIENTED_EDGE('',*,*,#415,.T.);
#559=ORIENTED_EDGE('',*,*,#424,.T.);
#560=ORIENTED_EDGE('',*,*,#425,.F.);
#561=ORIENTED_EDGE('',*,*,#400,.F.);
#562=ORIENTED_EDGE('',*,*,#407,.F.);
#563=ORIENTED_EDGE('',*,*,#398,.T.);
#564=ORIENTED_EDGE('',*,*,#426,.F.);
#565=ORIENTED_EDGE('',*,*,#427,.F.);
#566=ORIENTED_EDGE('',*,*,#402,.F.);
#567=ORIENTED_EDGE('',*,*,#427,.T.);
#568=ORIENTED_EDGE('',*,*,#428,.F.);
#569=ORIENTED_EDGE('',*,*,#429,.F.);
#570=ORIENTED_EDGE('',*,*,#403,.F.);
#571=ORIENTED_EDGE('',*,*,#429,.T.);
#572=ORIENTED_EDGE('',*,*,#430,.F.);
#573=ORIENTED_EDGE('',*,*,#420,.F.);
#574=ORIENTED_EDGE('',*,*,#416,.T.);
#575=ORIENTED_EDGE('',*,*,#413,.T.);
#576=ORIENTED_EDGE('',*,*,#410,.T.);
#577=ORIENTED_EDGE('',*,*,#419,.F.);
#578=ORIENTED_EDGE('',*,*,#404,.F.);
#579=ORIENTED_EDGE('',*,*,#397,.F.);
#580=ORIENTED_EDGE('',*,*,#401,.T.);
#581=ORIENTED_EDGE('',*,*,#425,.T.);
#582=ORIENTED_EDGE('',*,*,#423,.T.);
#583=ORIENTED_EDGE('',*,*,#421,.T.);
#584=ORIENTED_EDGE('',*,*,#430,.T.);
#585=ORIENTED_EDGE('',*,*,#428,.T.);
#586=ORIENTED_EDGE('',*,*,#426,.T.);
#587=ORIENTED_EDGE('',*,*,#431,.T.);
#588=ORIENTED_EDGE('',*,*,#432,.T.);
#589=ORIENTED_EDGE('',*,*,#433,.T.);
#590=ORIENTED_EDGE('',*,*,#434,.T.);
#591=ORIENTED_EDGE('',*,*,#432,.F.);
#592=ORIENTED_EDGE('',*,*,#435,.F.);
#593=ORIENTED_EDGE('',*,*,#436,.T.);
#594=ORIENTED_EDGE('',*,*,#437,.F.);
#595=ORIENTED_EDGE('',*,*,#438,.T.);
#596=ORIENTED_EDGE('',*,*,#439,.T.);
#597=ORIENTED_EDGE('',*,*,#440,.T.);
#598=ORIENTED_EDGE('',*,*,#441,.T.);
#599=ORIENTED_EDGE('',*,*,#439,.F.);
#600=ORIENTED_EDGE('',*,*,#442,.F.);
#601=ORIENTED_EDGE('',*,*,#443,.F.);
#602=ORIENTED_EDGE('',*,*,#444,.F.);
#603=ORIENTED_EDGE('',*,*,#445,.T.);
#604=ORIENTED_EDGE('',*,*,#446,.T.);
#605=ORIENTED_EDGE('',*,*,#447,.T.);
#606=ORIENTED_EDGE('',*,*,#443,.T.);
#607=ORIENTED_EDGE('',*,*,#446,.F.);
#608=ORIENTED_EDGE('',*,*,#448,.F.);
#609=ORIENTED_EDGE('',*,*,#449,.F.);
#610=ORIENTED_EDGE('',*,*,#450,.F.);
#611=ORIENTED_EDGE('',*,*,#445,.F.);
#612=ORIENTED_EDGE('',*,*,#442,.T.);
#613=ORIENTED_EDGE('',*,*,#438,.F.);
#614=ORIENTED_EDGE('',*,*,#451,.T.);
#615=ORIENTED_EDGE('',*,*,#452,.T.);
#616=ORIENTED_EDGE('',*,*,#453,.T.);
#617=ORIENTED_EDGE('',*,*,#454,.T.);
#618=ORIENTED_EDGE('',*,*,#435,.T.);
#619=ORIENTED_EDGE('',*,*,#431,.F.);
#620=ORIENTED_EDGE('',*,*,#455,.T.);
#621=ORIENTED_EDGE('',*,*,#456,.F.);
#622=ORIENTED_EDGE('',*,*,#448,.T.);
#623=ORIENTED_EDGE('',*,*,#457,.T.);
#624=ORIENTED_EDGE('',*,*,#449,.T.);
#625=ORIENTED_EDGE('',*,*,#456,.T.);
#626=ORIENTED_EDGE('',*,*,#458,.T.);
#627=ORIENTED_EDGE('',*,*,#434,.F.);
#628=ORIENTED_EDGE('',*,*,#459,.F.);
#629=ORIENTED_EDGE('',*,*,#458,.F.);
#630=ORIENTED_EDGE('',*,*,#455,.F.);
#631=ORIENTED_EDGE('',*,*,#441,.F.);
#632=ORIENTED_EDGE('',*,*,#460,.F.);
#633=ORIENTED_EDGE('',*,*,#461,.F.);
#634=ORIENTED_EDGE('',*,*,#451,.F.);
#635=ORIENTED_EDGE('',*,*,#461,.T.);
#636=ORIENTED_EDGE('',*,*,#462,.F.);
#637=ORIENTED_EDGE('',*,*,#463,.F.);
#638=ORIENTED_EDGE('',*,*,#452,.F.);
#639=ORIENTED_EDGE('',*,*,#463,.T.);
#640=ORIENTED_EDGE('',*,*,#464,.F.);
#641=ORIENTED_EDGE('',*,*,#465,.F.);
#642=ORIENTED_EDGE('',*,*,#453,.F.);
#643=ORIENTED_EDGE('',*,*,#465,.T.);
#644=ORIENTED_EDGE('',*,*,#466,.F.);
#645=ORIENTED_EDGE('',*,*,#436,.F.);
#646=ORIENTED_EDGE('',*,*,#454,.F.);
#647=ORIENTED_EDGE('',*,*,#447,.F.);
#648=ORIENTED_EDGE('',*,*,#450,.T.);
#649=ORIENTED_EDGE('',*,*,#457,.F.);
#650=ORIENTED_EDGE('',*,*,#459,.T.);
#651=ORIENTED_EDGE('',*,*,#433,.F.);
#652=ORIENTED_EDGE('',*,*,#437,.T.);
#653=ORIENTED_EDGE('',*,*,#466,.T.);
#654=ORIENTED_EDGE('',*,*,#464,.T.);
#655=ORIENTED_EDGE('',*,*,#462,.T.);
#656=ORIENTED_EDGE('',*,*,#460,.T.);
#657=ORIENTED_EDGE('',*,*,#440,.F.);
#658=ORIENTED_EDGE('',*,*,#444,.T.);
#659=CYLINDRICAL_SURFACE('',#719,0.0500000000000001);
#660=CYLINDRICAL_SURFACE('',#731,0.0500000000000001);
#661=CYLINDRICAL_SURFACE('',#747,0.05);
#662=CYLINDRICAL_SURFACE('',#751,0.05);
#663=CYLINDRICAL_SURFACE('',#755,0.1);
#664=CYLINDRICAL_SURFACE('',#761,0.1);
#665=ADVANCED_FACE('',(#51),#659,.T.);
#666=ADVANCED_FACE('',(#52),#19,.T.);
#667=ADVANCED_FACE('',(#53),#20,.T.);
#668=ADVANCED_FACE('',(#54),#21,.T.);
#669=ADVANCED_FACE('',(#55),#22,.T.);
#670=ADVANCED_FACE('',(#56),#23,.T.);
#671=ADVANCED_FACE('',(#57),#24,.T.);
#672=ADVANCED_FACE('',(#58),#25,.T.);
#673=ADVANCED_FACE('',(#59),#26,.T.);
#674=ADVANCED_FACE('',(#60),#27,.T.);
#675=ADVANCED_FACE('',(#61),#660,.T.);
#676=ADVANCED_FACE('',(#62),#28,.T.);
#677=ADVANCED_FACE('',(#63),#29,.T.);
#678=ADVANCED_FACE('',(#64),#30,.T.);
#679=ADVANCED_FACE('',(#65),#31,.T.);
#680=ADVANCED_FACE('',(#66),#32,.T.);
#681=ADVANCED_FACE('',(#67),#33,.T.);
#682=ADVANCED_FACE('',(#68),#34,.T.);
#683=ADVANCED_FACE('',(#69),#35,.T.);
#684=ADVANCED_FACE('',(#70),#36,.T.);
#685=ADVANCED_FACE('',(#71),#37,.T.);
#686=ADVANCED_FACE('',(#72),#38,.T.);
#687=ADVANCED_FACE('',(#73),#39,.T.);
#688=ADVANCED_FACE('',(#74),#40,.T.);
#689=ADVANCED_FACE('',(#75),#661,.F.);
#690=ADVANCED_FACE('',(#76),#41,.T.);
#691=ADVANCED_FACE('',(#77),#662,.F.);
#692=ADVANCED_FACE('',(#78),#42,.T.);
#693=ADVANCED_FACE('',(#79),#663,.T.);
#694=ADVANCED_FACE('',(#80),#43,.T.);
#695=ADVANCED_FACE('',(#81),#44,.T.);
#696=ADVANCED_FACE('',(#82),#664,.T.);
#697=ADVANCED_FACE('',(#83),#45,.T.);
#698=ADVANCED_FACE('',(#84),#46,.T.);
#699=ADVANCED_FACE('',(#85),#47,.T.);
#700=ADVANCED_FACE('',(#86),#48,.T.);
#701=ADVANCED_FACE('',(#87),#49,.T.);
#702=ADVANCED_FACE('',(#88),#50,.T.);
#703=CLOSED_SHELL('',(#665,#666,#667,#668,#669,#670,#671,#672,#673,#674));
#704=CLOSED_SHELL('',(#675,#676,#677,#678,#679,#680,#681,#682,#683,#684,
#685,#686,#687,#688));
#705=CLOSED_SHELL('',(#689,#690,#691,#692,#693,#694,#695,#696,#697,#698,
#699,#700,#701,#702));
#706=DERIVED_UNIT_ELEMENT(#708,1.);
#707=DERIVED_UNIT_ELEMENT(#1159,-3.);
#708=(
MASS_UNIT()
NAMED_UNIT(*)
SI_UNIT(.KILO.,.GRAM.)
);
#709=DERIVED_UNIT((#706,#707));
#710=MEASURE_REPRESENTATION_ITEM('density measure',
POSITIVE_RATIO_MEASURE(7850.),#709);
#711=PROPERTY_DEFINITION_REPRESENTATION(#716,#713);
#712=PROPERTY_DEFINITION_REPRESENTATION(#717,#714);
#713=REPRESENTATION('material name',(#715),#1156);
#714=REPRESENTATION('density',(#710),#1156);
#715=DESCRIPTIVE_REPRESENTATION_ITEM('Steel','Steel');
#716=PROPERTY_DEFINITION('material property','material name',#1166);
#717=PROPERTY_DEFINITION('material property','density of part',#1166);
#718=AXIS2_PLACEMENT_3D('',#955,#769,#770);
#719=AXIS2_PLACEMENT_3D('',#956,#771,#772);
#720=AXIS2_PLACEMENT_3D('',#959,#773,#774);
#721=AXIS2_PLACEMENT_3D('',#963,#776,#777);
#722=AXIS2_PLACEMENT_3D('',#965,#779,#780);
#723=AXIS2_PLACEMENT_3D('',#979,#788,#789);
#724=AXIS2_PLACEMENT_3D('',#983,#792,#793);
#725=AXIS2_PLACEMENT_3D('',#987,#796,#797);
#726=AXIS2_PLACEMENT_3D('',#991,#800,#801);
#727=AXIS2_PLACEMENT_3D('',#995,#804,#805);
#728=AXIS2_PLACEMENT_3D('',#999,#808,#809);
#729=AXIS2_PLACEMENT_3D('',#1003,#812,#813);
#730=AXIS2_PLACEMENT_3D('',#1005,#815,#816);
#731=AXIS2_PLACEMENT_3D('',#1006,#817,#818);
#732=AXIS2_PLACEMENT_3D('',#1009,#819,#820);
#733=AXIS2_PLACEMENT_3D('',#1013,#822,#823);
#734=AXIS2_PLACEMENT_3D('',#1015,#825,#826);
#735=AXIS2_PLACEMENT_3D('',#1021,#830,#831);
#736=AXIS2_PLACEMENT_3D('',#1033,#838,#839);
#737=AXIS2_PLACEMENT_3D('',#1042,#844,#845);
#738=AXIS2_PLACEMENT_3D('',#1048,#849,#850);
#739=AXIS2_PLACEMENT_3D('',#1054,#854,#855);
#740=AXIS2_PLACEMENT_3D('',#1057,#858,#859);
#741=AXIS2_PLACEMENT_3D('',#1063,#863,#864);
#742=AXIS2_PLACEMENT_3D('',#1067,#867,#868);
#743=AXIS2_PLACEMENT_3D('',#1069,#870,#871);
#744=AXIS2_PLACEMENT_3D('',#1073,#874,#875);
#745=AXIS2_PLACEMENT_3D('',#1077,#878,#879);
#746=AXIS2_PLACEMENT_3D('',#1079,#881,#882);
#747=AXIS2_PLACEMENT_3D('',#1080,#883,#884);
#748=AXIS2_PLACEMENT_3D('',#1083,#885,#886);
#749=AXIS2_PLACEMENT_3D('',#1087,#888,#889);
#750=AXIS2_PLACEMENT_3D('',#1089,#891,#892);
#751=AXIS2_PLACEMENT_3D('',#1095,#896,#897);
#752=AXIS2_PLACEMENT_3D('',#1098,#898,#899);
#753=AXIS2_PLACEMENT_3D('',#1102,#901,#902);
#754=AXIS2_PLACEMENT_3D('',#1104,#904,#905);
#755=AXIS2_PLACEMENT_3D('',#1110,#909,#910);
#756=AXIS2_PLACEMENT_3D('',#1112,#911,#912);
#757=AXIS2_PLACEMENT_3D('',#1115,#914,#915);
#758=AXIS2_PLACEMENT_3D('',#1116,#916,#917);
#759=AXIS2_PLACEMENT_3D('',#1122,#921,#922);
#760=AXIS2_PLACEMENT_3D('',#1132,#928,#929);
#761=AXIS2_PLACEMENT_3D('',#1133,#930,#931);
#762=AXIS2_PLACEMENT_3D('',#1135,#932,#933);
#763=AXIS2_PLACEMENT_3D('',#1137,#935,#936);
#764=AXIS2_PLACEMENT_3D('',#1139,#938,#939);
#765=AXIS2_PLACEMENT_3D('',#1143,#942,#943);
#766=AXIS2_PLACEMENT_3D('',#1147,#946,#947);
#767=AXIS2_PLACEMENT_3D('',#1151,#950,#951);
#768=AXIS2_PLACEMENT_3D('',#1153,#953,#954);
#769=DIRECTION('axis',(0.,0.,1.));
#770=DIRECTION('refdir',(1.,0.,0.));
#771=DIRECTION('center_axis',(0.,-1.,0.));
#772=DIRECTION('ref_axis',(-0.979795897113271,0.,-0.2));
#773=DIRECTION('center_axis',(0.,-1.,0.));
#774=DIRECTION('ref_axis',(-0.979795897113271,0.,-0.2));
#775=DIRECTION('',(0.,-1.,0.));
#776=DIRECTION('center_axis',(0.,1.,0.));
#777=DIRECTION('ref_axis',(-0.979795897113271,0.,-0.2));
#778=DIRECTION('',(0.,1.,0.));
#779=DIRECTION('center_axis',(0.,-1.,0.));
#780=DIRECTION('ref_axis',(0.,0.,-1.));
#781=DIRECTION('',(1.,0.,0.));
#782=DIRECTION('',(-6.93889390390723E-15,0.,-1.));
#783=DIRECTION('',(-1.,0.,0.));
#784=DIRECTION('',(0.,0.,-1.));
#785=DIRECTION('',(1.,0.,0.));
#786=DIRECTION('',(6.93889390390723E-15,0.,1.));
#787=DIRECTION('',(-1.,0.,0.));
#788=DIRECTION('center_axis',(0.,0.,1.));
#789=DIRECTION('ref_axis',(1.,0.,0.));
#790=DIRECTION('',(0.,-1.,0.));
#791=DIRECTION('',(1.,0.,0.));
#792=DIRECTION('center_axis',(0.,0.,-1.));
#793=DIRECTION('ref_axis',(-1.,0.,0.));
#794=DIRECTION('',(-1.,0.,0.));
#795=DIRECTION('',(0.,1.,0.));
#796=DIRECTION('center_axis',(-1.,0.,6.93889390390723E-15));
#797=DIRECTION('ref_axis',(6.93889390390723E-15,0.,1.));
#798=DIRECTION('',(6.93889390390723E-15,0.,1.));
#799=DIRECTION('',(0.,1.,0.));
#800=DIRECTION('center_axis',(0.,0.,1.));
#801=DIRECTION('ref_axis',(1.,0.,0.));
#802=DIRECTION('',(1.,0.,0.));
#803=DIRECTION('',(0.,1.,0.));
#804=DIRECTION('center_axis',(-1.,0.,0.));
#805=DIRECTION('ref_axis',(0.,0.,1.));
#806=DIRECTION('',(0.,0.,1.));
#807=DIRECTION('',(0.,1.,0.));
#808=DIRECTION('center_axis',(0.,0.,-1.));
#809=DIRECTION('ref_axis',(-1.,0.,0.));
#810=DIRECTION('',(-1.,0.,0.));
#811=DIRECTION('',(0.,1.,0.));
#812=DIRECTION('center_axis',(1.,0.,-6.93889390390723E-15));
#813=DIRECTION('ref_axis',(-6.93889390390723E-15,0.,-1.));
#814=DIRECTION('',(-6.93889390390723E-15,0.,-1.));
#815=DIRECTION('center_axis',(0.,1.,0.));
#816=DIRECTION('ref_axis',(0.,0.,1.));
#817=DIRECTION('center_axis',(0.,1.,0.));
#818=DIRECTION('ref_axis',(0.979795897113271,0.,-0.2));
#819=DIRECTION('center_axis',(0.,1.,0.));
#820=DIRECTION('ref_axis',(0.979795897113271,0.,-0.2));
#821=DIRECTION('',(0.,1.,0.));
#822=DIRECTION('center_axis',(0.,-1.,0.));
#823=DIRECTION('ref_axis',(0.979795897113271,0.,-0.2));
#824=DIRECTION('',(0.,1.,0.));
#825=DIRECTION('center_axis',(0.,0.,-1.));
#826=DIRECTION('ref_axis',(-1.,0.,0.));
#827=DIRECTION('',(1.,0.,0.));
#828=DIRECTION('',(0.,1.,0.));
#829=DIRECTION('',(-1.,0.,0.));
#830=DIRECTION('center_axis',(0.,-1.,0.));
#831=DIRECTION('ref_axis',(0.,0.,-1.));
#832=DIRECTION('',(-1.,0.,0.));
#833=DIRECTION('',(-7.70988211545248E-16,0.,-1.));
#834=DIRECTION('',(1.,0.,0.));
#835=DIRECTION('',(0.,0.,1.));
#836=DIRECTION('',(-1.,0.,0.));
#837=DIRECTION('',(0.,0.,1.));
#838=DIRECTION('center_axis',(0.,-1.,0.));
#839=DIRECTION('ref_axis',(-1.,0.,0.));
#840=DIRECTION('',(1.,0.,0.));
#841=DIRECTION('',(0.,0.,1.));
#842=DIRECTION('',(-1.,0.,0.));
#843=DIRECTION('',(0.,0.,-1.));
#844=DIRECTION('center_axis',(1.,0.,0.));
#845=DIRECTION('ref_axis',(0.,-1.,0.));
#846=DIRECTION('',(0.,1.,0.));
#847=DIRECTION('',(0.,-1.,0.));
#848=DIRECTION('',(0.,0.,-1.));
#849=DIRECTION('center_axis',(0.,1.,0.));
#850=DIRECTION('ref_axis',(1.,0.,0.));
#851=DIRECTION('',(-1.,0.,0.));
#852=DIRECTION('',(1.,0.,0.));
#853=DIRECTION('',(0.,0.,-1.));
#854=DIRECTION('center_axis',(1.,0.,0.));
#855=DIRECTION('ref_axis',(0.,0.,-1.));
#856=DIRECTION('',(0.,-1.,0.));
#857=DIRECTION('',(0.,1.,0.));
#858=DIRECTION('center_axis',(1.,0.,0.));
#859=DIRECTION('ref_axis',(0.,0.,-1.));
#860=DIRECTION('',(0.,1.,0.));
#861=DIRECTION('',(0.,0.,-1.));
#862=DIRECTION('',(0.,-1.,0.));
#863=DIRECTION('center_axis',(0.,0.,1.));
#864=DIRECTION('ref_axis',(1.,0.,0.));
#865=DIRECTION('',(1.,0.,0.));
#866=DIRECTION('',(0.,1.,0.));
#867=DIRECTION('center_axis',(1.,0.,0.));
#868=DIRECTION('ref_axis',(0.,0.,-1.));
#869=DIRECTION('',(0.,0.,-1.));
#870=DIRECTION('center_axis',(0.,0.,1.));
#871=DIRECTION('ref_axis',(1.,0.,0.));
#872=DIRECTION('',(1.,0.,0.));
#873=DIRECTION('',(0.,1.,0.));
#874=DIRECTION('center_axis',(-1.,0.,7.70988211545248E-16));
#875=DIRECTION('ref_axis',(7.70988211545248E-16,0.,1.));
#876=DIRECTION('',(7.70988211545248E-16,0.,1.));
#877=DIRECTION('',(0.,1.,0.));
#878=DIRECTION('center_axis',(0.,0.,-1.));
#879=DIRECTION('ref_axis',(-1.,0.,0.));
#880=DIRECTION('',(-1.,0.,0.));
#881=DIRECTION('center_axis',(0.,1.,0.));
#882=DIRECTION('ref_axis',(0.,0.,1.));
#883=DIRECTION('center_axis',(0.,1.,0.));
#884=DIRECTION('ref_axis',(-0.685777427455798,0.,-0.727811321698219));
#885=DIRECTION('center_axis',(0.,-1.,0.));
#886=DIRECTION('ref_axis',(-0.685777427455798,0.,-0.727811321698219));
#887=DIRECTION('',(0.,1.,0.));
#888=DIRECTION('center_axis',(0.,1.,0.));
#889=DIRECTION('ref_axis',(-0.685777427455798,0.,-0.727811321698219));
#890=DIRECTION('',(0.,-1.,0.));
#891=DIRECTION('center_axis',(0.,0.,1.));
#892=DIRECTION('ref_axis',(1.,0.,0.));
#893=DIRECTION('',(-1.,0.,0.));
#894=DIRECTION('',(0.,1.,0.));
#895=DIRECTION('',(1.,0.,0.));
#896=DIRECTION('center_axis',(0.,1.,0.));
#897=DIRECTION('ref_axis',(0.685777427455799,0.,-0.727811321698218));
#898=DIRECTION('center_axis',(0.,-1.,0.));
#899=DIRECTION('ref_axis',(0.685777427455799,0.,-0.727811321698218));
#900=DIRECTION('',(0.,1.,0.));
#901=DIRECTION('center_axis',(0.,1.,0.));
#902=DIRECTION('ref_axis',(0.685777427455799,0.,-0.727811321698218));
#903=DIRECTION('',(0.,-1.,0.));
#904=DIRECTION('center_axis',(-0.998233151734817,0.,0.0594186399842137));
#905=DIRECTION('ref_axis',(0.0594186399842137,0.,0.998233151734817));
#906=DIRECTION('',(-0.0594186399842137,0.,-0.998233151734817));
#907=DIRECTION('',(0.,-1.,0.));
#908=DIRECTION('',(0.0594186399842137,0.,0.998233151734817));
#909=DIRECTION('center_axis',(0.,-1.,0.));
#910=DIRECTION('ref_axis',(-0.685777427455799,0.,0.727811321698218));
#911=DIRECTION('center_axis',(0.,1.,0.));
#912=DIRECTION('ref_axis',(-0.685777427455799,0.,0.727811321698218));
#913=DIRECTION('',(0.,1.,0.));
#914=DIRECTION('center_axis',(0.,-1.,0.));
#915=DIRECTION('ref_axis',(-0.685777427455799,0.,0.727811321698218));
#916=DIRECTION('center_axis',(0.,0.,1.));
#917=DIRECTION('ref_axis',(1.,0.,0.));
#918=DIRECTION('',(-1.,0.,0.));
#919=DIRECTION('',(0.,-1.,0.));
#920=DIRECTION('',(1.,0.,0.));
#921=DIRECTION('center_axis',(0.,-1.,0.));
#922=DIRECTION('ref_axis',(0.,0.,-1.));
#923=DIRECTION('',(-1.,0.,0.));
#924=DIRECTION('',(0.,0.,-1.));
#925=DIRECTION('',(1.,0.,0.));
#926=DIRECTION('',(6.93889390390723E-15,0.,1.));
#927=DIRECTION('',(-0.0594186399842154,0.,0.998233151734817));
#928=DIRECTION('center_axis',(0.,1.,0.));
#929=DIRECTION('ref_axis',(0.685777427455798,0.,0.727811321698219));
#930=DIRECTION('center_axis',(0.,1.,0.));
#931=DIRECTION('ref_axis',(0.685777427455798,0.,0.727811321698219));
#932=DIRECTION('center_axis',(0.,-1.,0.));
#933=DIRECTION('ref_axis',(0.685777427455798,0.,0.727811321698219));
#934=DIRECTION('',(0.,1.,0.));
#935=DIRECTION('center_axis',(0.998233151734817,0.,0.0594186399842154));
#936=DIRECTION('ref_axis',(0.0594186399842154,0.,-0.998233151734817));
#937=DIRECTION('',(0.0594186399842154,0.,-0.998233151734817));
#938=DIRECTION('center_axis',(0.,0.,1.));
#939=DIRECTION('ref_axis',(1.,0.,0.));
#940=DIRECTION('',(1.,0.,0.));
#941=DIRECTION('',(0.,1.,0.));
#942=DIRECTION('center_axis',(-1.,0.,0.));
#943=DIRECTION('ref_axis',(0.,0.,1.));
#944=DIRECTION('',(0.,0.,1.));
#945=DIRECTION('',(0.,1.,0.));
#946=DIRECTION('center_axis',(0.,0.,-1.));
#947=DIRECTION('ref_axis',(-1.,0.,0.));
#948=DIRECTION('',(-1.,0.,0.));
#949=DIRECTION('',(0.,1.,0.));
#950=DIRECTION('center_axis',(1.,0.,-6.93889390390723E-15));
#951=DIRECTION('ref_axis',(-6.93889390390723E-15,0.,-1.));
#952=DIRECTION('',(-6.93889390390723E-15,0.,-1.));
#953=DIRECTION('center_axis',(0.,1.,0.));
#954=DIRECTION('ref_axis',(0.,0.,1.));
#955=CARTESIAN_POINT('',(0.,0.,0.));
#956=CARTESIAN_POINT('Origin',(0.673989794855664,0.,0.19));
#957=CARTESIAN_POINT('',(0.625000000000001,0.4,0.18));
#958=CARTESIAN_POINT('',(0.673989794855665,0.4,0.14));
#959=CARTESIAN_POINT('Origin',(0.673989794855664,0.4,0.19));
#960=CARTESIAN_POINT('',(0.673989794855665,-0.4,0.14));
#961=CARTESIAN_POINT('',(0.673989794855664,0.,0.14));
#962=CARTESIAN_POINT('',(0.625000000000001,-0.4,0.18));
#963=CARTESIAN_POINT('Origin',(0.673989794855664,-0.4,0.19));
#964=CARTESIAN_POINT('',(0.625000000000001,0.,0.18));
#965=CARTESIAN_POINT('Origin',(0.645000000000001,-0.4,0.09));
#966=CARTESIAN_POINT('',(0.850000000000001,-0.4,0.14));
#967=CARTESIAN_POINT('',(-0.85,-0.4,0.14));
#968=CARTESIAN_POINT('',(0.85,-0.4,0.04));
#969=CARTESIAN_POINT('',(0.850000000000001,-0.4,0.14));
#970=CARTESIAN_POINT('',(0.4,-0.4,0.04));
#971=CARTESIAN_POINT('',(0.85,-0.4,0.04));
#972=CARTESIAN_POINT('',(0.4,-0.4,0.));
#973=CARTESIAN_POINT('',(0.4,-0.4,0.04));
#974=CARTESIAN_POINT('',(0.89,-0.4,0.));
#975=CARTESIAN_POINT('',(0.89,-0.4,0.));
#976=CARTESIAN_POINT('',(0.890000000000001,-0.4,0.18));
#977=CARTESIAN_POINT('',(0.890000000000001,-0.4,0.18));
#978=CARTESIAN_POINT('',(-0.89,-0.4,0.18));
#979=CARTESIAN_POINT('Origin',(0.625000000000001,0.,0.18));
#980=CARTESIAN_POINT('',(0.890000000000001,0.4,0.18));
#981=CARTESIAN_POINT('',(0.890000000000001,0.,0.18));
#982=CARTESIAN_POINT('',(-0.89,0.4,0.18));
#983=CARTESIAN_POINT('Origin',(0.850000000000001,0.,0.14));
#984=CARTESIAN_POINT('',(0.850000000000001,0.4,0.14));
#985=CARTESIAN_POINT('',(-0.85,0.4,0.14));
#986=CARTESIAN_POINT('',(0.850000000000001,0.,0.14));
#987=CARTESIAN_POINT('Origin',(0.85,0.,0.04));
#988=CARTESIAN_POINT('',(0.85,0.4,0.04));
#989=CARTESIAN_POINT('',(0.850000000000001,0.4,0.14));
#990=CARTESIAN_POINT('',(0.85,0.,0.04));
#991=CARTESIAN_POINT('Origin',(0.4,0.,0.04));
#992=CARTESIAN_POINT('',(0.4,0.4,0.04));
#993=CARTESIAN_POINT('',(0.85,0.4,0.04));
#994=CARTESIAN_POINT('',(0.4,0.,0.04));
#995=CARTESIAN_POINT('Origin',(0.4,0.,0.));
#996=CARTESIAN_POINT('',(0.4,0.4,0.));
#997=CARTESIAN_POINT('',(0.4,0.4,0.04));
#998=CARTESIAN_POINT('',(0.4,0.,0.));
#999=CARTESIAN_POINT('Origin',(0.89,0.,0.));
#1000=CARTESIAN_POINT('',(0.89,0.4,0.));
#1001=CARTESIAN_POINT('',(0.89,0.4,0.));
#1002=CARTESIAN_POINT('',(0.89,0.,0.));
#1003=CARTESIAN_POINT('Origin',(0.890000000000001,0.,0.18));
#1004=CARTESIAN_POINT('',(0.890000000000001,0.4,0.18));
#1005=CARTESIAN_POINT('Origin',(0.645000000000001,0.4,0.09));
#1006=CARTESIAN_POINT('Origin',(-0.673989794855663,0.,0.19));
#1007=CARTESIAN_POINT('',(-0.624999999999999,-0.4,0.18));
#1008=CARTESIAN_POINT('',(-0.673989794855663,-0.4,0.14));
#1009=CARTESIAN_POINT('Origin',(-0.673989794855663,-0.4,0.19));
#1010=CARTESIAN_POINT('',(-0.673989794855663,0.4,0.14));
#1011=CARTESIAN_POINT('',(-0.673989794855663,0.,0.14));
#1012=CARTESIAN_POINT('',(-0.624999999999999,0.4,0.18));
#1013=CARTESIAN_POINT('Origin',(-0.673989794855663,0.4,0.19));
#1014=CARTESIAN_POINT('',(-0.624999999999999,0.,0.18));
#1015=CARTESIAN_POINT('Origin',(-0.627380952380951,0.,0.14));
#1016=CARTESIAN_POINT('',(-0.85,-0.4,0.14));
#1017=CARTESIAN_POINT('',(-0.85,-0.4,0.14));
#1018=CARTESIAN_POINT('',(-0.85,0.4,0.14));
#1019=CARTESIAN_POINT('',(-0.85,0.,0.14));
#1020=CARTESIAN_POINT('',(-0.85,0.4,0.14));
#1021=CARTESIAN_POINT('Origin',(-0.645,-0.4,0.09));
#1022=CARTESIAN_POINT('',(-0.89,-0.4,0.18));
#1023=CARTESIAN_POINT('',(-0.89,-0.4,0.18));
#1024=CARTESIAN_POINT('',(-0.89,-0.4,0.));
#1025=CARTESIAN_POINT('',(-0.89,-0.4,0.));
#1026=CARTESIAN_POINT('',(-0.4,-0.4,0.));
#1027=CARTESIAN_POINT('',(0.89,-0.4,0.));
#1028=CARTESIAN_POINT('',(-0.4,-0.4,0.04));
#1029=CARTESIAN_POINT('',(-0.4,-0.4,0.04));
#1030=CARTESIAN_POINT('',(-0.85,-0.4,0.04));
#1031=CARTESIAN_POINT('',(0.85,-0.4,0.04));
#1032=CARTESIAN_POINT('',(-0.85,-0.4,0.04));
#1033=CARTESIAN_POINT('Origin',(-0.2,-0.125,0.04));
#1034=CARTESIAN_POINT('',(-0.4,-0.125,0.04));
#1035=CARTESIAN_POINT('',(-0.2,-0.125,0.04));
#1036=CARTESIAN_POINT('',(-0.4,-0.125,0.04));
#1037=CARTESIAN_POINT('',(-0.4,-0.125,0.));
#1038=CARTESIAN_POINT('',(-0.4,-0.125,0.04));
#1039=CARTESIAN_POINT('',(-0.2,-0.125,0.));
#1040=CARTESIAN_POINT('',(-0.4,-0.125,0.));
#1041=CARTESIAN_POINT('',(-0.2,-0.125,0.04));
#1042=CARTESIAN_POINT('Origin',(-0.2,0.125,0.04));
#1043=CARTESIAN_POINT('',(-0.2,0.125,0.04));
#1044=CARTESIAN_POINT('',(-0.2,-0.125,0.04));
#1045=CARTESIAN_POINT('',(-0.2,0.125,0.));
#1046=CARTESIAN_POINT('',(-0.2,-0.125,0.));
#1047=CARTESIAN_POINT('',(-0.2,0.125,0.04));
#1048=CARTESIAN_POINT('Origin',(-0.4,0.125,0.04));
#1049=CARTESIAN_POINT('',(-0.4,0.125,0.04));
#1050=CARTESIAN_POINT('',(-0.2,0.125,0.04));
#1051=CARTESIAN_POINT('',(-0.4,0.125,0.));
#1052=CARTESIAN_POINT('',(-0.2,0.125,0.));
#1053=CARTESIAN_POINT('',(-0.4,0.125,0.04));
#1054=CARTESIAN_POINT('Origin',(-0.4,0.,0.04));
#1055=CARTESIAN_POINT('',(-0.4,0.,0.04));
#1056=CARTESIAN_POINT('',(-0.4,0.,0.));
#1057=CARTESIAN_POINT('Origin',(-0.4,0.,0.04));
#1058=CARTESIAN_POINT('',(-0.4,0.4,0.));
#1059=CARTESIAN_POINT('',(-0.4,0.,0.));
#1060=CARTESIAN_POINT('',(-0.4,0.4,0.04));
#1061=CARTESIAN_POINT('',(-0.4,0.4,0.04));
#1062=CARTESIAN_POINT('',(-0.4,0.,0.04));
#1063=CARTESIAN_POINT('Origin',(-0.849999999999999,0.,0.04));
#1064=CARTESIAN_POINT('',(-0.85,0.4,0.04));
#1065=CARTESIAN_POINT('',(0.85,0.4,0.04));
#1066=CARTESIAN_POINT('',(-0.85,0.,0.04));
#1067=CARTESIAN_POINT('Origin',(-0.85,0.,0.14));
#1068=CARTESIAN_POINT('',(-0.85,0.4,0.04));
#1069=CARTESIAN_POINT('Origin',(-0.89,0.,0.18));
#1070=CARTESIAN_POINT('',(-0.89,0.4,0.18));
#1071=CARTESIAN_POINT('',(-0.89,0.4,0.18));
#1072=CARTESIAN_POINT('',(-0.89,0.,0.18));
#1073=CARTESIAN_POINT('Origin',(-0.89,0.,0.));
#1074=CARTESIAN_POINT('',(-0.89,0.4,0.));
#1075=CARTESIAN_POINT('',(-0.89,0.4,0.));
#1076=CARTESIAN_POINT('',(-0.89,0.,0.));
#1077=CARTESIAN_POINT('Origin',(-0.4,0.,0.));
#1078=CARTESIAN_POINT('',(0.89,0.4,0.));
#1079=CARTESIAN_POINT('Origin',(-0.645,0.4,0.09));
#1080=CARTESIAN_POINT('Origin',(0.674493260681933,0.,0.19));
#1081=CARTESIAN_POINT('',(0.624581603095192,-0.4,0.187029068000789));
#1082=CARTESIAN_POINT('',(0.674493260681933,-0.4,0.14));
#1083=CARTESIAN_POINT('Origin',(0.674493260681933,-0.4,0.19));
#1084=CARTESIAN_POINT('',(0.674493260681933,0.4,0.14));
#1085=CARTESIAN_POINT('',(0.674493260681933,0.,0.14));
#1086=CARTESIAN_POINT('',(0.624581603095192,0.4,0.187029068000789));
#1087=CARTESIAN_POINT('Origin',(0.674493260681933,0.4,0.19));
#1088=CARTESIAN_POINT('',(0.624581603095192,0.,0.187029068000789));
#1089=CARTESIAN_POINT('Origin',(0.627380952380953,0.,0.14));
#1090=CARTESIAN_POINT('',(0.850000000000001,-0.4,0.14));
#1091=CARTESIAN_POINT('',(-0.85,-0.4,0.14));
#1092=CARTESIAN_POINT('',(0.850000000000001,0.4,0.14));
#1093=CARTESIAN_POINT('',(0.850000000000001,0.,0.14));
#1094=CARTESIAN_POINT('',(-0.85,0.4,0.14));
#1095=CARTESIAN_POINT('Origin',(-0.674493260681931,0.,0.19));
#1096=CARTESIAN_POINT('',(-0.674493260681931,-0.4,0.14));
#1097=CARTESIAN_POINT('',(-0.62458160309519,-0.4,0.187029068000789));
#1098=CARTESIAN_POINT('Origin',(-0.674493260681931,-0.4,0.19));
#1099=CARTESIAN_POINT('',(-0.62458160309519,0.4,0.187029068000789));
#1100=CARTESIAN_POINT('',(-0.62458160309519,0.,0.187029068000789));
#1101=CARTESIAN_POINT('',(-0.674493260681931,0.4,0.14));
#1102=CARTESIAN_POINT('Origin',(-0.674493260681931,0.4,0.19));
#1103=CARTESIAN_POINT('',(-0.674493260681931,0.,0.14));
#1104=CARTESIAN_POINT('Origin',(-0.627380952380951,0.,0.14));
#1105=CARTESIAN_POINT('',(-0.605598698571522,-0.4,0.505941863998421));
#1106=CARTESIAN_POINT('',(-0.624999999999999,-0.4,0.18));
#1107=CARTESIAN_POINT('',(-0.605598698571522,0.4,0.505941863998421));
#1108=CARTESIAN_POINT('',(-0.605598698571522,0.,0.505941863998421));
#1109=CARTESIAN_POINT('',(-0.624999999999999,0.4,0.18));
#1110=CARTESIAN_POINT('Origin',(-0.505775383398041,0.,0.5));
#1111=CARTESIAN_POINT('',(-0.505775383398041,-0.4,0.6));
#1112=CARTESIAN_POINT('Origin',(-0.505775383398041,-0.4,0.5));
#1113=CARTESIAN_POINT('',(-0.505775383398041,0.4,0.6));
#1114=CARTESIAN_POINT('',(-0.505775383398041,0.,0.6));
#1115=CARTESIAN_POINT('Origin',(-0.505775383398041,0.4,0.5));
#1116=CARTESIAN_POINT('Origin',(-0.599999999999999,0.,0.6));
#1117=CARTESIAN_POINT('',(0.505775383398042,-0.4,0.6));
#1118=CARTESIAN_POINT('',(-0.599999999999999,-0.4,0.6));
#1119=CARTESIAN_POINT('',(0.505775383398042,0.4,0.6));
#1120=CARTESIAN_POINT('',(0.505775383398042,0.,0.6));
#1121=CARTESIAN_POINT('',(-0.599999999999999,0.4,0.6));
#1122=CARTESIAN_POINT('Origin',(5.55111512312578E-16,-0.4,0.32));
#1123=CARTESIAN_POINT('',(-0.85,-0.4,0.14));
#1124=CARTESIAN_POINT('',(-0.85,-0.4,0.14));
#1125=CARTESIAN_POINT('',(-0.85,-0.4,0.04));
#1126=CARTESIAN_POINT('',(-0.85,-0.4,0.04));
#1127=CARTESIAN_POINT('',(0.85,-0.4,0.04));
#1128=CARTESIAN_POINT('',(0.85,-0.4,0.04));
#1129=CARTESIAN_POINT('',(0.850000000000001,-0.4,0.14));
#1130=CARTESIAN_POINT('',(0.605598698571523,-0.4,0.505941863998421));
#1131=CARTESIAN_POINT('',(0.600000000000001,-0.4,0.6));
#1132=CARTESIAN_POINT('Origin',(0.505775383398042,-0.4,0.5));
#1133=CARTESIAN_POINT('Origin',(0.505775383398042,0.,0.5));
#1134=CARTESIAN_POINT('',(0.605598698571523,0.4,0.505941863998421));
#1135=CARTESIAN_POINT('Origin',(0.505775383398042,0.4,0.5));
#1136=CARTESIAN_POINT('',(0.605598698571523,0.,0.505941863998421));
#1137=CARTESIAN_POINT('Origin',(0.600000000000001,0.,0.6));
#1138=CARTESIAN_POINT('',(0.600000000000001,0.4,0.6));
#1139=CARTESIAN_POINT('Origin',(-0.85,0.,0.14));
#1140=CARTESIAN_POINT('',(-0.85,0.4,0.14));
#1141=CARTESIAN_POINT('',(-0.85,0.4,0.14));
#1142=CARTESIAN_POINT('',(-0.85,0.,0.14));
#1143=CARTESIAN_POINT('Origin',(-0.85,0.,0.04));
#1144=CARTESIAN_POINT('',(-0.85,0.4,0.04));
#1145=CARTESIAN_POINT('',(-0.85,0.4,0.04));
#1146=CARTESIAN_POINT('',(-0.85,0.,0.04));
#1147=CARTESIAN_POINT('Origin',(0.85,0.,0.04));
#1148=CARTESIAN_POINT('',(0.85,0.4,0.04));
#1149=CARTESIAN_POINT('',(0.85,0.4,0.04));
#1150=CARTESIAN_POINT('',(0.85,0.,0.04));
#1151=CARTESIAN_POINT('Origin',(0.850000000000001,0.,0.14));
#1152=CARTESIAN_POINT('',(0.850000000000001,0.4,0.14));
#1153=CARTESIAN_POINT('Origin',(5.55111512312578E-16,0.4,0.32));
#1154=UNCERTAINTY_MEASURE_WITH_UNIT(LENGTH_MEASURE(0.01),#1158,
'DISTANCE_ACCURACY_VALUE',
'Maximum model space distance between geometric entities at asserted c
onnectivities');
#1155=UNCERTAINTY_MEASURE_WITH_UNIT(LENGTH_MEASURE(0.01),#1158,
'DISTANCE_ACCURACY_VALUE',
'Maximum model space distance between geometric entities at asserted c
onnectivities');
#1156=(
GEOMETRIC_REPRESENTATION_CONTEXT(3)
GLOBAL_UNCERTAINTY_ASSIGNED_CONTEXT((#1154))
GLOBAL_UNIT_ASSIGNED_CONTEXT((#1158,#1160,#1161))
REPRESENTATION_CONTEXT('','3D')
);
#1157=(
GEOMETRIC_REPRESENTATION_CONTEXT(3)
GLOBAL_UNCERTAINTY_ASSIGNED_CONTEXT((#1155))
GLOBAL_UNIT_ASSIGNED_CONTEXT((#1158,#1160,#1161))
REPRESENTATION_CONTEXT('','3D')
);
#1158=(
LENGTH_UNIT()
NAMED_UNIT(*)
SI_UNIT(.MILLI.,.METRE.)
);
#1159=(
LENGTH_UNIT()
NAMED_UNIT(*)
SI_UNIT($,.METRE.)
);
#1160=(
NAMED_UNIT(*)
PLANE_ANGLE_UNIT()
SI_UNIT($,.RADIAN.)
);
#1161=(
NAMED_UNIT(*)
SI_UNIT($,.STERADIAN.)
SOLID_ANGLE_UNIT()
);
#1162=SHAPE_DEFINITION_REPRESENTATION(#1163,#1164);
#1163=PRODUCT_DEFINITION_SHAPE('',$,#1166);
#1164=SHAPE_REPRESENTATION('',(#718),#1156);
#1165=PRODUCT_DEFINITION_CONTEXT('part definition',#1170,'design');
#1166=PRODUCT_DEFINITION('LED_0603_1608Metric','LED_0603_1608Metric v1',
#1167,#1165);
#1167=PRODUCT_DEFINITION_FORMATION('',$,#1172);
#1168=PRODUCT_RELATED_PRODUCT_CATEGORY('LED_0603_1608Metric v1',
'LED_0603_1608Metric v1',(#1172));
#1169=APPLICATION_PROTOCOL_DEFINITION('international standard',
'automotive_design',2009,#1170);
#1170=APPLICATION_CONTEXT(
'Core Data for Automotive Mechanical Design Process');
#1171=PRODUCT_CONTEXT('part definition',#1170,'mechanical');
#1172=PRODUCT('LED_0603_1608Metric','LED_0603_1608Metric v1',
'model of LED_0603_1608Metric',(#1171));
#1173=PRESENTATION_STYLE_ASSIGNMENT((#1176));
#1174=PRESENTATION_STYLE_ASSIGNMENT((#1177));
#1175=PRESENTATION_STYLE_ASSIGNMENT((#1178));
#1176=SURFACE_STYLE_USAGE(.BOTH.,#1179);
#1177=SURFACE_STYLE_USAGE(.BOTH.,#1180);
#1178=SURFACE_STYLE_USAGE(.BOTH.,#1181);
#1179=SURFACE_SIDE_STYLE('',(#1182));
#1180=SURFACE_SIDE_STYLE('',(#1183));
#1181=SURFACE_SIDE_STYLE('',(#1184));
#1182=SURFACE_STYLE_FILL_AREA(#1185);
#1183=SURFACE_STYLE_FILL_AREA(#1186);
#1184=SURFACE_STYLE_FILL_AREA(#1187);
#1185=FILL_AREA_STYLE('Steel - Satin',(#1188));
#1186=FILL_AREA_STYLE('Opaque(219,188,126)',(#1189));
#1187=FILL_AREA_STYLE('Opaque(228,227,207)',(#1190));
#1188=FILL_AREA_STYLE_COLOUR('Steel - Satin',#1191);
#1189=FILL_AREA_STYLE_COLOUR('Opaque(219,188,126)',#1192);
#1190=FILL_AREA_STYLE_COLOUR('Opaque(228,227,207)',#1193);
#1191=COLOUR_RGB('Steel - Satin',0.627450980392157,0.627450980392157,0.627450980392157);
#1192=COLOUR_RGB('Opaque(219,188,126)',0.858823529411765,0.737254901960784,
0.494117647058824);
#1193=COLOUR_RGB('Opaque(228,227,207)',0.894117647058824,0.890196078431372,
0.811764705882353);
ENDSEC;
END-ISO-10303-21;
