ISO-10303-21;
HEADER;
/* Generated by software containing ST-Developer
 * from STEP Tools, Inc. (www.steptools.com) 
 */

FILE_DESCRIPTION(
/* description */ ('model of LGA-12_2x2mm_P0.5mm'),
/* implementation_level */ '2;1');

FILE_NAME(
/* name */ 'LGA-12_2x2mm_P0.5mm.step',
/* time_stamp */ '2026-08-24T07:06:52+02:00',
/* author */ (''),
/* organization */ (''),
/* preprocessor_version */ 'ST-DEVELOPER v20.1',
/* originating_system */ 'Autodesk Translation Framework v15.8.0.0',
/* authorisation */ '');

FILE_SCHEMA (('AUTOMOTIVE_DESIGN { 1 0 10303 214 3 1 1 }'));
ENDSEC;

DATA;
#10=MECHANICAL_DESIGN_GEOMETRIC_PRESENTATION_REPRESENTATION('',(#1143,#1144,
#1145,#1146,#1147,#1148,#1149,#1150,#1151,#1152,#1153,#1154,#1155,#1156,
#1157,#1158,#1159,#1160,#1161,#1162,#1163,#1164,#1165,#1166,#1167,#1168,
#1169,#1170,#1171,#1172,#1173,#1174,#1175,#1176,#1177,#1178,#1179,#1180,
#1181,#1182,#1183,#1184,#1185,#1186,#1187,#1188,#1189,#1190,#1191,#1192,
#1193,#1194,#1195,#1196,#1197,#1198,#1199,#1200,#1201,#1202,#1203,#1204,
#1205,#1206,#1207,#1208,#1209,#1210,#1211),#2000);
#11=SHAPE_REPRESENTATION_RELATIONSHIP('SRR','None',#2007,#12);
#12=ADVANCED_BREP_SHAPE_REPRESENTATION('',(#13),#1999);
#13=MANIFOLD_SOLID_BREP('Body1',#1280);
#14=CYLINDRICAL_SURFACE('',#1363,0.175);
#15=FACE_BOUND('',#99,.T.);
#16=FACE_BOUND('',#109,.T.);
#17=FACE_BOUND('',#110,.T.);
#18=FACE_BOUND('',#111,.T.);
#19=FACE_BOUND('',#112,.T.);
#20=FACE_BOUND('',#113,.T.);
#21=FACE_BOUND('',#114,.T.);
#22=FACE_BOUND('',#115,.T.);
#23=FACE_BOUND('',#116,.T.);
#24=FACE_BOUND('',#117,.T.);
#25=FACE_BOUND('',#118,.T.);
#26=FACE_BOUND('',#119,.T.);
#27=FACE_BOUND('',#120,.T.);
#28=CIRCLE('',#1295,0.175);
#29=CIRCLE('',#1299,0.175);
#30=FACE_OUTER_BOUND('',#98,.T.);
#31=FACE_OUTER_BOUND('',#100,.T.);
#32=FACE_OUTER_BOUND('',#101,.T.);
#33=FACE_OUTER_BOUND('',#102,.T.);
#34=FACE_OUTER_BOUND('',#103,.T.);
#35=FACE_OUTER_BOUND('',#104,.T.);
#36=FACE_OUTER_BOUND('',#105,.T.);
#37=FACE_OUTER_BOUND('',#106,.T.);
#38=FACE_OUTER_BOUND('',#107,.T.);
#39=FACE_OUTER_BOUND('',#108,.T.);
#40=FACE_OUTER_BOUND('',#121,.T.);
#41=FACE_OUTER_BOUND('',#122,.T.);
#42=FACE_OUTER_BOUND('',#123,.T.);
#43=FACE_OUTER_BOUND('',#124,.T.);
#44=FACE_OUTER_BOUND('',#125,.T.);
#45=FACE_OUTER_BOUND('',#126,.T.);
#46=FACE_OUTER_BOUND('',#127,.T.);
#47=FACE_OUTER_BOUND('',#128,.T.);
#48=FACE_OUTER_BOUND('',#129,.T.);
#49=FACE_OUTER_BOUND('',#130,.T.);
#50=FACE_OUTER_BOUND('',#131,.T.);
#51=FACE_OUTER_BOUND('',#132,.T.);
#52=FACE_OUTER_BOUND('',#133,.T.);
#53=FACE_OUTER_BOUND('',#134,.T.);
#54=FACE_OUTER_BOUND('',#135,.T.);
#55=FACE_OUTER_BOUND('',#136,.T.);
#56=FACE_OUTER_BOUND('',#137,.T.);
#57=FACE_OUTER_BOUND('',#138,.T.);
#58=FACE_OUTER_BOUND('',#139,.T.);
#59=FACE_OUTER_BOUND('',#140,.T.);
#60=FACE_OUTER_BOUND('',#141,.T.);
#61=FACE_OUTER_BOUND('',#142,.T.);
#62=FACE_OUTER_BOUND('',#143,.T.);
#63=FACE_OUTER_BOUND('',#144,.T.);
#64=FACE_OUTER_BOUND('',#145,.T.);
#65=FACE_OUTER_BOUND('',#146,.T.);
#66=FACE_OUTER_BOUND('',#147,.T.);
#67=FACE_OUTER_BOUND('',#148,.T.);
#68=FACE_OUTER_BOUND('',#149,.T.);
#69=FACE_OUTER_BOUND('',#150,.T.);
#70=FACE_OUTER_BOUND('',#151,.T.);
#71=FACE_OUTER_BOUND('',#152,.T.);
#72=FACE_OUTER_BOUND('',#153,.T.);
#73=FACE_OUTER_BOUND('',#154,.T.);
#74=FACE_OUTER_BOUND('',#155,.T.);
#75=FACE_OUTER_BOUND('',#156,.T.);
#76=FACE_OUTER_BOUND('',#157,.T.);
#77=FACE_OUTER_BOUND('',#158,.T.);
#78=FACE_OUTER_BOUND('',#159,.T.);
#79=FACE_OUTER_BOUND('',#160,.T.);
#80=FACE_OUTER_BOUND('',#161,.T.);
#81=FACE_OUTER_BOUND('',#162,.T.);
#82=FACE_OUTER_BOUND('',#163,.T.);
#83=FACE_OUTER_BOUND('',#164,.T.);
#84=FACE_OUTER_BOUND('',#165,.T.);
#85=FACE_OUTER_BOUND('',#166,.T.);
#86=FACE_OUTER_BOUND('',#167,.T.);
#87=FACE_OUTER_BOUND('',#168,.T.);
#88=FACE_OUTER_BOUND('',#169,.T.);
#89=FACE_OUTER_BOUND('',#170,.T.);
#90=FACE_OUTER_BOUND('',#171,.T.);
#91=FACE_OUTER_BOUND('',#172,.T.);
#92=FACE_OUTER_BOUND('',#173,.T.);
#93=FACE_OUTER_BOUND('',#174,.T.);
#94=FACE_OUTER_BOUND('',#175,.T.);
#95=FACE_OUTER_BOUND('',#176,.T.);
#96=FACE_OUTER_BOUND('',#177,.T.);
#97=FACE_OUTER_BOUND('',#178,.T.);
#98=EDGE_LOOP('',(#758,#759,#760,#761));
#99=EDGE_LOOP('',(#762));
#100=EDGE_LOOP('',(#763,#764,#765,#766));
#101=EDGE_LOOP('',(#767,#768,#769,#770));
#102=EDGE_LOOP('',(#771));
#103=EDGE_LOOP('',(#772,#773,#774,#775));
#104=EDGE_LOOP('',(#776,#777,#778,#779));
#105=EDGE_LOOP('',(#780,#781,#782,#783));
#106=EDGE_LOOP('',(#784,#785,#786,#787));
#107=EDGE_LOOP('',(#788,#789,#790,#791));
#108=EDGE_LOOP('',(#792,#793,#794,#795));
#109=EDGE_LOOP('',(#796,#797,#798,#799));
#110=EDGE_LOOP('',(#800,#801,#802,#803));
#111=EDGE_LOOP('',(#804,#805,#806,#807));
#112=EDGE_LOOP('',(#808,#809,#810,#811));
#113=EDGE_LOOP('',(#812,#813,#814,#815));
#114=EDGE_LOOP('',(#816,#817,#818,#819));
#115=EDGE_LOOP('',(#820,#821,#822,#823));
#116=EDGE_LOOP('',(#824,#825,#826,#827));
#117=EDGE_LOOP('',(#828,#829,#830,#831));
#118=EDGE_LOOP('',(#832,#833,#834,#835));
#119=EDGE_LOOP('',(#836,#837,#838,#839));
#120=EDGE_LOOP('',(#840,#841,#842,#843));
#121=EDGE_LOOP('',(#844,#845,#846,#847));
#122=EDGE_LOOP('',(#848,#849,#850,#851));
#123=EDGE_LOOP('',(#852,#853,#854,#855));
#124=EDGE_LOOP('',(#856,#857,#858,#859));
#125=EDGE_LOOP('',(#860,#861,#862,#863));
#126=EDGE_LOOP('',(#864,#865,#866,#867));
#127=EDGE_LOOP('',(#868,#869,#870,#871));
#128=EDGE_LOOP('',(#872,#873,#874,#875));
#129=EDGE_LOOP('',(#876,#877,#878,#879));
#130=EDGE_LOOP('',(#880,#881,#882,#883));
#131=EDGE_LOOP('',(#884,#885,#886,#887));
#132=EDGE_LOOP('',(#888,#889,#890,#891));
#133=EDGE_LOOP('',(#892,#893,#894,#895));
#134=EDGE_LOOP('',(#896,#897,#898,#899));
#135=EDGE_LOOP('',(#900,#901,#902,#903));
#136=EDGE_LOOP('',(#904,#905,#906,#907));
#137=EDGE_LOOP('',(#908,#909,#910,#911));
#138=EDGE_LOOP('',(#912,#913,#914,#915));
#139=EDGE_LOOP('',(#916,#917,#918,#919));
#140=EDGE_LOOP('',(#920,#921,#922,#923));
#141=EDGE_LOOP('',(#924,#925,#926,#927));
#142=EDGE_LOOP('',(#928,#929,#930,#931));
#143=EDGE_LOOP('',(#932,#933,#934,#935));
#144=EDGE_LOOP('',(#936,#937,#938,#939));
#145=EDGE_LOOP('',(#940,#941,#942,#943));
#146=EDGE_LOOP('',(#944,#945,#946,#947));
#147=EDGE_LOOP('',(#948,#949,#950,#951));
#148=EDGE_LOOP('',(#952,#953,#954,#955));
#149=EDGE_LOOP('',(#956,#957,#958,#959));
#150=EDGE_LOOP('',(#960,#961,#962,#963));
#151=EDGE_LOOP('',(#964,#965,#966,#967));
#152=EDGE_LOOP('',(#968,#969,#970,#971));
#153=EDGE_LOOP('',(#972,#973,#974,#975));
#154=EDGE_LOOP('',(#976,#977,#978,#979));
#155=EDGE_LOOP('',(#980,#981,#982,#983));
#156=EDGE_LOOP('',(#984,#985,#986,#987));
#157=EDGE_LOOP('',(#988,#989,#990,#991));
#158=EDGE_LOOP('',(#992,#993,#994,#995));
#159=EDGE_LOOP('',(#996,#997,#998,#999));
#160=EDGE_LOOP('',(#1000,#1001,#1002,#1003));
#161=EDGE_LOOP('',(#1004,#1005,#1006,#1007));
#162=EDGE_LOOP('',(#1008,#1009,#1010,#1011));
#163=EDGE_LOOP('',(#1012,#1013,#1014,#1015));
#164=EDGE_LOOP('',(#1016,#1017,#1018,#1019));
#165=EDGE_LOOP('',(#1020,#1021,#1022,#1023));
#166=EDGE_LOOP('',(#1024,#1025,#1026,#1027));
#167=EDGE_LOOP('',(#1028,#1029,#1030,#1031));
#168=EDGE_LOOP('',(#1032,#1033,#1034,#1035));
#169=EDGE_LOOP('',(#1036,#1037,#1038,#1039));
#170=EDGE_LOOP('',(#1040,#1041,#1042,#1043));
#171=EDGE_LOOP('',(#1044,#1045,#1046,#1047));
#172=EDGE_LOOP('',(#1048,#1049,#1050,#1051));
#173=EDGE_LOOP('',(#1052,#1053,#1054,#1055));
#174=EDGE_LOOP('',(#1056,#1057,#1058,#1059));
#175=EDGE_LOOP('',(#1060,#1061,#1062,#1063));
#176=EDGE_LOOP('',(#1064,#1065,#1066,#1067));
#177=EDGE_LOOP('',(#1068,#1069,#1070,#1071));
#178=EDGE_LOOP('',(#1072,#1073,#1074,#1075));
#179=LINE('',#1667,#336);
#180=LINE('',#1669,#337);
#181=LINE('',#1671,#338);
#182=LINE('',#1672,#339);
#183=LINE('',#1677,#340);
#184=LINE('',#1679,#341);
#185=LINE('',#1680,#342);
#186=LINE('',#1683,#343);
#187=LINE('',#1684,#344);
#188=LINE('',#1691,#345);
#189=LINE('',#1693,#346);
#190=LINE('',#1695,#347);
#191=LINE('',#1696,#348);
#192=LINE('',#1699,#349);
#193=LINE('',#1701,#350);
#194=LINE('',#1702,#351);
#195=LINE('',#1705,#352);
#196=LINE('',#1706,#353);
#197=LINE('',#1709,#354);
#198=LINE('',#1710,#355);
#199=LINE('',#1712,#356);
#200=LINE('',#1715,#357);
#201=LINE('',#1716,#358);
#202=LINE('',#1719,#359);
#203=LINE('',#1721,#360);
#204=LINE('',#1723,#361);
#205=LINE('',#1724,#362);
#206=LINE('',#1727,#363);
#207=LINE('',#1729,#364);
#208=LINE('',#1731,#365);
#209=LINE('',#1732,#366);
#210=LINE('',#1735,#367);
#211=LINE('',#1737,#368);
#212=LINE('',#1739,#369);
#213=LINE('',#1740,#370);
#214=LINE('',#1743,#371);
#215=LINE('',#1745,#372);
#216=LINE('',#1747,#373);
#217=LINE('',#1748,#374);
#218=LINE('',#1751,#375);
#219=LINE('',#1753,#376);
#220=LINE('',#1755,#377);
#221=LINE('',#1756,#378);
#222=LINE('',#1759,#379);
#223=LINE('',#1761,#380);
#224=LINE('',#1763,#381);
#225=LINE('',#1764,#382);
#226=LINE('',#1767,#383);
#227=LINE('',#1769,#384);
#228=LINE('',#1771,#385);
#229=LINE('',#1772,#386);
#230=LINE('',#1775,#387);
#231=LINE('',#1777,#388);
#232=LINE('',#1779,#389);
#233=LINE('',#1780,#390);
#234=LINE('',#1783,#391);
#235=LINE('',#1785,#392);
#236=LINE('',#1787,#393);
#237=LINE('',#1788,#394);
#238=LINE('',#1791,#395);
#239=LINE('',#1793,#396);
#240=LINE('',#1795,#397);
#241=LINE('',#1796,#398);
#242=LINE('',#1799,#399);
#243=LINE('',#1801,#400);
#244=LINE('',#1803,#401);
#245=LINE('',#1804,#402);
#246=LINE('',#1806,#403);
#247=LINE('',#1811,#404);
#248=LINE('',#1812,#405);
#249=LINE('',#1813,#406);
#250=LINE('',#1816,#407);
#251=LINE('',#1817,#408);
#252=LINE('',#1820,#409);
#253=LINE('',#1821,#410);
#254=LINE('',#1823,#411);
#255=LINE('',#1827,#412);
#256=LINE('',#1828,#413);
#257=LINE('',#1829,#414);
#258=LINE('',#1832,#415);
#259=LINE('',#1833,#416);
#260=LINE('',#1836,#417);
#261=LINE('',#1837,#418);
#262=LINE('',#1839,#419);
#263=LINE('',#1843,#420);
#264=LINE('',#1844,#421);
#265=LINE('',#1845,#422);
#266=LINE('',#1848,#423);
#267=LINE('',#1849,#424);
#268=LINE('',#1852,#425);
#269=LINE('',#1853,#426);
#270=LINE('',#1855,#427);
#271=LINE('',#1859,#428);
#272=LINE('',#1860,#429);
#273=LINE('',#1861,#430);
#274=LINE('',#1864,#431);
#275=LINE('',#1865,#432);
#276=LINE('',#1868,#433);
#277=LINE('',#1869,#434);
#278=LINE('',#1871,#435);
#279=LINE('',#1875,#436);
#280=LINE('',#1876,#437);
#281=LINE('',#1877,#438);
#282=LINE('',#1880,#439);
#283=LINE('',#1881,#440);
#284=LINE('',#1884,#441);
#285=LINE('',#1885,#442);
#286=LINE('',#1887,#443);
#287=LINE('',#1891,#444);
#288=LINE('',#1892,#445);
#289=LINE('',#1893,#446);
#290=LINE('',#1896,#447);
#291=LINE('',#1897,#448);
#292=LINE('',#1900,#449);
#293=LINE('',#1901,#450);
#294=LINE('',#1903,#451);
#295=LINE('',#1907,#452);
#296=LINE('',#1908,#453);
#297=LINE('',#1909,#454);
#298=LINE('',#1912,#455);
#299=LINE('',#1913,#456);
#300=LINE('',#1916,#457);
#301=LINE('',#1917,#458);
#302=LINE('',#1919,#459);
#303=LINE('',#1923,#460);
#304=LINE('',#1924,#461);
#305=LINE('',#1925,#462);
#306=LINE('',#1928,#463);
#307=LINE('',#1929,#464);
#308=LINE('',#1932,#465);
#309=LINE('',#1933,#466);
#310=LINE('',#1935,#467);
#311=LINE('',#1939,#468);
#312=LINE('',#1940,#469);
#313=LINE('',#1941,#470);
#314=LINE('',#1944,#471);
#315=LINE('',#1945,#472);
#316=LINE('',#1948,#473);
#317=LINE('',#1949,#474);
#318=LINE('',#1951,#475);
#319=LINE('',#1955,#476);
#320=LINE('',#1956,#477);
#321=LINE('',#1957,#478);
#322=LINE('',#1960,#479);
#323=LINE('',#1961,#480);
#324=LINE('',#1964,#481);
#325=LINE('',#1965,#482);
#326=LINE('',#1967,#483);
#327=LINE('',#1971,#484);
#328=LINE('',#1972,#485);
#329=LINE('',#1973,#486);
#330=LINE('',#1976,#487);
#331=LINE('',#1977,#488);
#332=LINE('',#1980,#489);
#333=LINE('',#1981,#490);
#334=LINE('',#1983,#491);
#335=LINE('',#1996,#492);
#336=VECTOR('',#1368,10.);
#337=VECTOR('',#1369,10.);
#338=VECTOR('',#1370,10.);
#339=VECTOR('',#1371,10.);
#340=VECTOR('',#1376,1.);
#341=VECTOR('',#1377,1.);
#342=VECTOR('',#1378,1.);
#343=VECTOR('',#1381,1.);
#344=VECTOR('',#1382,1.);
#345=VECTOR('',#1389,1.);
#346=VECTOR('',#1390,1.);
#347=VECTOR('',#1391,1.);
#348=VECTOR('',#1392,1.);
#349=VECTOR('',#1395,1.);
#350=VECTOR('',#1396,1.);
#351=VECTOR('',#1397,1.);
#352=VECTOR('',#1400,1.);
#353=VECTOR('',#1401,1.);
#354=VECTOR('',#1404,1.);
#355=VECTOR('',#1405,1.);
#356=VECTOR('',#1408,1.);
#357=VECTOR('',#1411,1.);
#358=VECTOR('',#1412,1.);
#359=VECTOR('',#1413,1.);
#360=VECTOR('',#1414,1.);
#361=VECTOR('',#1415,1.);
#362=VECTOR('',#1416,1.);
#363=VECTOR('',#1417,1.);
#364=VECTOR('',#1418,1.);
#365=VECTOR('',#1419,1.);
#366=VECTOR('',#1420,1.);
#367=VECTOR('',#1421,1.);
#368=VECTOR('',#1422,1.);
#369=VECTOR('',#1423,1.);
#370=VECTOR('',#1424,1.);
#371=VECTOR('',#1425,1.);
#372=VECTOR('',#1426,1.);
#373=VECTOR('',#1427,1.);
#374=VECTOR('',#1428,1.);
#375=VECTOR('',#1429,1.);
#376=VECTOR('',#1430,1.);
#377=VECTOR('',#1431,1.);
#378=VECTOR('',#1432,1.);
#379=VECTOR('',#1433,1.);
#380=VECTOR('',#1434,1.);
#381=VECTOR('',#1435,1.);
#382=VECTOR('',#1436,1.);
#383=VECTOR('',#1437,1.);
#384=VECTOR('',#1438,1.);
#385=VECTOR('',#1439,1.);
#386=VECTOR('',#1440,1.);
#387=VECTOR('',#1441,1.);
#388=VECTOR('',#1442,1.);
#389=VECTOR('',#1443,1.);
#390=VECTOR('',#1444,1.);
#391=VECTOR('',#1445,1.);
#392=VECTOR('',#1446,1.);
#393=VECTOR('',#1447,1.);
#394=VECTOR('',#1448,1.);
#395=VECTOR('',#1449,1.);
#396=VECTOR('',#1450,1.);
#397=VECTOR('',#1451,1.);
#398=VECTOR('',#1452,1.);
#399=VECTOR('',#1453,1.);
#400=VECTOR('',#1454,1.);
#401=VECTOR('',#1455,1.);
#402=VECTOR('',#1456,1.);
#403=VECTOR('',#1459,1.);
#404=VECTOR('',#1464,1.);
#405=VECTOR('',#1465,1.);
#406=VECTOR('',#1466,1.);
#407=VECTOR('',#1469,1.);
#408=VECTOR('',#1470,1.);
#409=VECTOR('',#1473,1.);
#410=VECTOR('',#1474,1.);
#411=VECTOR('',#1477,1.);
#412=VECTOR('',#1480,1.);
#413=VECTOR('',#1481,1.);
#414=VECTOR('',#1482,1.);
#415=VECTOR('',#1485,1.);
#416=VECTOR('',#1486,1.);
#417=VECTOR('',#1489,1.);
#418=VECTOR('',#1490,1.);
#419=VECTOR('',#1493,1.);
#420=VECTOR('',#1496,1.);
#421=VECTOR('',#1497,1.);
#422=VECTOR('',#1498,1.);
#423=VECTOR('',#1501,1.);
#424=VECTOR('',#1502,1.);
#425=VECTOR('',#1505,1.);
#426=VECTOR('',#1506,1.);
#427=VECTOR('',#1509,1.);
#428=VECTOR('',#1512,1.);
#429=VECTOR('',#1513,1.);
#430=VECTOR('',#1514,1.);
#431=VECTOR('',#1517,1.);
#432=VECTOR('',#1518,1.);
#433=VECTOR('',#1521,1.);
#434=VECTOR('',#1522,1.);
#435=VECTOR('',#1525,1.);
#436=VECTOR('',#1528,1.);
#437=VECTOR('',#1529,1.);
#438=VECTOR('',#1530,1.);
#439=VECTOR('',#1533,1.);
#440=VECTOR('',#1534,1.);
#441=VECTOR('',#1537,1.);
#442=VECTOR('',#1538,1.);
#443=VECTOR('',#1541,1.);
#444=VECTOR('',#1544,1.);
#445=VECTOR('',#1545,1.);
#446=VECTOR('',#1546,1.);
#447=VECTOR('',#1549,1.);
#448=VECTOR('',#1550,1.);
#449=VECTOR('',#1553,1.);
#450=VECTOR('',#1554,1.);
#451=VECTOR('',#1557,1.);
#452=VECTOR('',#1560,1.);
#453=VECTOR('',#1561,1.);
#454=VECTOR('',#1562,1.);
#455=VECTOR('',#1565,1.);
#456=VECTOR('',#1566,1.);
#457=VECTOR('',#1569,1.);
#458=VECTOR('',#1570,1.);
#459=VECTOR('',#1573,1.);
#460=VECTOR('',#1576,1.);
#461=VECTOR('',#1577,1.);
#462=VECTOR('',#1578,1.);
#463=VECTOR('',#1581,1.);
#464=VECTOR('',#1582,1.);
#465=VECTOR('',#1585,1.);
#466=VECTOR('',#1586,1.);
#467=VECTOR('',#1589,1.);
#468=VECTOR('',#1592,1.);
#469=VECTOR('',#1593,1.);
#470=VECTOR('',#1594,1.);
#471=VECTOR('',#1597,1.);
#472=VECTOR('',#1598,1.);
#473=VECTOR('',#1601,1.);
#474=VECTOR('',#1602,1.);
#475=VECTOR('',#1605,1.);
#476=VECTOR('',#1608,1.);
#477=VECTOR('',#1609,1.);
#478=VECTOR('',#1610,1.);
#479=VECTOR('',#1613,1.);
#480=VECTOR('',#1614,1.);
#481=VECTOR('',#1617,1.);
#482=VECTOR('',#1618,1.);
#483=VECTOR('',#1621,1.);
#484=VECTOR('',#1624,1.);
#485=VECTOR('',#1625,1.);
#486=VECTOR('',#1626,1.);
#487=VECTOR('',#1629,1.);
#488=VECTOR('',#1630,1.);
#489=VECTOR('',#1633,1.);
#490=VECTOR('',#1634,1.);
#491=VECTOR('',#1637,1.);
#492=VECTOR('',#1662,0.175);
#493=VERTEX_POINT('',#1665);
#494=VERTEX_POINT('',#1666);
#495=VERTEX_POINT('',#1668);
#496=VERTEX_POINT('',#1670);
#497=VERTEX_POINT('',#1673);
#498=VERTEX_POINT('',#1676);
#499=VERTEX_POINT('',#1678);
#500=VERTEX_POINT('',#1682);
#501=VERTEX_POINT('',#1686);
#502=VERTEX_POINT('',#1689);
#503=VERTEX_POINT('',#1690);
#504=VERTEX_POINT('',#1692);
#505=VERTEX_POINT('',#1694);
#506=VERTEX_POINT('',#1698);
#507=VERTEX_POINT('',#1700);
#508=VERTEX_POINT('',#1704);
#509=VERTEX_POINT('',#1708);
#510=VERTEX_POINT('',#1714);
#511=VERTEX_POINT('',#1717);
#512=VERTEX_POINT('',#1718);
#513=VERTEX_POINT('',#1720);
#514=VERTEX_POINT('',#1722);
#515=VERTEX_POINT('',#1725);
#516=VERTEX_POINT('',#1726);
#517=VERTEX_POINT('',#1728);
#518=VERTEX_POINT('',#1730);
#519=VERTEX_POINT('',#1733);
#520=VERTEX_POINT('',#1734);
#521=VERTEX_POINT('',#1736);
#522=VERTEX_POINT('',#1738);
#523=VERTEX_POINT('',#1741);
#524=VERTEX_POINT('',#1742);
#525=VERTEX_POINT('',#1744);
#526=VERTEX_POINT('',#1746);
#527=VERTEX_POINT('',#1749);
#528=VERTEX_POINT('',#1750);
#529=VERTEX_POINT('',#1752);
#530=VERTEX_POINT('',#1754);
#531=VERTEX_POINT('',#1757);
#532=VERTEX_POINT('',#1758);
#533=VERTEX_POINT('',#1760);
#534=VERTEX_POINT('',#1762);
#535=VERTEX_POINT('',#1765);
#536=VERTEX_POINT('',#1766);
#537=VERTEX_POINT('',#1768);
#538=VERTEX_POINT('',#1770);
#539=VERTEX_POINT('',#1773);
#540=VERTEX_POINT('',#1774);
#541=VERTEX_POINT('',#1776);
#542=VERTEX_POINT('',#1778);
#543=VERTEX_POINT('',#1781);
#544=VERTEX_POINT('',#1782);
#545=VERTEX_POINT('',#1784);
#546=VERTEX_POINT('',#1786);
#547=VERTEX_POINT('',#1789);
#548=VERTEX_POINT('',#1790);
#549=VERTEX_POINT('',#1792);
#550=VERTEX_POINT('',#1794);
#551=VERTEX_POINT('',#1797);
#552=VERTEX_POINT('',#1798);
#553=VERTEX_POINT('',#1800);
#554=VERTEX_POINT('',#1802);
#555=VERTEX_POINT('',#1809);
#556=VERTEX_POINT('',#1810);
#557=VERTEX_POINT('',#1815);
#558=VERTEX_POINT('',#1819);
#559=VERTEX_POINT('',#1825);
#560=VERTEX_POINT('',#1826);
#561=VERTEX_POINT('',#1831);
#562=VERTEX_POINT('',#1835);
#563=VERTEX_POINT('',#1841);
#564=VERTEX_POINT('',#1842);
#565=VERTEX_POINT('',#1847);
#566=VERTEX_POINT('',#1851);
#567=VERTEX_POINT('',#1857);
#568=VERTEX_POINT('',#1858);
#569=VERTEX_POINT('',#1863);
#570=VERTEX_POINT('',#1867);
#571=VERTEX_POINT('',#1873);
#572=VERTEX_POINT('',#1874);
#573=VERTEX_POINT('',#1879);
#574=VERTEX_POINT('',#1883);
#575=VERTEX_POINT('',#1889);
#576=VERTEX_POINT('',#1890);
#577=VERTEX_POINT('',#1895);
#578=VERTEX_POINT('',#1899);
#579=VERTEX_POINT('',#1905);
#580=VERTEX_POINT('',#1906);
#581=VERTEX_POINT('',#1911);
#582=VERTEX_POINT('',#1915);
#583=VERTEX_POINT('',#1921);
#584=VERTEX_POINT('',#1922);
#585=VERTEX_POINT('',#1927);
#586=VERTEX_POINT('',#1931);
#587=VERTEX_POINT('',#1937);
#588=VERTEX_POINT('',#1938);
#589=VERTEX_POINT('',#1943);
#590=VERTEX_POINT('',#1947);
#591=VERTEX_POINT('',#1953);
#592=VERTEX_POINT('',#1954);
#593=VERTEX_POINT('',#1959);
#594=VERTEX_POINT('',#1963);
#595=VERTEX_POINT('',#1969);
#596=VERTEX_POINT('',#1970);
#597=VERTEX_POINT('',#1975);
#598=VERTEX_POINT('',#1979);
#599=EDGE_CURVE('',#493,#494,#179,.T.);
#600=EDGE_CURVE('',#495,#493,#180,.T.);
#601=EDGE_CURVE('',#496,#495,#181,.T.);
#602=EDGE_CURVE('',#494,#496,#182,.T.);
#603=EDGE_CURVE('',#497,#497,#28,.T.);
#604=EDGE_CURVE('',#498,#493,#183,.T.);
#605=EDGE_CURVE('',#498,#499,#184,.T.);
#606=EDGE_CURVE('',#499,#495,#185,.T.);
#607=EDGE_CURVE('',#500,#494,#186,.T.);
#608=EDGE_CURVE('',#498,#500,#187,.T.);
#609=EDGE_CURVE('',#501,#501,#29,.T.);
#610=EDGE_CURVE('',#502,#503,#188,.T.);
#611=EDGE_CURVE('',#504,#502,#189,.T.);
#612=EDGE_CURVE('',#505,#504,#190,.T.);
#613=EDGE_CURVE('',#503,#505,#191,.T.);
#614=EDGE_CURVE('',#503,#506,#192,.T.);
#615=EDGE_CURVE('',#506,#507,#193,.T.);
#616=EDGE_CURVE('',#502,#507,#194,.T.);
#617=EDGE_CURVE('',#505,#508,#195,.T.);
#618=EDGE_CURVE('',#508,#506,#196,.T.);
#619=EDGE_CURVE('',#504,#509,#197,.T.);
#620=EDGE_CURVE('',#509,#508,#198,.T.);
#621=EDGE_CURVE('',#507,#509,#199,.T.);
#622=EDGE_CURVE('',#500,#510,#200,.T.);
#623=EDGE_CURVE('',#499,#510,#201,.T.);
#624=EDGE_CURVE('',#511,#512,#202,.T.);
#625=EDGE_CURVE('',#513,#511,#203,.T.);
#626=EDGE_CURVE('',#514,#513,#204,.T.);
#627=EDGE_CURVE('',#512,#514,#205,.T.);
#628=EDGE_CURVE('',#515,#516,#206,.T.);
#629=EDGE_CURVE('',#517,#515,#207,.T.);
#630=EDGE_CURVE('',#518,#517,#208,.T.);
#631=EDGE_CURVE('',#516,#518,#209,.T.);
#632=EDGE_CURVE('',#519,#520,#210,.T.);
#633=EDGE_CURVE('',#521,#519,#211,.T.);
#634=EDGE_CURVE('',#522,#521,#212,.T.);
#635=EDGE_CURVE('',#520,#522,#213,.T.);
#636=EDGE_CURVE('',#523,#524,#214,.T.);
#637=EDGE_CURVE('',#525,#523,#215,.T.);
#638=EDGE_CURVE('',#526,#525,#216,.T.);
#639=EDGE_CURVE('',#524,#526,#217,.T.);
#640=EDGE_CURVE('',#527,#528,#218,.T.);
#641=EDGE_CURVE('',#529,#527,#219,.T.);
#642=EDGE_CURVE('',#530,#529,#220,.T.);
#643=EDGE_CURVE('',#528,#530,#221,.T.);
#644=EDGE_CURVE('',#531,#532,#222,.T.);
#645=EDGE_CURVE('',#533,#531,#223,.T.);
#646=EDGE_CURVE('',#534,#533,#224,.T.);
#647=EDGE_CURVE('',#532,#534,#225,.T.);
#648=EDGE_CURVE('',#535,#536,#226,.T.);
#649=EDGE_CURVE('',#537,#535,#227,.T.);
#650=EDGE_CURVE('',#538,#537,#228,.T.);
#651=EDGE_CURVE('',#536,#538,#229,.T.);
#652=EDGE_CURVE('',#539,#540,#230,.T.);
#653=EDGE_CURVE('',#541,#539,#231,.T.);
#654=EDGE_CURVE('',#542,#541,#232,.T.);
#655=EDGE_CURVE('',#540,#542,#233,.T.);
#656=EDGE_CURVE('',#543,#544,#234,.T.);
#657=EDGE_CURVE('',#545,#543,#235,.T.);
#658=EDGE_CURVE('',#546,#545,#236,.T.);
#659=EDGE_CURVE('',#544,#546,#237,.T.);
#660=EDGE_CURVE('',#547,#548,#238,.T.);
#661=EDGE_CURVE('',#549,#547,#239,.T.);
#662=EDGE_CURVE('',#550,#549,#240,.T.);
#663=EDGE_CURVE('',#548,#550,#241,.T.);
#664=EDGE_CURVE('',#551,#552,#242,.T.);
#665=EDGE_CURVE('',#553,#551,#243,.T.);
#666=EDGE_CURVE('',#554,#553,#244,.T.);
#667=EDGE_CURVE('',#552,#554,#245,.T.);
#668=EDGE_CURVE('',#510,#496,#246,.T.);
#669=EDGE_CURVE('',#555,#556,#247,.T.);
#670=EDGE_CURVE('',#556,#511,#248,.T.);
#671=EDGE_CURVE('',#555,#512,#249,.T.);
#672=EDGE_CURVE('',#556,#557,#250,.T.);
#673=EDGE_CURVE('',#557,#513,#251,.T.);
#674=EDGE_CURVE('',#558,#555,#252,.T.);
#675=EDGE_CURVE('',#558,#514,#253,.T.);
#676=EDGE_CURVE('',#557,#558,#254,.T.);
#677=EDGE_CURVE('',#559,#560,#255,.T.);
#678=EDGE_CURVE('',#560,#515,#256,.T.);
#679=EDGE_CURVE('',#559,#516,#257,.T.);
#680=EDGE_CURVE('',#560,#561,#258,.T.);
#681=EDGE_CURVE('',#561,#517,#259,.T.);
#682=EDGE_CURVE('',#562,#559,#260,.T.);
#683=EDGE_CURVE('',#562,#518,#261,.T.);
#684=EDGE_CURVE('',#561,#562,#262,.T.);
#685=EDGE_CURVE('',#563,#564,#263,.T.);
#686=EDGE_CURVE('',#564,#519,#264,.T.);
#687=EDGE_CURVE('',#563,#520,#265,.T.);
#688=EDGE_CURVE('',#564,#565,#266,.T.);
#689=EDGE_CURVE('',#565,#521,#267,.T.);
#690=EDGE_CURVE('',#566,#563,#268,.T.);
#691=EDGE_CURVE('',#566,#522,#269,.T.);
#692=EDGE_CURVE('',#565,#566,#270,.T.);
#693=EDGE_CURVE('',#567,#568,#271,.T.);
#694=EDGE_CURVE('',#568,#523,#272,.T.);
#695=EDGE_CURVE('',#567,#524,#273,.T.);
#696=EDGE_CURVE('',#568,#569,#274,.T.);
#697=EDGE_CURVE('',#569,#525,#275,.T.);
#698=EDGE_CURVE('',#570,#567,#276,.T.);
#699=EDGE_CURVE('',#570,#526,#277,.T.);
#700=EDGE_CURVE('',#569,#570,#278,.T.);
#701=EDGE_CURVE('',#571,#572,#279,.T.);
#702=EDGE_CURVE('',#572,#527,#280,.T.);
#703=EDGE_CURVE('',#571,#528,#281,.T.);
#704=EDGE_CURVE('',#572,#573,#282,.T.);
#705=EDGE_CURVE('',#573,#529,#283,.T.);
#706=EDGE_CURVE('',#574,#571,#284,.T.);
#707=EDGE_CURVE('',#574,#530,#285,.T.);
#708=EDGE_CURVE('',#573,#574,#286,.T.);
#709=EDGE_CURVE('',#575,#576,#287,.T.);
#710=EDGE_CURVE('',#576,#531,#288,.T.);
#711=EDGE_CURVE('',#575,#532,#289,.T.);
#712=EDGE_CURVE('',#576,#577,#290,.T.);
#713=EDGE_CURVE('',#577,#533,#291,.T.);
#714=EDGE_CURVE('',#578,#575,#292,.T.);
#715=EDGE_CURVE('',#578,#534,#293,.T.);
#716=EDGE_CURVE('',#577,#578,#294,.T.);
#717=EDGE_CURVE('',#579,#580,#295,.T.);
#718=EDGE_CURVE('',#580,#535,#296,.T.);
#719=EDGE_CURVE('',#579,#536,#297,.T.);
#720=EDGE_CURVE('',#580,#581,#298,.T.);
#721=EDGE_CURVE('',#581,#537,#299,.T.);
#722=EDGE_CURVE('',#582,#579,#300,.T.);
#723=EDGE_CURVE('',#582,#538,#301,.T.);
#724=EDGE_CURVE('',#581,#582,#302,.T.);
#725=EDGE_CURVE('',#583,#584,#303,.T.);
#726=EDGE_CURVE('',#584,#539,#304,.T.);
#727=EDGE_CURVE('',#583,#540,#305,.T.);
#728=EDGE_CURVE('',#584,#585,#306,.T.);
#729=EDGE_CURVE('',#585,#541,#307,.T.);
#730=EDGE_CURVE('',#586,#583,#308,.T.);
#731=EDGE_CURVE('',#586,#542,#309,.T.);
#732=EDGE_CURVE('',#585,#586,#310,.T.);
#733=EDGE_CURVE('',#587,#588,#311,.T.);
#734=EDGE_CURVE('',#588,#543,#312,.T.);
#735=EDGE_CURVE('',#587,#544,#313,.T.);
#736=EDGE_CURVE('',#588,#589,#314,.T.);
#737=EDGE_CURVE('',#589,#545,#315,.T.);
#738=EDGE_CURVE('',#590,#587,#316,.T.);
#739=EDGE_CURVE('',#590,#546,#317,.T.);
#740=EDGE_CURVE('',#589,#590,#318,.T.);
#741=EDGE_CURVE('',#591,#592,#319,.T.);
#742=EDGE_CURVE('',#592,#547,#320,.T.);
#743=EDGE_CURVE('',#591,#548,#321,.T.);
#744=EDGE_CURVE('',#592,#593,#322,.T.);
#745=EDGE_CURVE('',#593,#549,#323,.T.);
#746=EDGE_CURVE('',#594,#591,#324,.T.);
#747=EDGE_CURVE('',#594,#550,#325,.T.);
#748=EDGE_CURVE('',#593,#594,#326,.T.);
#749=EDGE_CURVE('',#595,#596,#327,.T.);
#750=EDGE_CURVE('',#596,#551,#328,.T.);
#751=EDGE_CURVE('',#595,#552,#329,.T.);
#752=EDGE_CURVE('',#596,#597,#330,.T.);
#753=EDGE_CURVE('',#597,#553,#331,.T.);
#754=EDGE_CURVE('',#598,#595,#332,.T.);
#755=EDGE_CURVE('',#598,#554,#333,.T.);
#756=EDGE_CURVE('',#597,#598,#334,.T.);
#757=EDGE_CURVE('',#497,#501,#335,.T.);
#758=ORIENTED_EDGE('',*,*,#599,.F.);
#759=ORIENTED_EDGE('',*,*,#600,.F.);
#760=ORIENTED_EDGE('',*,*,#601,.F.);
#761=ORIENTED_EDGE('',*,*,#602,.F.);
#762=ORIENTED_EDGE('',*,*,#603,.F.);
#763=ORIENTED_EDGE('',*,*,#600,.T.);
#764=ORIENTED_EDGE('',*,*,#604,.F.);
#765=ORIENTED_EDGE('',*,*,#605,.T.);
#766=ORIENTED_EDGE('',*,*,#606,.T.);
#767=ORIENTED_EDGE('',*,*,#599,.T.);
#768=ORIENTED_EDGE('',*,*,#607,.F.);
#769=ORIENTED_EDGE('',*,*,#608,.F.);
#770=ORIENTED_EDGE('',*,*,#604,.T.);
#771=ORIENTED_EDGE('',*,*,#609,.F.);
#772=ORIENTED_EDGE('',*,*,#610,.F.);
#773=ORIENTED_EDGE('',*,*,#611,.F.);
#774=ORIENTED_EDGE('',*,*,#612,.F.);
#775=ORIENTED_EDGE('',*,*,#613,.F.);
#776=ORIENTED_EDGE('',*,*,#610,.T.);
#777=ORIENTED_EDGE('',*,*,#614,.T.);
#778=ORIENTED_EDGE('',*,*,#615,.T.);
#779=ORIENTED_EDGE('',*,*,#616,.F.);
#780=ORIENTED_EDGE('',*,*,#613,.T.);
#781=ORIENTED_EDGE('',*,*,#617,.T.);
#782=ORIENTED_EDGE('',*,*,#618,.T.);
#783=ORIENTED_EDGE('',*,*,#614,.F.);
#784=ORIENTED_EDGE('',*,*,#612,.T.);
#785=ORIENTED_EDGE('',*,*,#619,.T.);
#786=ORIENTED_EDGE('',*,*,#620,.T.);
#787=ORIENTED_EDGE('',*,*,#617,.F.);
#788=ORIENTED_EDGE('',*,*,#611,.T.);
#789=ORIENTED_EDGE('',*,*,#616,.T.);
#790=ORIENTED_EDGE('',*,*,#621,.T.);
#791=ORIENTED_EDGE('',*,*,#619,.F.);
#792=ORIENTED_EDGE('',*,*,#608,.T.);
#793=ORIENTED_EDGE('',*,*,#622,.T.);
#794=ORIENTED_EDGE('',*,*,#623,.F.);
#795=ORIENTED_EDGE('',*,*,#605,.F.);
#796=ORIENTED_EDGE('',*,*,#624,.F.);
#797=ORIENTED_EDGE('',*,*,#625,.F.);
#798=ORIENTED_EDGE('',*,*,#626,.F.);
#799=ORIENTED_EDGE('',*,*,#627,.F.);
#800=ORIENTED_EDGE('',*,*,#628,.F.);
#801=ORIENTED_EDGE('',*,*,#629,.F.);
#802=ORIENTED_EDGE('',*,*,#630,.F.);
#803=ORIENTED_EDGE('',*,*,#631,.F.);
#804=ORIENTED_EDGE('',*,*,#632,.F.);
#805=ORIENTED_EDGE('',*,*,#633,.F.);
#806=ORIENTED_EDGE('',*,*,#634,.F.);
#807=ORIENTED_EDGE('',*,*,#635,.F.);
#808=ORIENTED_EDGE('',*,*,#636,.F.);
#809=ORIENTED_EDGE('',*,*,#637,.F.);
#810=ORIENTED_EDGE('',*,*,#638,.F.);
#811=ORIENTED_EDGE('',*,*,#639,.F.);
#812=ORIENTED_EDGE('',*,*,#640,.F.);
#813=ORIENTED_EDGE('',*,*,#641,.F.);
#814=ORIENTED_EDGE('',*,*,#642,.F.);
#815=ORIENTED_EDGE('',*,*,#643,.F.);
#816=ORIENTED_EDGE('',*,*,#644,.F.);
#817=ORIENTED_EDGE('',*,*,#645,.F.);
#818=ORIENTED_EDGE('',*,*,#646,.F.);
#819=ORIENTED_EDGE('',*,*,#647,.F.);
#820=ORIENTED_EDGE('',*,*,#648,.F.);
#821=ORIENTED_EDGE('',*,*,#649,.F.);
#822=ORIENTED_EDGE('',*,*,#650,.F.);
#823=ORIENTED_EDGE('',*,*,#651,.F.);
#824=ORIENTED_EDGE('',*,*,#652,.F.);
#825=ORIENTED_EDGE('',*,*,#653,.F.);
#826=ORIENTED_EDGE('',*,*,#654,.F.);
#827=ORIENTED_EDGE('',*,*,#655,.F.);
#828=ORIENTED_EDGE('',*,*,#656,.F.);
#829=ORIENTED_EDGE('',*,*,#657,.F.);
#830=ORIENTED_EDGE('',*,*,#658,.F.);
#831=ORIENTED_EDGE('',*,*,#659,.F.);
#832=ORIENTED_EDGE('',*,*,#660,.F.);
#833=ORIENTED_EDGE('',*,*,#661,.F.);
#834=ORIENTED_EDGE('',*,*,#662,.F.);
#835=ORIENTED_EDGE('',*,*,#663,.F.);
#836=ORIENTED_EDGE('',*,*,#664,.F.);
#837=ORIENTED_EDGE('',*,*,#665,.F.);
#838=ORIENTED_EDGE('',*,*,#666,.F.);
#839=ORIENTED_EDGE('',*,*,#667,.F.);
#840=ORIENTED_EDGE('',*,*,#620,.F.);
#841=ORIENTED_EDGE('',*,*,#621,.F.);
#842=ORIENTED_EDGE('',*,*,#615,.F.);
#843=ORIENTED_EDGE('',*,*,#618,.F.);
#844=ORIENTED_EDGE('',*,*,#602,.T.);
#845=ORIENTED_EDGE('',*,*,#668,.F.);
#846=ORIENTED_EDGE('',*,*,#622,.F.);
#847=ORIENTED_EDGE('',*,*,#607,.T.);
#848=ORIENTED_EDGE('',*,*,#601,.T.);
#849=ORIENTED_EDGE('',*,*,#606,.F.);
#850=ORIENTED_EDGE('',*,*,#623,.T.);
#851=ORIENTED_EDGE('',*,*,#668,.T.);
#852=ORIENTED_EDGE('',*,*,#669,.T.);
#853=ORIENTED_EDGE('',*,*,#670,.T.);
#854=ORIENTED_EDGE('',*,*,#624,.T.);
#855=ORIENTED_EDGE('',*,*,#671,.F.);
#856=ORIENTED_EDGE('',*,*,#672,.T.);
#857=ORIENTED_EDGE('',*,*,#673,.T.);
#858=ORIENTED_EDGE('',*,*,#625,.T.);
#859=ORIENTED_EDGE('',*,*,#670,.F.);
#860=ORIENTED_EDGE('',*,*,#674,.T.);
#861=ORIENTED_EDGE('',*,*,#671,.T.);
#862=ORIENTED_EDGE('',*,*,#627,.T.);
#863=ORIENTED_EDGE('',*,*,#675,.F.);
#864=ORIENTED_EDGE('',*,*,#676,.T.);
#865=ORIENTED_EDGE('',*,*,#675,.T.);
#866=ORIENTED_EDGE('',*,*,#626,.T.);
#867=ORIENTED_EDGE('',*,*,#673,.F.);
#868=ORIENTED_EDGE('',*,*,#677,.T.);
#869=ORIENTED_EDGE('',*,*,#678,.T.);
#870=ORIENTED_EDGE('',*,*,#628,.T.);
#871=ORIENTED_EDGE('',*,*,#679,.F.);
#872=ORIENTED_EDGE('',*,*,#680,.T.);
#873=ORIENTED_EDGE('',*,*,#681,.T.);
#874=ORIENTED_EDGE('',*,*,#629,.T.);
#875=ORIENTED_EDGE('',*,*,#678,.F.);
#876=ORIENTED_EDGE('',*,*,#682,.T.);
#877=ORIENTED_EDGE('',*,*,#679,.T.);
#878=ORIENTED_EDGE('',*,*,#631,.T.);
#879=ORIENTED_EDGE('',*,*,#683,.F.);
#880=ORIENTED_EDGE('',*,*,#684,.T.);
#881=ORIENTED_EDGE('',*,*,#683,.T.);
#882=ORIENTED_EDGE('',*,*,#630,.T.);
#883=ORIENTED_EDGE('',*,*,#681,.F.);
#884=ORIENTED_EDGE('',*,*,#685,.T.);
#885=ORIENTED_EDGE('',*,*,#686,.T.);
#886=ORIENTED_EDGE('',*,*,#632,.T.);
#887=ORIENTED_EDGE('',*,*,#687,.F.);
#888=ORIENTED_EDGE('',*,*,#688,.T.);
#889=ORIENTED_EDGE('',*,*,#689,.T.);
#890=ORIENTED_EDGE('',*,*,#633,.T.);
#891=ORIENTED_EDGE('',*,*,#686,.F.);
#892=ORIENTED_EDGE('',*,*,#690,.T.);
#893=ORIENTED_EDGE('',*,*,#687,.T.);
#894=ORIENTED_EDGE('',*,*,#635,.T.);
#895=ORIENTED_EDGE('',*,*,#691,.F.);
#896=ORIENTED_EDGE('',*,*,#692,.T.);
#897=ORIENTED_EDGE('',*,*,#691,.T.);
#898=ORIENTED_EDGE('',*,*,#634,.T.);
#899=ORIENTED_EDGE('',*,*,#689,.F.);
#900=ORIENTED_EDGE('',*,*,#693,.T.);
#901=ORIENTED_EDGE('',*,*,#694,.T.);
#902=ORIENTED_EDGE('',*,*,#636,.T.);
#903=ORIENTED_EDGE('',*,*,#695,.F.);
#904=ORIENTED_EDGE('',*,*,#696,.T.);
#905=ORIENTED_EDGE('',*,*,#697,.T.);
#906=ORIENTED_EDGE('',*,*,#637,.T.);
#907=ORIENTED_EDGE('',*,*,#694,.F.);
#908=ORIENTED_EDGE('',*,*,#698,.T.);
#909=ORIENTED_EDGE('',*,*,#695,.T.);
#910=ORIENTED_EDGE('',*,*,#639,.T.);
#911=ORIENTED_EDGE('',*,*,#699,.F.);
#912=ORIENTED_EDGE('',*,*,#700,.T.);
#913=ORIENTED_EDGE('',*,*,#699,.T.);
#914=ORIENTED_EDGE('',*,*,#638,.T.);
#915=ORIENTED_EDGE('',*,*,#697,.F.);
#916=ORIENTED_EDGE('',*,*,#701,.T.);
#917=ORIENTED_EDGE('',*,*,#702,.T.);
#918=ORIENTED_EDGE('',*,*,#640,.T.);
#919=ORIENTED_EDGE('',*,*,#703,.F.);
#920=ORIENTED_EDGE('',*,*,#704,.T.);
#921=ORIENTED_EDGE('',*,*,#705,.T.);
#922=ORIENTED_EDGE('',*,*,#641,.T.);
#923=ORIENTED_EDGE('',*,*,#702,.F.);
#924=ORIENTED_EDGE('',*,*,#706,.T.);
#925=ORIENTED_EDGE('',*,*,#703,.T.);
#926=ORIENTED_EDGE('',*,*,#643,.T.);
#927=ORIENTED_EDGE('',*,*,#707,.F.);
#928=ORIENTED_EDGE('',*,*,#708,.T.);
#929=ORIENTED_EDGE('',*,*,#707,.T.);
#930=ORIENTED_EDGE('',*,*,#642,.T.);
#931=ORIENTED_EDGE('',*,*,#705,.F.);
#932=ORIENTED_EDGE('',*,*,#709,.T.);
#933=ORIENTED_EDGE('',*,*,#710,.T.);
#934=ORIENTED_EDGE('',*,*,#644,.T.);
#935=ORIENTED_EDGE('',*,*,#711,.F.);
#936=ORIENTED_EDGE('',*,*,#712,.T.);
#937=ORIENTED_EDGE('',*,*,#713,.T.);
#938=ORIENTED_EDGE('',*,*,#645,.T.);
#939=ORIENTED_EDGE('',*,*,#710,.F.);
#940=ORIENTED_EDGE('',*,*,#714,.T.);
#941=ORIENTED_EDGE('',*,*,#711,.T.);
#942=ORIENTED_EDGE('',*,*,#647,.T.);
#943=ORIENTED_EDGE('',*,*,#715,.F.);
#944=ORIENTED_EDGE('',*,*,#716,.T.);
#945=ORIENTED_EDGE('',*,*,#715,.T.);
#946=ORIENTED_EDGE('',*,*,#646,.T.);
#947=ORIENTED_EDGE('',*,*,#713,.F.);
#948=ORIENTED_EDGE('',*,*,#717,.T.);
#949=ORIENTED_EDGE('',*,*,#718,.T.);
#950=ORIENTED_EDGE('',*,*,#648,.T.);
#951=ORIENTED_EDGE('',*,*,#719,.F.);
#952=ORIENTED_EDGE('',*,*,#720,.T.);
#953=ORIENTED_EDGE('',*,*,#721,.T.);
#954=ORIENTED_EDGE('',*,*,#649,.T.);
#955=ORIENTED_EDGE('',*,*,#718,.F.);
#956=ORIENTED_EDGE('',*,*,#722,.T.);
#957=ORIENTED_EDGE('',*,*,#719,.T.);
#958=ORIENTED_EDGE('',*,*,#651,.T.);
#959=ORIENTED_EDGE('',*,*,#723,.F.);
#960=ORIENTED_EDGE('',*,*,#724,.T.);
#961=ORIENTED_EDGE('',*,*,#723,.T.);
#962=ORIENTED_EDGE('',*,*,#650,.T.);
#963=ORIENTED_EDGE('',*,*,#721,.F.);
#964=ORIENTED_EDGE('',*,*,#725,.T.);
#965=ORIENTED_EDGE('',*,*,#726,.T.);
#966=ORIENTED_EDGE('',*,*,#652,.T.);
#967=ORIENTED_EDGE('',*,*,#727,.F.);
#968=ORIENTED_EDGE('',*,*,#728,.T.);
#969=ORIENTED_EDGE('',*,*,#729,.T.);
#970=ORIENTED_EDGE('',*,*,#653,.T.);
#971=ORIENTED_EDGE('',*,*,#726,.F.);
#972=ORIENTED_EDGE('',*,*,#730,.T.);
#973=ORIENTED_EDGE('',*,*,#727,.T.);
#974=ORIENTED_EDGE('',*,*,#655,.T.);
#975=ORIENTED_EDGE('',*,*,#731,.F.);
#976=ORIENTED_EDGE('',*,*,#732,.T.);
#977=ORIENTED_EDGE('',*,*,#731,.T.);
#978=ORIENTED_EDGE('',*,*,#654,.T.);
#979=ORIENTED_EDGE('',*,*,#729,.F.);
#980=ORIENTED_EDGE('',*,*,#733,.T.);
#981=ORIENTED_EDGE('',*,*,#734,.T.);
#982=ORIENTED_EDGE('',*,*,#656,.T.);
#983=ORIENTED_EDGE('',*,*,#735,.F.);
#984=ORIENTED_EDGE('',*,*,#736,.T.);
#985=ORIENTED_EDGE('',*,*,#737,.T.);
#986=ORIENTED_EDGE('',*,*,#657,.T.);
#987=ORIENTED_EDGE('',*,*,#734,.F.);
#988=ORIENTED_EDGE('',*,*,#738,.T.);
#989=ORIENTED_EDGE('',*,*,#735,.T.);
#990=ORIENTED_EDGE('',*,*,#659,.T.);
#991=ORIENTED_EDGE('',*,*,#739,.F.);
#992=ORIENTED_EDGE('',*,*,#740,.T.);
#993=ORIENTED_EDGE('',*,*,#739,.T.);
#994=ORIENTED_EDGE('',*,*,#658,.T.);
#995=ORIENTED_EDGE('',*,*,#737,.F.);
#996=ORIENTED_EDGE('',*,*,#741,.T.);
#997=ORIENTED_EDGE('',*,*,#742,.T.);
#998=ORIENTED_EDGE('',*,*,#660,.T.);
#999=ORIENTED_EDGE('',*,*,#743,.F.);
#1000=ORIENTED_EDGE('',*,*,#744,.T.);
#1001=ORIENTED_EDGE('',*,*,#745,.T.);
#1002=ORIENTED_EDGE('',*,*,#661,.T.);
#1003=ORIENTED_EDGE('',*,*,#742,.F.);
#1004=ORIENTED_EDGE('',*,*,#746,.T.);
#1005=ORIENTED_EDGE('',*,*,#743,.T.);
#1006=ORIENTED_EDGE('',*,*,#663,.T.);
#1007=ORIENTED_EDGE('',*,*,#747,.F.);
#1008=ORIENTED_EDGE('',*,*,#748,.T.);
#1009=ORIENTED_EDGE('',*,*,#747,.T.);
#1010=ORIENTED_EDGE('',*,*,#662,.T.);
#1011=ORIENTED_EDGE('',*,*,#745,.F.);
#1012=ORIENTED_EDGE('',*,*,#749,.T.);
#1013=ORIENTED_EDGE('',*,*,#750,.T.);
#1014=ORIENTED_EDGE('',*,*,#664,.T.);
#1015=ORIENTED_EDGE('',*,*,#751,.F.);
#1016=ORIENTED_EDGE('',*,*,#752,.T.);
#1017=ORIENTED_EDGE('',*,*,#753,.T.);
#1018=ORIENTED_EDGE('',*,*,#665,.T.);
#1019=ORIENTED_EDGE('',*,*,#750,.F.);
#1020=ORIENTED_EDGE('',*,*,#754,.T.);
#1021=ORIENTED_EDGE('',*,*,#751,.T.);
#1022=ORIENTED_EDGE('',*,*,#667,.T.);
#1023=ORIENTED_EDGE('',*,*,#755,.F.);
#1024=ORIENTED_EDGE('',*,*,#756,.T.);
#1025=ORIENTED_EDGE('',*,*,#755,.T.);
#1026=ORIENTED_EDGE('',*,*,#666,.T.);
#1027=ORIENTED_EDGE('',*,*,#753,.F.);
#1028=ORIENTED_EDGE('',*,*,#674,.F.);
#1029=ORIENTED_EDGE('',*,*,#676,.F.);
#1030=ORIENTED_EDGE('',*,*,#672,.F.);
#1031=ORIENTED_EDGE('',*,*,#669,.F.);
#1032=ORIENTED_EDGE('',*,*,#684,.F.);
#1033=ORIENTED_EDGE('',*,*,#680,.F.);
#1034=ORIENTED_EDGE('',*,*,#677,.F.);
#1035=ORIENTED_EDGE('',*,*,#682,.F.);
#1036=ORIENTED_EDGE('',*,*,#688,.F.);
#1037=ORIENTED_EDGE('',*,*,#685,.F.);
#1038=ORIENTED_EDGE('',*,*,#690,.F.);
#1039=ORIENTED_EDGE('',*,*,#692,.F.);
#1040=ORIENTED_EDGE('',*,*,#700,.F.);
#1041=ORIENTED_EDGE('',*,*,#696,.F.);
#1042=ORIENTED_EDGE('',*,*,#693,.F.);
#1043=ORIENTED_EDGE('',*,*,#698,.F.);
#1044=ORIENTED_EDGE('',*,*,#708,.F.);
#1045=ORIENTED_EDGE('',*,*,#704,.F.);
#1046=ORIENTED_EDGE('',*,*,#701,.F.);
#1047=ORIENTED_EDGE('',*,*,#706,.F.);
#1048=ORIENTED_EDGE('',*,*,#709,.F.);
#1049=ORIENTED_EDGE('',*,*,#714,.F.);
#1050=ORIENTED_EDGE('',*,*,#716,.F.);
#1051=ORIENTED_EDGE('',*,*,#712,.F.);
#1052=ORIENTED_EDGE('',*,*,#724,.F.);
#1053=ORIENTED_EDGE('',*,*,#720,.F.);
#1054=ORIENTED_EDGE('',*,*,#717,.F.);
#1055=ORIENTED_EDGE('',*,*,#722,.F.);
#1056=ORIENTED_EDGE('',*,*,#732,.F.);
#1057=ORIENTED_EDGE('',*,*,#728,.F.);
#1058=ORIENTED_EDGE('',*,*,#725,.F.);
#1059=ORIENTED_EDGE('',*,*,#730,.F.);
#1060=ORIENTED_EDGE('',*,*,#738,.F.);
#1061=ORIENTED_EDGE('',*,*,#740,.F.);
#1062=ORIENTED_EDGE('',*,*,#736,.F.);
#1063=ORIENTED_EDGE('',*,*,#733,.F.);
#1064=ORIENTED_EDGE('',*,*,#748,.F.);
#1065=ORIENTED_EDGE('',*,*,#744,.F.);
#1066=ORIENTED_EDGE('',*,*,#741,.F.);
#1067=ORIENTED_EDGE('',*,*,#746,.F.);
#1068=ORIENTED_EDGE('',*,*,#749,.F.);
#1069=ORIENTED_EDGE('',*,*,#754,.F.);
#1070=ORIENTED_EDGE('',*,*,#756,.F.);
#1071=ORIENTED_EDGE('',*,*,#752,.F.);
#1072=ORIENTED_EDGE('',*,*,#603,.T.);
#1073=ORIENTED_EDGE('',*,*,#757,.T.);
#1074=ORIENTED_EDGE('',*,*,#609,.T.);
#1075=ORIENTED_EDGE('',*,*,#757,.F.);
#1076=PLANE('',#1294);
#1077=PLANE('',#1296);
#1078=PLANE('',#1297);
#1079=PLANE('',#1298);
#1080=PLANE('',#1300);
#1081=PLANE('',#1301);
#1082=PLANE('',#1302);
#1083=PLANE('',#1303);
#1084=PLANE('',#1304);
#1085=PLANE('',#1305);
#1086=PLANE('',#1306);
#1087=PLANE('',#1307);
#1088=PLANE('',#1308);
#1089=PLANE('',#1309);
#1090=PLANE('',#1310);
#1091=PLANE('',#1311);
#1092=PLANE('',#1312);
#1093=PLANE('',#1313);
#1094=PLANE('',#1314);
#1095=PLANE('',#1315);
#1096=PLANE('',#1316);
#1097=PLANE('',#1317);
#1098=PLANE('',#1318);
#1099=PLANE('',#1319);
#1100=PLANE('',#1320);
#1101=PLANE('',#1321);
#1102=PLANE('',#1322);
#1103=PLANE('',#1323);
#1104=PLANE('',#1324);
#1105=PLANE('',#1325);
#1106=PLANE('',#1326);
#1107=PLANE('',#1327);
#1108=PLANE('',#1328);
#1109=PLANE('',#1329);
#1110=PLANE('',#1330);
#1111=PLANE('',#1331);
#1112=PLANE('',#1332);
#1113=PLANE('',#1333);
#1114=PLANE('',#1334);
#1115=PLANE('',#1335);
#1116=PLANE('',#1336);
#1117=PLANE('',#1337);
#1118=PLANE('',#1338);
#1119=PLANE('',#1339);
#1120=PLANE('',#1340);
#1121=PLANE('',#1341);
#1122=PLANE('',#1342);
#1123=PLANE('',#1343);
#1124=PLANE('',#1344);
#1125=PLANE('',#1345);
#1126=PLANE('',#1346);
#1127=PLANE('',#1347);
#1128=PLANE('',#1348);
#1129=PLANE('',#1349);
#1130=PLANE('',#1350);
#1131=PLANE('',#1351);
#1132=PLANE('',#1352);
#1133=PLANE('',#1353);
#1134=PLANE('',#1354);
#1135=PLANE('',#1355);
#1136=PLANE('',#1356);
#1137=PLANE('',#1357);
#1138=PLANE('',#1358);
#1139=PLANE('',#1359);
#1140=PLANE('',#1360);
#1141=PLANE('',#1361);
#1142=PLANE('',#1362);
#1143=STYLED_ITEM('',(#2017),#1212);
#1144=STYLED_ITEM('',(#2017),#1213);
#1145=STYLED_ITEM('',(#2017),#1214);
#1146=STYLED_ITEM('',(#2018),#1215);
#1147=STYLED_ITEM('',(#2019),#1216);
#1148=STYLED_ITEM('',(#2019),#1217);
#1149=STYLED_ITEM('',(#2019),#1218);
#1150=STYLED_ITEM('',(#2019),#1219);
#1151=STYLED_ITEM('',(#2019),#1220);
#1152=STYLED_ITEM('',(#2017),#1221);
#1153=STYLED_ITEM('',(#2017),#1222);
#1154=STYLED_ITEM('',(#2017),#1223);
#1155=STYLED_ITEM('',(#2019),#1224);
#1156=STYLED_ITEM('',(#2019),#1225);
#1157=STYLED_ITEM('',(#2019),#1226);
#1158=STYLED_ITEM('',(#2019),#1227);
#1159=STYLED_ITEM('',(#2019),#1228);
#1160=STYLED_ITEM('',(#2019),#1229);
#1161=STYLED_ITEM('',(#2019),#1230);
#1162=STYLED_ITEM('',(#2019),#1231);
#1163=STYLED_ITEM('',(#2019),#1232);
#1164=STYLED_ITEM('',(#2019),#1233);
#1165=STYLED_ITEM('',(#2019),#1234);
#1166=STYLED_ITEM('',(#2019),#1235);
#1167=STYLED_ITEM('',(#2019),#1236);
#1168=STYLED_ITEM('',(#2019),#1237);
#1169=STYLED_ITEM('',(#2019),#1238);
#1170=STYLED_ITEM('',(#2019),#1239);
#1171=STYLED_ITEM('',(#2019),#1240);
#1172=STYLED_ITEM('',(#2019),#1241);
#1173=STYLED_ITEM('',(#2019),#1242);
#1174=STYLED_ITEM('',(#2019),#1243);
#1175=STYLED_ITEM('',(#2019),#1244);
#1176=STYLED_ITEM('',(#2019),#1245);
#1177=STYLED_ITEM('',(#2019),#1246);
#1178=STYLED_ITEM('',(#2019),#1247);
#1179=STYLED_ITEM('',(#2019),#1248);
#1180=STYLED_ITEM('',(#2019),#1249);
#1181=STYLED_ITEM('',(#2019),#1250);
#1182=STYLED_ITEM('',(#2019),#1251);
#1183=STYLED_ITEM('',(#2019),#1252);
#1184=STYLED_ITEM('',(#2019),#1253);
#1185=STYLED_ITEM('',(#2019),#1254);
#1186=STYLED_ITEM('',(#2019),#1255);
#1187=STYLED_ITEM('',(#2019),#1256);
#1188=STYLED_ITEM('',(#2019),#1257);
#1189=STYLED_ITEM('',(#2019),#1258);
#1190=STYLED_ITEM('',(#2019),#1259);
#1191=STYLED_ITEM('',(#2019),#1260);
#1192=STYLED_ITEM('',(#2019),#1261);
#1193=STYLED_ITEM('',(#2019),#1262);
#1194=STYLED_ITEM('',(#2019),#1263);
#1195=STYLED_ITEM('',(#2019),#1264);
#1196=STYLED_ITEM('',(#2019),#1265);
#1197=STYLED_ITEM('',(#2019),#1266);
#1198=STYLED_ITEM('',(#2019),#1267);
#1199=STYLED_ITEM('',(#2019),#1268);
#1200=STYLED_ITEM('',(#2019),#1269);
#1201=STYLED_ITEM('',(#2019),#1270);
#1202=STYLED_ITEM('',(#2019),#1271);
#1203=STYLED_ITEM('',(#2019),#1272);
#1204=STYLED_ITEM('',(#2019),#1273);
#1205=STYLED_ITEM('',(#2019),#1274);
#1206=STYLED_ITEM('',(#2019),#1275);
#1207=STYLED_ITEM('',(#2019),#1276);
#1208=STYLED_ITEM('',(#2019),#1277);
#1209=STYLED_ITEM('',(#2019),#1278);
#1210=STYLED_ITEM('',(#2018),#1279);
#1211=STYLED_ITEM('',(#2016),#13);
#1212=ADVANCED_FACE('',(#30,#15),#1076,.T.);
#1213=ADVANCED_FACE('',(#31),#1077,.F.);
#1214=ADVANCED_FACE('',(#32),#1078,.F.);
#1215=ADVANCED_FACE('',(#33),#1079,.T.);
#1216=ADVANCED_FACE('',(#34),#1080,.F.);
#1217=ADVANCED_FACE('',(#35),#1081,.F.);
#1218=ADVANCED_FACE('',(#36),#1082,.F.);
#1219=ADVANCED_FACE('',(#37),#1083,.F.);
#1220=ADVANCED_FACE('',(#38),#1084,.F.);
#1221=ADVANCED_FACE('',(#39,#16,#17,#18,#19,#20,#21,#22,#23,#24,#25,#26,
#27),#1085,.F.);
#1222=ADVANCED_FACE('',(#40),#1086,.T.);
#1223=ADVANCED_FACE('',(#41),#1087,.T.);
#1224=ADVANCED_FACE('',(#42),#1088,.F.);
#1225=ADVANCED_FACE('',(#43),#1089,.F.);
#1226=ADVANCED_FACE('',(#44),#1090,.F.);
#1227=ADVANCED_FACE('',(#45),#1091,.F.);
#1228=ADVANCED_FACE('',(#46),#1092,.F.);
#1229=ADVANCED_FACE('',(#47),#1093,.F.);
#1230=ADVANCED_FACE('',(#48),#1094,.F.);
#1231=ADVANCED_FACE('',(#49),#1095,.F.);
#1232=ADVANCED_FACE('',(#50),#1096,.F.);
#1233=ADVANCED_FACE('',(#51),#1097,.F.);
#1234=ADVANCED_FACE('',(#52),#1098,.F.);
#1235=ADVANCED_FACE('',(#53),#1099,.F.);
#1236=ADVANCED_FACE('',(#54),#1100,.F.);
#1237=ADVANCED_FACE('',(#55),#1101,.F.);
#1238=ADVANCED_FACE('',(#56),#1102,.F.);
#1239=ADVANCED_FACE('',(#57),#1103,.F.);
#1240=ADVANCED_FACE('',(#58),#1104,.F.);
#1241=ADVANCED_FACE('',(#59),#1105,.F.);
#1242=ADVANCED_FACE('',(#60),#1106,.F.);
#1243=ADVANCED_FACE('',(#61),#1107,.F.);
#1244=ADVANCED_FACE('',(#62),#1108,.F.);
#1245=ADVANCED_FACE('',(#63),#1109,.F.);
#1246=ADVANCED_FACE('',(#64),#1110,.F.);
#1247=ADVANCED_FACE('',(#65),#1111,.F.);
#1248=ADVANCED_FACE('',(#66),#1112,.F.);
#1249=ADVANCED_FACE('',(#67),#1113,.F.);
#1250=ADVANCED_FACE('',(#68),#1114,.F.);
#1251=ADVANCED_FACE('',(#69),#1115,.F.);
#1252=ADVANCED_FACE('',(#70),#1116,.F.);
#1253=ADVANCED_FACE('',(#71),#1117,.F.);
#1254=ADVANCED_FACE('',(#72),#1118,.F.);
#1255=ADVANCED_FACE('',(#73),#1119,.F.);
#1256=ADVANCED_FACE('',(#74),#1120,.F.);
#1257=ADVANCED_FACE('',(#75),#1121,.F.);
#1258=ADVANCED_FACE('',(#76),#1122,.F.);
#1259=ADVANCED_FACE('',(#77),#1123,.F.);
#1260=ADVANCED_FACE('',(#78),#1124,.F.);
#1261=ADVANCED_FACE('',(#79),#1125,.F.);
#1262=ADVANCED_FACE('',(#80),#1126,.F.);
#1263=ADVANCED_FACE('',(#81),#1127,.F.);
#1264=ADVANCED_FACE('',(#82),#1128,.F.);
#1265=ADVANCED_FACE('',(#83),#1129,.F.);
#1266=ADVANCED_FACE('',(#84),#1130,.F.);
#1267=ADVANCED_FACE('',(#85),#1131,.F.);
#1268=ADVANCED_FACE('',(#86),#1132,.F.);
#1269=ADVANCED_FACE('',(#87),#1133,.F.);
#1270=ADVANCED_FACE('',(#88),#1134,.F.);
#1271=ADVANCED_FACE('',(#89),#1135,.F.);
#1272=ADVANCED_FACE('',(#90),#1136,.F.);
#1273=ADVANCED_FACE('',(#91),#1137,.F.);
#1274=ADVANCED_FACE('',(#92),#1138,.F.);
#1275=ADVANCED_FACE('',(#93),#1139,.F.);
#1276=ADVANCED_FACE('',(#94),#1140,.F.);
#1277=ADVANCED_FACE('',(#95),#1141,.F.);
#1278=ADVANCED_FACE('',(#96),#1142,.F.);
#1279=ADVANCED_FACE('',(#97),#14,.F.);
#1280=CLOSED_SHELL('',(#1212,#1213,#1214,#1215,#1216,#1217,#1218,#1219,
#1220,#1221,#1222,#1223,#1224,#1225,#1226,#1227,#1228,#1229,#1230,#1231,
#1232,#1233,#1234,#1235,#1236,#1237,#1238,#1239,#1240,#1241,#1242,#1243,
#1244,#1245,#1246,#1247,#1248,#1249,#1250,#1251,#1252,#1253,#1254,#1255,
#1256,#1257,#1258,#1259,#1260,#1261,#1262,#1263,#1264,#1265,#1266,#1267,
#1268,#1269,#1270,#1271,#1272,#1273,#1274,#1275,#1276,#1277,#1278,#1279));
#1281=DERIVED_UNIT_ELEMENT(#1283,1.);
#1282=DERIVED_UNIT_ELEMENT(#2002,-3.);
#1283=(
MASS_UNIT()
NAMED_UNIT(*)
SI_UNIT(.KILO.,.GRAM.)
);
#1284=DERIVED_UNIT((#1281,#1282));
#1285=MEASURE_REPRESENTATION_ITEM('density measure',
POSITIVE_RATIO_MEASURE(7850.),#1284);
#1286=PROPERTY_DEFINITION_REPRESENTATION(#1291,#1288);
#1287=PROPERTY_DEFINITION_REPRESENTATION(#1292,#1289);
#1288=REPRESENTATION('material name',(#1290),#1999);
#1289=REPRESENTATION('density',(#1285),#1999);
#1290=DESCRIPTIVE_REPRESENTATION_ITEM('Steel','Steel');
#1291=PROPERTY_DEFINITION('material property','material name',#2009);
#1292=PROPERTY_DEFINITION('material property','density of part',#2009);
#1293=AXIS2_PLACEMENT_3D('',#1663,#1364,#1365);
#1294=AXIS2_PLACEMENT_3D('',#1664,#1366,#1367);
#1295=AXIS2_PLACEMENT_3D('',#1674,#1372,#1373);
#1296=AXIS2_PLACEMENT_3D('',#1675,#1374,#1375);
#1297=AXIS2_PLACEMENT_3D('',#1681,#1379,#1380);
#1298=AXIS2_PLACEMENT_3D('',#1685,#1383,#1384);
#1299=AXIS2_PLACEMENT_3D('',#1687,#1385,#1386);
#1300=AXIS2_PLACEMENT_3D('',#1688,#1387,#1388);
#1301=AXIS2_PLACEMENT_3D('',#1697,#1393,#1394);
#1302=AXIS2_PLACEMENT_3D('',#1703,#1398,#1399);
#1303=AXIS2_PLACEMENT_3D('',#1707,#1402,#1403);
#1304=AXIS2_PLACEMENT_3D('',#1711,#1406,#1407);
#1305=AXIS2_PLACEMENT_3D('',#1713,#1409,#1410);
#1306=AXIS2_PLACEMENT_3D('',#1805,#1457,#1458);
#1307=AXIS2_PLACEMENT_3D('',#1807,#1460,#1461);
#1308=AXIS2_PLACEMENT_3D('',#1808,#1462,#1463);
#1309=AXIS2_PLACEMENT_3D('',#1814,#1467,#1468);
#1310=AXIS2_PLACEMENT_3D('',#1818,#1471,#1472);
#1311=AXIS2_PLACEMENT_3D('',#1822,#1475,#1476);
#1312=AXIS2_PLACEMENT_3D('',#1824,#1478,#1479);
#1313=AXIS2_PLACEMENT_3D('',#1830,#1483,#1484);
#1314=AXIS2_PLACEMENT_3D('',#1834,#1487,#1488);
#1315=AXIS2_PLACEMENT_3D('',#1838,#1491,#1492);
#1316=AXIS2_PLACEMENT_3D('',#1840,#1494,#1495);
#1317=AXIS2_PLACEMENT_3D('',#1846,#1499,#1500);
#1318=AXIS2_PLACEMENT_3D('',#1850,#1503,#1504);
#1319=AXIS2_PLACEMENT_3D('',#1854,#1507,#1508);
#1320=AXIS2_PLACEMENT_3D('',#1856,#1510,#1511);
#1321=AXIS2_PLACEMENT_3D('',#1862,#1515,#1516);
#1322=AXIS2_PLACEMENT_3D('',#1866,#1519,#1520);
#1323=AXIS2_PLACEMENT_3D('',#1870,#1523,#1524);
#1324=AXIS2_PLACEMENT_3D('',#1872,#1526,#1527);
#1325=AXIS2_PLACEMENT_3D('',#1878,#1531,#1532);
#1326=AXIS2_PLACEMENT_3D('',#1882,#1535,#1536);
#1327=AXIS2_PLACEMENT_3D('',#1886,#1539,#1540);
#1328=AXIS2_PLACEMENT_3D('',#1888,#1542,#1543);
#1329=AXIS2_PLACEMENT_3D('',#1894,#1547,#1548);
#1330=AXIS2_PLACEMENT_3D('',#1898,#1551,#1552);
#1331=AXIS2_PLACEMENT_3D('',#1902,#1555,#1556);
#1332=AXIS2_PLACEMENT_3D('',#1904,#1558,#1559);
#1333=AXIS2_PLACEMENT_3D('',#1910,#1563,#1564);
#1334=AXIS2_PLACEMENT_3D('',#1914,#1567,#1568);
#1335=AXIS2_PLACEMENT_3D('',#1918,#1571,#1572);
#1336=AXIS2_PLACEMENT_3D('',#1920,#1574,#1575);
#1337=AXIS2_PLACEMENT_3D('',#1926,#1579,#1580);
#1338=AXIS2_PLACEMENT_3D('',#1930,#1583,#1584);
#1339=AXIS2_PLACEMENT_3D('',#1934,#1587,#1588);
#1340=AXIS2_PLACEMENT_3D('',#1936,#1590,#1591);
#1341=AXIS2_PLACEMENT_3D('',#1942,#1595,#1596);
#1342=AXIS2_PLACEMENT_3D('',#1946,#1599,#1600);
#1343=AXIS2_PLACEMENT_3D('',#1950,#1603,#1604);
#1344=AXIS2_PLACEMENT_3D('',#1952,#1606,#1607);
#1345=AXIS2_PLACEMENT_3D('',#1958,#1611,#1612);
#1346=AXIS2_PLACEMENT_3D('',#1962,#1615,#1616);
#1347=AXIS2_PLACEMENT_3D('',#1966,#1619,#1620);
#1348=AXIS2_PLACEMENT_3D('',#1968,#1622,#1623);
#1349=AXIS2_PLACEMENT_3D('',#1974,#1627,#1628);
#1350=AXIS2_PLACEMENT_3D('',#1978,#1631,#1632);
#1351=AXIS2_PLACEMENT_3D('',#1982,#1635,#1636);
#1352=AXIS2_PLACEMENT_3D('',#1984,#1638,#1639);
#1353=AXIS2_PLACEMENT_3D('',#1985,#1640,#1641);
#1354=AXIS2_PLACEMENT_3D('',#1986,#1642,#1643);
#1355=AXIS2_PLACEMENT_3D('',#1987,#1644,#1645);
#1356=AXIS2_PLACEMENT_3D('',#1988,#1646,#1647);
#1357=AXIS2_PLACEMENT_3D('',#1989,#1648,#1649);
#1358=AXIS2_PLACEMENT_3D('',#1990,#1650,#1651);
#1359=AXIS2_PLACEMENT_3D('',#1991,#1652,#1653);
#1360=AXIS2_PLACEMENT_3D('',#1992,#1654,#1655);
#1361=AXIS2_PLACEMENT_3D('',#1993,#1656,#1657);
#1362=AXIS2_PLACEMENT_3D('',#1994,#1658,#1659);
#1363=AXIS2_PLACEMENT_3D('',#1995,#1660,#1661);
#1364=DIRECTION('axis',(0.,0.,1.));
#1365=DIRECTION('refdir',(1.,0.,0.));
#1366=DIRECTION('center_axis',(0.,0.,1.));
#1367=DIRECTION('ref_axis',(-2.22044604925E-16,-1.,0.));
#1368=DIRECTION('',(1.,-2.22044604925E-16,0.));
#1369=DIRECTION('',(2.22044604925E-16,1.,0.));
#1370=DIRECTION('',(-1.,2.22044604925E-16,0.));
#1371=DIRECTION('',(-2.22044604925E-16,-1.,0.));
#1372=DIRECTION('center_axis',(0.,0.,1.));
#1373=DIRECTION('ref_axis',(-2.22044604925E-16,-1.,0.));
#1374=DIRECTION('center_axis',(1.,-2.22044604925E-16,0.));
#1375=DIRECTION('ref_axis',(0.,0.,1.));
#1376=DIRECTION('',(0.,0.,1.));
#1377=DIRECTION('',(-2.22044604925E-16,-1.,0.));
#1378=DIRECTION('',(0.,0.,1.));
#1379=DIRECTION('center_axis',(-2.22044604925E-16,-1.,0.));
#1380=DIRECTION('ref_axis',(0.,0.,1.));
#1381=DIRECTION('',(0.,0.,1.));
#1382=DIRECTION('',(1.,-2.22044604925E-16,0.));
#1383=DIRECTION('center_axis',(0.,0.,1.));
#1384=DIRECTION('ref_axis',(-2.22044604925E-16,-1.,0.));
#1385=DIRECTION('center_axis',(0.,0.,-1.));
#1386=DIRECTION('ref_axis',(-2.22044604925E-16,-1.,0.));
#1387=DIRECTION('center_axis',(0.,0.,1.));
#1388=DIRECTION('ref_axis',(-1.,4.555315873023E-16,0.));
#1389=DIRECTION('',(-4.555315873023E-16,-1.,0.));
#1390=DIRECTION('',(-1.,4.555315873023E-16,0.));
#1391=DIRECTION('',(4.555315873023E-16,1.,0.));
#1392=DIRECTION('',(1.,-4.555315873023E-16,0.));
#1393=DIRECTION('center_axis',(1.,-4.555315873023E-16,0.));
#1394=DIRECTION('ref_axis',(-4.555315873023E-16,-1.,0.));
#1395=DIRECTION('',(0.,0.,1.));
#1396=DIRECTION('',(4.555315873023E-16,1.,0.));
#1397=DIRECTION('',(0.,0.,1.));
#1398=DIRECTION('center_axis',(4.555315873023E-16,1.,0.));
#1399=DIRECTION('ref_axis',(1.,-4.555315873023E-16,0.));
#1400=DIRECTION('',(0.,0.,1.));
#1401=DIRECTION('',(-1.,4.555315873023E-16,0.));
#1402=DIRECTION('center_axis',(-1.,4.555315873023E-16,0.));
#1403=DIRECTION('ref_axis',(4.555315873023E-16,1.,0.));
#1404=DIRECTION('',(0.,0.,1.));
#1405=DIRECTION('',(-4.555315873023E-16,-1.,0.));
#1406=DIRECTION('center_axis',(-4.555315873023E-16,-1.,0.));
#1407=DIRECTION('ref_axis',(-1.,4.555315873023E-16,0.));
#1408=DIRECTION('',(1.,-4.555315873023E-16,0.));
#1409=DIRECTION('center_axis',(0.,0.,1.));
#1410=DIRECTION('ref_axis',(-2.22044604925E-16,-1.,0.));
#1411=DIRECTION('',(-2.22044604925E-16,-1.,0.));
#1412=DIRECTION('',(1.,-2.22044604925E-16,0.));
#1413=DIRECTION('',(-4.669739647545E-16,-1.,0.));
#1414=DIRECTION('',(1.,-4.669739647545E-16,0.));
#1415=DIRECTION('',(4.669739647545E-16,1.,0.));
#1416=DIRECTION('',(-1.,4.669739647545E-16,0.));
#1417=DIRECTION('',(1.,-4.669739647545E-16,0.));
#1418=DIRECTION('',(4.669739647545E-16,1.,0.));
#1419=DIRECTION('',(-1.,4.669739647545E-16,0.));
#1420=DIRECTION('',(-4.669739647545E-16,-1.,0.));
#1421=DIRECTION('',(-1.,5.665538897648E-16,0.));
#1422=DIRECTION('',(-5.665538897648E-16,-1.,0.));
#1423=DIRECTION('',(1.,-5.665538897648E-16,0.));
#1424=DIRECTION('',(5.665538897648E-16,1.,0.));
#1425=DIRECTION('',(-1.,3.445092848398E-16,0.));
#1426=DIRECTION('',(-3.445092848398E-16,-1.,0.));
#1427=DIRECTION('',(1.,-3.445092848398E-16,0.));
#1428=DIRECTION('',(3.445092848398E-16,1.,0.));
#1429=DIRECTION('',(-1.,3.445092848398E-16,0.));
#1430=DIRECTION('',(-3.445092848398E-16,-1.,0.));
#1431=DIRECTION('',(1.,-3.445092848398E-16,0.));
#1432=DIRECTION('',(3.445092848398E-16,1.,0.));
#1433=DIRECTION('',(-5.665538897648E-16,-1.,0.));
#1434=DIRECTION('',(1.,-5.665538897648E-16,0.));
#1435=DIRECTION('',(5.665538897648E-16,1.,0.));
#1436=DIRECTION('',(-1.,5.665538897648E-16,0.));
#1437=DIRECTION('',(-1.,3.445092848398E-16,0.));
#1438=DIRECTION('',(-3.445092848398E-16,-1.,0.));
#1439=DIRECTION('',(1.,-3.445092848398E-16,0.));
#1440=DIRECTION('',(3.445092848398E-16,1.,0.));
#1441=DIRECTION('',(-4.555315873023E-16,-1.,0.));
#1442=DIRECTION('',(1.,-4.555315873023E-16,0.));
#1443=DIRECTION('',(4.555315873023E-16,1.,0.));
#1444=DIRECTION('',(-1.,4.555315873023E-16,0.));
#1445=DIRECTION('',(3.445092848398E-16,1.,0.));
#1446=DIRECTION('',(-1.,3.445092848398E-16,0.));
#1447=DIRECTION('',(-3.445092848398E-16,-1.,0.));
#1448=DIRECTION('',(1.,-3.445092848398E-16,0.));
#1449=DIRECTION('',(1.,-4.669739647545E-16,0.));
#1450=DIRECTION('',(4.669739647545E-16,1.,0.));
#1451=DIRECTION('',(-1.,4.669739647545E-16,0.));
#1452=DIRECTION('',(-4.669739647545E-16,-1.,0.));
#1453=DIRECTION('',(-1.,4.669739647545E-16,0.));
#1454=DIRECTION('',(-4.669739647545E-16,-1.,0.));
#1455=DIRECTION('',(1.,-4.669739647545E-16,0.));
#1456=DIRECTION('',(4.669739647545E-16,1.,0.));
#1457=DIRECTION('center_axis',(1.,-2.22044604925E-16,0.));
#1458=DIRECTION('ref_axis',(0.,0.,1.));
#1459=DIRECTION('',(0.,0.,1.));
#1460=DIRECTION('center_axis',(-2.22044604925E-16,-1.,0.));
#1461=DIRECTION('ref_axis',(0.,0.,1.));
#1462=DIRECTION('center_axis',(-1.,4.669739647545E-16,0.));
#1463=DIRECTION('ref_axis',(4.669739647545E-16,1.,0.));
#1464=DIRECTION('',(4.669739647545E-16,1.,0.));
#1465=DIRECTION('',(0.,0.,1.));
#1466=DIRECTION('',(0.,0.,1.));
#1467=DIRECTION('center_axis',(-4.669739647545E-16,-1.,0.));
#1468=DIRECTION('ref_axis',(-1.,4.669739647545E-16,0.));
#1469=DIRECTION('',(-1.,4.669739647545E-16,0.));
#1470=DIRECTION('',(0.,0.,1.));
#1471=DIRECTION('center_axis',(4.669739647545E-16,1.,0.));
#1472=DIRECTION('ref_axis',(1.,-4.669739647545E-16,0.));
#1473=DIRECTION('',(1.,-4.669739647545E-16,0.));
#1474=DIRECTION('',(0.,0.,1.));
#1475=DIRECTION('center_axis',(1.,-4.669739647545E-16,0.));
#1476=DIRECTION('ref_axis',(-4.669739647545E-16,-1.,0.));
#1477=DIRECTION('',(-4.669739647545E-16,-1.,0.));
#1478=DIRECTION('center_axis',(-4.669739647545E-16,-1.,0.));
#1479=DIRECTION('ref_axis',(-1.,4.669739647545E-16,0.));
#1480=DIRECTION('',(-1.,4.669739647545E-16,0.));
#1481=DIRECTION('',(0.,0.,1.));
#1482=DIRECTION('',(0.,0.,1.));
#1483=DIRECTION('center_axis',(1.,-4.669739647545E-16,0.));
#1484=DIRECTION('ref_axis',(-4.669739647545E-16,-1.,0.));
#1485=DIRECTION('',(-4.669739647545E-16,-1.,0.));
#1486=DIRECTION('',(0.,0.,1.));
#1487=DIRECTION('center_axis',(-1.,4.669739647545E-16,0.));
#1488=DIRECTION('ref_axis',(4.669739647545E-16,1.,0.));
#1489=DIRECTION('',(4.669739647545E-16,1.,0.));
#1490=DIRECTION('',(0.,0.,1.));
#1491=DIRECTION('center_axis',(4.669739647545E-16,1.,0.));
#1492=DIRECTION('ref_axis',(1.,-4.669739647545E-16,0.));
#1493=DIRECTION('',(1.,-4.669739647545E-16,0.));
#1494=DIRECTION('center_axis',(5.665538897648E-16,1.,0.));
#1495=DIRECTION('ref_axis',(1.,-5.665538897648E-16,0.));
#1496=DIRECTION('',(1.,-5.665538897648E-16,0.));
#1497=DIRECTION('',(0.,0.,1.));
#1498=DIRECTION('',(0.,0.,1.));
#1499=DIRECTION('center_axis',(-1.,5.665538897648E-16,0.));
#1500=DIRECTION('ref_axis',(5.665538897648E-16,1.,0.));
#1501=DIRECTION('',(5.665538897648E-16,1.,0.));
#1502=DIRECTION('',(0.,0.,1.));
#1503=DIRECTION('center_axis',(1.,-5.665538897648E-16,0.));
#1504=DIRECTION('ref_axis',(-5.665538897648E-16,-1.,0.));
#1505=DIRECTION('',(-5.665538897648E-16,-1.,0.));
#1506=DIRECTION('',(0.,0.,1.));
#1507=DIRECTION('center_axis',(-5.665538897648E-16,-1.,0.));
#1508=DIRECTION('ref_axis',(-1.,5.665538897648E-16,0.));
#1509=DIRECTION('',(-1.,5.665538897648E-16,0.));
#1510=DIRECTION('center_axis',(3.445092848398E-16,1.,0.));
#1511=DIRECTION('ref_axis',(1.,-3.445092848398E-16,0.));
#1512=DIRECTION('',(1.,-3.445092848398E-16,0.));
#1513=DIRECTION('',(0.,0.,1.));
#1514=DIRECTION('',(0.,0.,1.));
#1515=DIRECTION('center_axis',(-1.,3.445092848398E-16,0.));
#1516=DIRECTION('ref_axis',(3.445092848398E-16,1.,0.));
#1517=DIRECTION('',(3.445092848398E-16,1.,0.));
#1518=DIRECTION('',(0.,0.,1.));
#1519=DIRECTION('center_axis',(1.,-3.445092848398E-16,0.));
#1520=DIRECTION('ref_axis',(-3.445092848398E-16,-1.,0.));
#1521=DIRECTION('',(-3.445092848398E-16,-1.,0.));
#1522=DIRECTION('',(0.,0.,1.));
#1523=DIRECTION('center_axis',(-3.445092848398E-16,-1.,0.));
#1524=DIRECTION('ref_axis',(-1.,3.445092848398E-16,0.));
#1525=DIRECTION('',(-1.,3.445092848398E-16,0.));
#1526=DIRECTION('center_axis',(3.445092848398E-16,1.,0.));
#1527=DIRECTION('ref_axis',(1.,-3.445092848398E-16,0.));
#1528=DIRECTION('',(1.,-3.445092848398E-16,0.));
#1529=DIRECTION('',(0.,0.,1.));
#1530=DIRECTION('',(0.,0.,1.));
#1531=DIRECTION('center_axis',(-1.,3.445092848398E-16,0.));
#1532=DIRECTION('ref_axis',(3.445092848398E-16,1.,0.));
#1533=DIRECTION('',(3.445092848398E-16,1.,0.));
#1534=DIRECTION('',(0.,0.,1.));
#1535=DIRECTION('center_axis',(1.,-3.445092848398E-16,0.));
#1536=DIRECTION('ref_axis',(-3.445092848398E-16,-1.,0.));
#1537=DIRECTION('',(-3.445092848398E-16,-1.,0.));
#1538=DIRECTION('',(0.,0.,1.));
#1539=DIRECTION('center_axis',(-3.445092848398E-16,-1.,0.));
#1540=DIRECTION('ref_axis',(-1.,3.445092848398E-16,0.));
#1541=DIRECTION('',(-1.,3.445092848398E-16,0.));
#1542=DIRECTION('center_axis',(-1.,5.665538897648E-16,0.));
#1543=DIRECTION('ref_axis',(5.665538897648E-16,1.,0.));
#1544=DIRECTION('',(5.665538897648E-16,1.,0.));
#1545=DIRECTION('',(0.,0.,1.));
#1546=DIRECTION('',(0.,0.,1.));
#1547=DIRECTION('center_axis',(-5.665538897648E-16,-1.,0.));
#1548=DIRECTION('ref_axis',(-1.,5.665538897648E-16,0.));
#1549=DIRECTION('',(-1.,5.665538897648E-16,0.));
#1550=DIRECTION('',(0.,0.,1.));
#1551=DIRECTION('center_axis',(5.665538897648E-16,1.,0.));
#1552=DIRECTION('ref_axis',(1.,-5.665538897648E-16,0.));
#1553=DIRECTION('',(1.,-5.665538897648E-16,0.));
#1554=DIRECTION('',(0.,0.,1.));
#1555=DIRECTION('center_axis',(1.,-5.665538897648E-16,0.));
#1556=DIRECTION('ref_axis',(-5.665538897648E-16,-1.,0.));
#1557=DIRECTION('',(-5.665538897648E-16,-1.,0.));
#1558=DIRECTION('center_axis',(3.445092848398E-16,1.,0.));
#1559=DIRECTION('ref_axis',(1.,-3.445092848398E-16,0.));
#1560=DIRECTION('',(1.,-3.445092848398E-16,0.));
#1561=DIRECTION('',(0.,0.,1.));
#1562=DIRECTION('',(0.,0.,1.));
#1563=DIRECTION('center_axis',(-1.,3.445092848398E-16,0.));
#1564=DIRECTION('ref_axis',(3.445092848398E-16,1.,0.));
#1565=DIRECTION('',(3.445092848398E-16,1.,0.));
#1566=DIRECTION('',(0.,0.,1.));
#1567=DIRECTION('center_axis',(1.,-3.445092848398E-16,0.));
#1568=DIRECTION('ref_axis',(-3.445092848398E-16,-1.,0.));
#1569=DIRECTION('',(-3.445092848398E-16,-1.,0.));
#1570=DIRECTION('',(0.,0.,1.));
#1571=DIRECTION('center_axis',(-3.445092848398E-16,-1.,0.));
#1572=DIRECTION('ref_axis',(-1.,3.445092848398E-16,0.));
#1573=DIRECTION('',(-1.,3.445092848398E-16,0.));
#1574=DIRECTION('center_axis',(-1.,4.555315873023E-16,0.));
#1575=DIRECTION('ref_axis',(4.555315873023E-16,1.,0.));
#1576=DIRECTION('',(4.555315873023E-16,1.,0.));
#1577=DIRECTION('',(0.,0.,1.));
#1578=DIRECTION('',(0.,0.,1.));
#1579=DIRECTION('center_axis',(-4.555315873023E-16,-1.,0.));
#1580=DIRECTION('ref_axis',(-1.,4.555315873023E-16,0.));
#1581=DIRECTION('',(-1.,4.555315873023E-16,0.));
#1582=DIRECTION('',(0.,0.,1.));
#1583=DIRECTION('center_axis',(4.555315873023E-16,1.,0.));
#1584=DIRECTION('ref_axis',(1.,-4.555315873023E-16,0.));
#1585=DIRECTION('',(1.,-4.555315873023E-16,0.));
#1586=DIRECTION('',(0.,0.,1.));
#1587=DIRECTION('center_axis',(1.,-4.555315873023E-16,0.));
#1588=DIRECTION('ref_axis',(-4.555315873023E-16,-1.,0.));
#1589=DIRECTION('',(-4.555315873023E-16,-1.,0.));
#1590=DIRECTION('center_axis',(1.,-3.445092848398E-16,0.));
#1591=DIRECTION('ref_axis',(-3.445092848398E-16,-1.,0.));
#1592=DIRECTION('',(-3.445092848398E-16,-1.,0.));
#1593=DIRECTION('',(0.,0.,1.));
#1594=DIRECTION('',(0.,0.,1.));
#1595=DIRECTION('center_axis',(3.445092848398E-16,1.,0.));
#1596=DIRECTION('ref_axis',(1.,-3.445092848398E-16,0.));
#1597=DIRECTION('',(1.,-3.445092848398E-16,0.));
#1598=DIRECTION('',(0.,0.,1.));
#1599=DIRECTION('center_axis',(-3.445092848398E-16,-1.,0.));
#1600=DIRECTION('ref_axis',(-1.,3.445092848398E-16,0.));
#1601=DIRECTION('',(-1.,3.445092848398E-16,0.));
#1602=DIRECTION('',(0.,0.,1.));
#1603=DIRECTION('center_axis',(-1.,3.445092848398E-16,0.));
#1604=DIRECTION('ref_axis',(3.445092848398E-16,1.,0.));
#1605=DIRECTION('',(3.445092848398E-16,1.,0.));
#1606=DIRECTION('center_axis',(-4.669739647545E-16,-1.,0.));
#1607=DIRECTION('ref_axis',(-1.,4.669739647545E-16,0.));
#1608=DIRECTION('',(-1.,4.669739647545E-16,0.));
#1609=DIRECTION('',(0.,0.,1.));
#1610=DIRECTION('',(0.,0.,1.));
#1611=DIRECTION('center_axis',(1.,-4.669739647545E-16,0.));
#1612=DIRECTION('ref_axis',(-4.669739647545E-16,-1.,0.));
#1613=DIRECTION('',(-4.669739647545E-16,-1.,0.));
#1614=DIRECTION('',(0.,0.,1.));
#1615=DIRECTION('center_axis',(-1.,4.669739647545E-16,0.));
#1616=DIRECTION('ref_axis',(4.669739647545E-16,1.,0.));
#1617=DIRECTION('',(4.669739647545E-16,1.,0.));
#1618=DIRECTION('',(0.,0.,1.));
#1619=DIRECTION('center_axis',(4.669739647545E-16,1.,0.));
#1620=DIRECTION('ref_axis',(1.,-4.669739647545E-16,0.));
#1621=DIRECTION('',(1.,-4.669739647545E-16,0.));
#1622=DIRECTION('center_axis',(4.669739647545E-16,1.,0.));
#1623=DIRECTION('ref_axis',(1.,-4.669739647545E-16,0.));
#1624=DIRECTION('',(1.,-4.669739647545E-16,0.));
#1625=DIRECTION('',(0.,0.,1.));
#1626=DIRECTION('',(0.,0.,1.));
#1627=DIRECTION('center_axis',(-1.,4.669739647545E-16,0.));
#1628=DIRECTION('ref_axis',(4.669739647545E-16,1.,0.));
#1629=DIRECTION('',(4.669739647545E-16,1.,0.));
#1630=DIRECTION('',(0.,0.,1.));
#1631=DIRECTION('center_axis',(1.,-4.669739647545E-16,0.));
#1632=DIRECTION('ref_axis',(-4.669739647545E-16,-1.,0.));
#1633=DIRECTION('',(-4.669739647545E-16,-1.,0.));
#1634=DIRECTION('',(0.,0.,1.));
#1635=DIRECTION('center_axis',(-4.669739647545E-16,-1.,0.));
#1636=DIRECTION('ref_axis',(-1.,4.669739647545E-16,0.));
#1637=DIRECTION('',(-1.,4.669739647545E-16,0.));
#1638=DIRECTION('center_axis',(0.,0.,1.));
#1639=DIRECTION('ref_axis',(-4.669739647545E-16,-1.,0.));
#1640=DIRECTION('center_axis',(0.,0.,1.));
#1641=DIRECTION('ref_axis',(-4.669739647545E-16,-1.,0.));
#1642=DIRECTION('center_axis',(0.,0.,1.));
#1643=DIRECTION('ref_axis',(1.,-5.665538897648E-16,0.));
#1644=DIRECTION('center_axis',(0.,0.,1.));
#1645=DIRECTION('ref_axis',(3.445092848398E-16,1.,0.));
#1646=DIRECTION('center_axis',(0.,0.,1.));
#1647=DIRECTION('ref_axis',(3.445092848398E-16,1.,0.));
#1648=DIRECTION('center_axis',(0.,0.,1.));
#1649=DIRECTION('ref_axis',(1.,-5.665538897648E-16,0.));
#1650=DIRECTION('center_axis',(0.,0.,1.));
#1651=DIRECTION('ref_axis',(3.445092848398E-16,1.,0.));
#1652=DIRECTION('center_axis',(0.,0.,1.));
#1653=DIRECTION('ref_axis',(-1.,4.555315873023E-16,0.));
#1654=DIRECTION('center_axis',(0.,0.,1.));
#1655=DIRECTION('ref_axis',(3.445092848398E-16,1.,0.));
#1656=DIRECTION('center_axis',(0.,0.,1.));
#1657=DIRECTION('ref_axis',(-4.669739647545E-16,-1.,0.));
#1658=DIRECTION('center_axis',(0.,0.,1.));
#1659=DIRECTION('ref_axis',(-4.669739647545E-16,-1.,0.));
#1660=DIRECTION('center_axis',(0.,0.,-1.));
#1661=DIRECTION('ref_axis',(-2.22044604925E-16,-1.,0.));
#1662=DIRECTION('',(0.,0.,-1.));
#1663=CARTESIAN_POINT('',(0.,0.,0.));
#1664=CARTESIAN_POINT('Origin',(-1.,1.,0.725));
#1665=CARTESIAN_POINT('',(-1.,1.,0.725));
#1666=CARTESIAN_POINT('',(1.,1.,0.725));
#1667=CARTESIAN_POINT('',(-1.,1.,0.725));
#1668=CARTESIAN_POINT('',(-1.,-1.,0.725));
#1669=CARTESIAN_POINT('',(-1.,1.,0.725));
#1670=CARTESIAN_POINT('',(1.,-1.,0.725));
#1671=CARTESIAN_POINT('',(-1.,-1.,0.725));
#1672=CARTESIAN_POINT('',(1.,1.,0.725));
#1673=CARTESIAN_POINT('',(-0.55,0.725,0.725));
#1674=CARTESIAN_POINT('Origin',(-0.55,0.55,0.725));
#1675=CARTESIAN_POINT('Origin',(-1.,1.,0.025));
#1676=CARTESIAN_POINT('',(-1.,1.,0.025));
#1677=CARTESIAN_POINT('',(-1.,1.,0.025));
#1678=CARTESIAN_POINT('',(-1.,-1.,0.025));
#1679=CARTESIAN_POINT('',(-1.,1.,0.025));
#1680=CARTESIAN_POINT('',(-1.,-1.,0.025));
#1681=CARTESIAN_POINT('Origin',(-1.,1.,0.025));
#1682=CARTESIAN_POINT('',(1.,1.,0.025));
#1683=CARTESIAN_POINT('',(1.,1.,0.025));
#1684=CARTESIAN_POINT('',(-1.,1.,0.025));
#1685=CARTESIAN_POINT('Origin',(-0.55,0.55,0.705));
#1686=CARTESIAN_POINT('',(-0.55,0.725,0.705));
#1687=CARTESIAN_POINT('Origin',(-0.55,0.55,0.705));
#1688=CARTESIAN_POINT('Origin',(-0.25,0.775,0.));
#1689=CARTESIAN_POINT('',(-0.375,0.9,0.));
#1690=CARTESIAN_POINT('',(-0.375,0.65,0.));
#1691=CARTESIAN_POINT('',(-0.375,0.9,0.));
#1692=CARTESIAN_POINT('',(-0.125,0.9,0.));
#1693=CARTESIAN_POINT('',(-0.125,0.9,0.));
#1694=CARTESIAN_POINT('',(-0.125,0.65,0.));
#1695=CARTESIAN_POINT('',(-0.125,0.65,0.));
#1696=CARTESIAN_POINT('',(-0.375,0.65,0.));
#1697=CARTESIAN_POINT('Origin',(-0.375,0.9,0.));
#1698=CARTESIAN_POINT('',(-0.375,0.65,0.025));
#1699=CARTESIAN_POINT('',(-0.375,0.65,0.));
#1700=CARTESIAN_POINT('',(-0.375,0.9,0.025));
#1701=CARTESIAN_POINT('',(-0.375,0.95,0.025));
#1702=CARTESIAN_POINT('',(-0.375,0.9,0.));
#1703=CARTESIAN_POINT('Origin',(-0.375,0.65,0.));
#1704=CARTESIAN_POINT('',(-0.125,0.65,0.025));
#1705=CARTESIAN_POINT('',(-0.125,0.65,0.));
#1706=CARTESIAN_POINT('',(-0.6875,0.65,0.025));
#1707=CARTESIAN_POINT('Origin',(-0.125,0.65,0.));
#1708=CARTESIAN_POINT('',(-0.125,0.9,0.025));
#1709=CARTESIAN_POINT('',(-0.125,0.9,0.));
#1710=CARTESIAN_POINT('',(-0.125,0.825,0.025));
#1711=CARTESIAN_POINT('Origin',(-0.125,0.9,0.));
#1712=CARTESIAN_POINT('',(-0.5625,0.9,0.025));
#1713=CARTESIAN_POINT('Origin',(-1.,1.,0.025));
#1714=CARTESIAN_POINT('',(1.,-1.,0.025));
#1715=CARTESIAN_POINT('',(1.,1.,0.025));
#1716=CARTESIAN_POINT('',(-1.,-1.,0.025));
#1717=CARTESIAN_POINT('',(-0.65,-0.625,0.025));
#1718=CARTESIAN_POINT('',(-0.65,-0.875,0.025));
#1719=CARTESIAN_POINT('',(-0.65,0.0625,0.025));
#1720=CARTESIAN_POINT('',(-0.9,-0.625,0.025));
#1721=CARTESIAN_POINT('',(-0.825,-0.625,0.025));
#1722=CARTESIAN_POINT('',(-0.9,-0.875,0.025));
#1723=CARTESIAN_POINT('',(-0.9,0.1875,0.025));
#1724=CARTESIAN_POINT('',(-0.95,-0.875,0.025));
#1725=CARTESIAN_POINT('',(-0.9,-0.125,0.025));
#1726=CARTESIAN_POINT('',(-0.65,-0.125,0.025));
#1727=CARTESIAN_POINT('',(-0.825,-0.125,0.025));
#1728=CARTESIAN_POINT('',(-0.9,-0.375,0.025));
#1729=CARTESIAN_POINT('',(-0.9,0.4375,0.025));
#1730=CARTESIAN_POINT('',(-0.65,-0.375,0.025));
#1731=CARTESIAN_POINT('',(-0.95,-0.375,0.025));
#1732=CARTESIAN_POINT('',(-0.65,0.3125,0.025));
#1733=CARTESIAN_POINT('',(-0.125,-0.9,0.025));
#1734=CARTESIAN_POINT('',(-0.375,-0.9,0.025));
#1735=CARTESIAN_POINT('',(-0.6875,-0.9,0.025));
#1736=CARTESIAN_POINT('',(-0.125,-0.65,0.025));
#1737=CARTESIAN_POINT('',(-0.125,0.05,0.025));
#1738=CARTESIAN_POINT('',(-0.375,-0.65,0.025));
#1739=CARTESIAN_POINT('',(-0.5625,-0.65,0.025));
#1740=CARTESIAN_POINT('',(-0.375,0.175,0.025));
#1741=CARTESIAN_POINT('',(0.9,-0.375,0.025));
#1742=CARTESIAN_POINT('',(0.65,-0.375,0.025));
#1743=CARTESIAN_POINT('',(-0.175,-0.375,0.025));
#1744=CARTESIAN_POINT('',(0.9,-0.125,0.025));
#1745=CARTESIAN_POINT('',(0.9,0.3125,0.025));
#1746=CARTESIAN_POINT('',(0.65,-0.125,0.025));
#1747=CARTESIAN_POINT('',(-0.05,-0.125,0.025));
#1748=CARTESIAN_POINT('',(0.65,0.4375,0.025));
#1749=CARTESIAN_POINT('',(0.9,-0.875,0.025));
#1750=CARTESIAN_POINT('',(0.65,-0.875,0.025));
#1751=CARTESIAN_POINT('',(-0.175,-0.875,0.025));
#1752=CARTESIAN_POINT('',(0.9,-0.625,0.025));
#1753=CARTESIAN_POINT('',(0.9,0.0625,0.025));
#1754=CARTESIAN_POINT('',(0.65,-0.625,0.025));
#1755=CARTESIAN_POINT('',(-0.05,-0.625,0.025));
#1756=CARTESIAN_POINT('',(0.65,0.1875,0.025));
#1757=CARTESIAN_POINT('',(0.375,-0.65,0.025));
#1758=CARTESIAN_POINT('',(0.375,-0.9,0.025));
#1759=CARTESIAN_POINT('',(0.375,0.05,0.025));
#1760=CARTESIAN_POINT('',(0.125,-0.65,0.025));
#1761=CARTESIAN_POINT('',(-0.3125,-0.65,0.025));
#1762=CARTESIAN_POINT('',(0.125,-0.9,0.025));
#1763=CARTESIAN_POINT('',(0.125,0.175,0.025));
#1764=CARTESIAN_POINT('',(-0.4375,-0.9,0.025));
#1765=CARTESIAN_POINT('',(0.9,0.625,0.025));
#1766=CARTESIAN_POINT('',(0.65,0.625,0.025));
#1767=CARTESIAN_POINT('',(-0.175,0.625,0.025));
#1768=CARTESIAN_POINT('',(0.9,0.875,0.025));
#1769=CARTESIAN_POINT('',(0.9,0.8125,0.025));
#1770=CARTESIAN_POINT('',(0.65,0.875,0.025));
#1771=CARTESIAN_POINT('',(-0.05,0.875,0.025));
#1772=CARTESIAN_POINT('',(0.65,0.9375,0.025));
#1773=CARTESIAN_POINT('',(0.375,0.9,0.025));
#1774=CARTESIAN_POINT('',(0.375,0.65,0.025));
#1775=CARTESIAN_POINT('',(0.375,0.825,0.025));
#1776=CARTESIAN_POINT('',(0.125,0.9,0.025));
#1777=CARTESIAN_POINT('',(-0.3125,0.9,0.025));
#1778=CARTESIAN_POINT('',(0.125,0.65,0.025));
#1779=CARTESIAN_POINT('',(0.125,0.95,0.025));
#1780=CARTESIAN_POINT('',(-0.4375,0.65,0.025));
#1781=CARTESIAN_POINT('',(0.65,0.125,0.025));
#1782=CARTESIAN_POINT('',(0.65,0.375,0.025));
#1783=CARTESIAN_POINT('',(0.65,0.6875,0.025));
#1784=CARTESIAN_POINT('',(0.9,0.125,0.025));
#1785=CARTESIAN_POINT('',(-0.175,0.125,0.025));
#1786=CARTESIAN_POINT('',(0.9,0.375,0.025));
#1787=CARTESIAN_POINT('',(0.9,0.5625,0.025));
#1788=CARTESIAN_POINT('',(-0.05,0.375,0.025));
#1789=CARTESIAN_POINT('',(-0.9,0.875,0.025));
#1790=CARTESIAN_POINT('',(-0.65,0.875,0.025));
#1791=CARTESIAN_POINT('',(-0.825,0.875,0.025));
#1792=CARTESIAN_POINT('',(-0.9,0.625,0.025));
#1793=CARTESIAN_POINT('',(-0.9,0.9375,0.025));
#1794=CARTESIAN_POINT('',(-0.65,0.625,0.025));
#1795=CARTESIAN_POINT('',(-0.95,0.625,0.025));
#1796=CARTESIAN_POINT('',(-0.65,0.8125,0.025));
#1797=CARTESIAN_POINT('',(-0.65,0.125,0.025));
#1798=CARTESIAN_POINT('',(-0.9,0.125,0.025));
#1799=CARTESIAN_POINT('',(-0.95,0.125,0.025));
#1800=CARTESIAN_POINT('',(-0.65,0.375,0.025));
#1801=CARTESIAN_POINT('',(-0.65,0.5625,0.025));
#1802=CARTESIAN_POINT('',(-0.9,0.375,0.025));
#1803=CARTESIAN_POINT('',(-0.825,0.375,0.025));
#1804=CARTESIAN_POINT('',(-0.9,0.6875,0.025));
#1805=CARTESIAN_POINT('Origin',(1.,1.,0.025));
#1806=CARTESIAN_POINT('',(1.,-1.,0.025));
#1807=CARTESIAN_POINT('Origin',(-1.,-1.,0.025));
#1808=CARTESIAN_POINT('Origin',(-0.65,-0.875,0.));
#1809=CARTESIAN_POINT('',(-0.65,-0.875,0.));
#1810=CARTESIAN_POINT('',(-0.65,-0.625,0.));
#1811=CARTESIAN_POINT('',(-0.65,-0.875,0.));
#1812=CARTESIAN_POINT('',(-0.65,-0.625,0.));
#1813=CARTESIAN_POINT('',(-0.65,-0.875,0.));
#1814=CARTESIAN_POINT('Origin',(-0.65,-0.625,0.));
#1815=CARTESIAN_POINT('',(-0.9,-0.625,0.));
#1816=CARTESIAN_POINT('',(-0.65,-0.625,0.));
#1817=CARTESIAN_POINT('',(-0.9,-0.625,0.));
#1818=CARTESIAN_POINT('Origin',(-0.9,-0.875,0.));
#1819=CARTESIAN_POINT('',(-0.9,-0.875,0.));
#1820=CARTESIAN_POINT('',(-0.9,-0.875,0.));
#1821=CARTESIAN_POINT('',(-0.9,-0.875,0.));
#1822=CARTESIAN_POINT('Origin',(-0.9,-0.625,0.));
#1823=CARTESIAN_POINT('',(-0.9,-0.625,0.));
#1824=CARTESIAN_POINT('Origin',(-0.65,-0.125,0.));
#1825=CARTESIAN_POINT('',(-0.65,-0.125,0.));
#1826=CARTESIAN_POINT('',(-0.9,-0.125,0.));
#1827=CARTESIAN_POINT('',(-0.65,-0.125,0.));
#1828=CARTESIAN_POINT('',(-0.9,-0.125,0.));
#1829=CARTESIAN_POINT('',(-0.65,-0.125,0.));
#1830=CARTESIAN_POINT('Origin',(-0.9,-0.125,0.));
#1831=CARTESIAN_POINT('',(-0.9,-0.375,0.));
#1832=CARTESIAN_POINT('',(-0.9,-0.125,0.));
#1833=CARTESIAN_POINT('',(-0.9,-0.375,0.));
#1834=CARTESIAN_POINT('Origin',(-0.65,-0.375,0.));
#1835=CARTESIAN_POINT('',(-0.65,-0.375,0.));
#1836=CARTESIAN_POINT('',(-0.65,-0.375,0.));
#1837=CARTESIAN_POINT('',(-0.65,-0.375,0.));
#1838=CARTESIAN_POINT('Origin',(-0.9,-0.375,0.));
#1839=CARTESIAN_POINT('',(-0.9,-0.375,0.));
#1840=CARTESIAN_POINT('Origin',(-0.375,-0.9,0.));
#1841=CARTESIAN_POINT('',(-0.375,-0.9,0.));
#1842=CARTESIAN_POINT('',(-0.125,-0.9,0.));
#1843=CARTESIAN_POINT('',(-0.375,-0.9,0.));
#1844=CARTESIAN_POINT('',(-0.125,-0.9,0.));
#1845=CARTESIAN_POINT('',(-0.375,-0.9,0.));
#1846=CARTESIAN_POINT('Origin',(-0.125,-0.9,0.));
#1847=CARTESIAN_POINT('',(-0.125,-0.65,0.));
#1848=CARTESIAN_POINT('',(-0.125,-0.9,0.));
#1849=CARTESIAN_POINT('',(-0.125,-0.65,0.));
#1850=CARTESIAN_POINT('Origin',(-0.375,-0.65,0.));
#1851=CARTESIAN_POINT('',(-0.375,-0.65,0.));
#1852=CARTESIAN_POINT('',(-0.375,-0.65,0.));
#1853=CARTESIAN_POINT('',(-0.375,-0.65,0.));
#1854=CARTESIAN_POINT('Origin',(-0.125,-0.65,0.));
#1855=CARTESIAN_POINT('',(-0.125,-0.65,0.));
#1856=CARTESIAN_POINT('Origin',(0.65,-0.375,0.));
#1857=CARTESIAN_POINT('',(0.65,-0.375,0.));
#1858=CARTESIAN_POINT('',(0.9,-0.375,0.));
#1859=CARTESIAN_POINT('',(0.65,-0.375,0.));
#1860=CARTESIAN_POINT('',(0.9,-0.375,0.));
#1861=CARTESIAN_POINT('',(0.65,-0.375,0.));
#1862=CARTESIAN_POINT('Origin',(0.9,-0.375,0.));
#1863=CARTESIAN_POINT('',(0.9,-0.125,0.));
#1864=CARTESIAN_POINT('',(0.9,-0.375,0.));
#1865=CARTESIAN_POINT('',(0.9,-0.125,0.));
#1866=CARTESIAN_POINT('Origin',(0.65,-0.125,0.));
#1867=CARTESIAN_POINT('',(0.65,-0.125,0.));
#1868=CARTESIAN_POINT('',(0.65,-0.125,0.));
#1869=CARTESIAN_POINT('',(0.65,-0.125,0.));
#1870=CARTESIAN_POINT('Origin',(0.9,-0.125,0.));
#1871=CARTESIAN_POINT('',(0.9,-0.125,0.));
#1872=CARTESIAN_POINT('Origin',(0.65,-0.875,0.));
#1873=CARTESIAN_POINT('',(0.65,-0.875,0.));
#1874=CARTESIAN_POINT('',(0.9,-0.875,0.));
#1875=CARTESIAN_POINT('',(0.65,-0.875,0.));
#1876=CARTESIAN_POINT('',(0.9,-0.875,0.));
#1877=CARTESIAN_POINT('',(0.65,-0.875,0.));
#1878=CARTESIAN_POINT('Origin',(0.9,-0.875,0.));
#1879=CARTESIAN_POINT('',(0.9,-0.625,0.));
#1880=CARTESIAN_POINT('',(0.9,-0.875,0.));
#1881=CARTESIAN_POINT('',(0.9,-0.625,0.));
#1882=CARTESIAN_POINT('Origin',(0.65,-0.625,0.));
#1883=CARTESIAN_POINT('',(0.65,-0.625,0.));
#1884=CARTESIAN_POINT('',(0.65,-0.625,0.));
#1885=CARTESIAN_POINT('',(0.65,-0.625,0.));
#1886=CARTESIAN_POINT('Origin',(0.9,-0.625,0.));
#1887=CARTESIAN_POINT('',(0.9,-0.625,0.));
#1888=CARTESIAN_POINT('Origin',(0.375,-0.9,0.));
#1889=CARTESIAN_POINT('',(0.375,-0.9,0.));
#1890=CARTESIAN_POINT('',(0.375,-0.65,0.));
#1891=CARTESIAN_POINT('',(0.375,-0.9,0.));
#1892=CARTESIAN_POINT('',(0.375,-0.65,0.));
#1893=CARTESIAN_POINT('',(0.375,-0.9,0.));
#1894=CARTESIAN_POINT('Origin',(0.375,-0.65,0.));
#1895=CARTESIAN_POINT('',(0.125,-0.65,0.));
#1896=CARTESIAN_POINT('',(0.375,-0.65,0.));
#1897=CARTESIAN_POINT('',(0.125,-0.65,0.));
#1898=CARTESIAN_POINT('Origin',(0.125,-0.9,0.));
#1899=CARTESIAN_POINT('',(0.125,-0.9,0.));
#1900=CARTESIAN_POINT('',(0.125,-0.9,0.));
#1901=CARTESIAN_POINT('',(0.125,-0.9,0.));
#1902=CARTESIAN_POINT('Origin',(0.125,-0.65,0.));
#1903=CARTESIAN_POINT('',(0.125,-0.65,0.));
#1904=CARTESIAN_POINT('Origin',(0.65,0.625,0.));
#1905=CARTESIAN_POINT('',(0.65,0.625,0.));
#1906=CARTESIAN_POINT('',(0.9,0.625,0.));
#1907=CARTESIAN_POINT('',(0.65,0.625,0.));
#1908=CARTESIAN_POINT('',(0.9,0.625,0.));
#1909=CARTESIAN_POINT('',(0.65,0.625,0.));
#1910=CARTESIAN_POINT('Origin',(0.9,0.625,0.));
#1911=CARTESIAN_POINT('',(0.9,0.875,0.));
#1912=CARTESIAN_POINT('',(0.9,0.625,0.));
#1913=CARTESIAN_POINT('',(0.9,0.875,0.));
#1914=CARTESIAN_POINT('Origin',(0.65,0.875,0.));
#1915=CARTESIAN_POINT('',(0.65,0.875,0.));
#1916=CARTESIAN_POINT('',(0.65,0.875,0.));
#1917=CARTESIAN_POINT('',(0.65,0.875,0.));
#1918=CARTESIAN_POINT('Origin',(0.9,0.875,0.));
#1919=CARTESIAN_POINT('',(0.9,0.875,0.));
#1920=CARTESIAN_POINT('Origin',(0.375,0.65,0.));
#1921=CARTESIAN_POINT('',(0.375,0.65,0.));
#1922=CARTESIAN_POINT('',(0.375,0.9,0.));
#1923=CARTESIAN_POINT('',(0.375,0.65,0.));
#1924=CARTESIAN_POINT('',(0.375,0.9,0.));
#1925=CARTESIAN_POINT('',(0.375,0.65,0.));
#1926=CARTESIAN_POINT('Origin',(0.375,0.9,0.));
#1927=CARTESIAN_POINT('',(0.125,0.9,0.));
#1928=CARTESIAN_POINT('',(0.375,0.9,0.));
#1929=CARTESIAN_POINT('',(0.125,0.9,0.));
#1930=CARTESIAN_POINT('Origin',(0.125,0.65,0.));
#1931=CARTESIAN_POINT('',(0.125,0.65,0.));
#1932=CARTESIAN_POINT('',(0.125,0.65,0.));
#1933=CARTESIAN_POINT('',(0.125,0.65,0.));
#1934=CARTESIAN_POINT('Origin',(0.125,0.9,0.));
#1935=CARTESIAN_POINT('',(0.125,0.9,0.));
#1936=CARTESIAN_POINT('Origin',(0.65,0.375,0.));
#1937=CARTESIAN_POINT('',(0.65,0.375,0.));
#1938=CARTESIAN_POINT('',(0.65,0.125,0.));
#1939=CARTESIAN_POINT('',(0.65,0.375,0.));
#1940=CARTESIAN_POINT('',(0.65,0.125,0.));
#1941=CARTESIAN_POINT('',(0.65,0.375,0.));
#1942=CARTESIAN_POINT('Origin',(0.65,0.125,0.));
#1943=CARTESIAN_POINT('',(0.9,0.125,0.));
#1944=CARTESIAN_POINT('',(0.65,0.125,0.));
#1945=CARTESIAN_POINT('',(0.9,0.125,0.));
#1946=CARTESIAN_POINT('Origin',(0.9,0.375,0.));
#1947=CARTESIAN_POINT('',(0.9,0.375,0.));
#1948=CARTESIAN_POINT('',(0.9,0.375,0.));
#1949=CARTESIAN_POINT('',(0.9,0.375,0.));
#1950=CARTESIAN_POINT('Origin',(0.9,0.125,0.));
#1951=CARTESIAN_POINT('',(0.9,0.125,0.));
#1952=CARTESIAN_POINT('Origin',(-0.65,0.875,0.));
#1953=CARTESIAN_POINT('',(-0.65,0.875,0.));
#1954=CARTESIAN_POINT('',(-0.9,0.875,0.));
#1955=CARTESIAN_POINT('',(-0.65,0.875,0.));
#1956=CARTESIAN_POINT('',(-0.9,0.875,0.));
#1957=CARTESIAN_POINT('',(-0.65,0.875,0.));
#1958=CARTESIAN_POINT('Origin',(-0.9,0.875,0.));
#1959=CARTESIAN_POINT('',(-0.9,0.625,0.));
#1960=CARTESIAN_POINT('',(-0.9,0.875,0.));
#1961=CARTESIAN_POINT('',(-0.9,0.625,0.));
#1962=CARTESIAN_POINT('Origin',(-0.65,0.625,0.));
#1963=CARTESIAN_POINT('',(-0.65,0.625,0.));
#1964=CARTESIAN_POINT('',(-0.65,0.625,0.));
#1965=CARTESIAN_POINT('',(-0.65,0.625,0.));
#1966=CARTESIAN_POINT('Origin',(-0.9,0.625,0.));
#1967=CARTESIAN_POINT('',(-0.9,0.625,0.));
#1968=CARTESIAN_POINT('Origin',(-0.9,0.125,0.));
#1969=CARTESIAN_POINT('',(-0.9,0.125,0.));
#1970=CARTESIAN_POINT('',(-0.65,0.125,0.));
#1971=CARTESIAN_POINT('',(-0.9,0.125,0.));
#1972=CARTESIAN_POINT('',(-0.65,0.125,0.));
#1973=CARTESIAN_POINT('',(-0.9,0.125,0.));
#1974=CARTESIAN_POINT('Origin',(-0.65,0.125,0.));
#1975=CARTESIAN_POINT('',(-0.65,0.375,0.));
#1976=CARTESIAN_POINT('',(-0.65,0.125,0.));
#1977=CARTESIAN_POINT('',(-0.65,0.375,0.));
#1978=CARTESIAN_POINT('Origin',(-0.9,0.375,0.));
#1979=CARTESIAN_POINT('',(-0.9,0.375,0.));
#1980=CARTESIAN_POINT('',(-0.9,0.375,0.));
#1981=CARTESIAN_POINT('',(-0.9,0.375,0.));
#1982=CARTESIAN_POINT('Origin',(-0.65,0.375,0.));
#1983=CARTESIAN_POINT('',(-0.65,0.375,0.));
#1984=CARTESIAN_POINT('Origin',(-0.775,-0.75,0.));
#1985=CARTESIAN_POINT('Origin',(-0.775,-0.25,0.));
#1986=CARTESIAN_POINT('Origin',(-0.25,-0.775,0.));
#1987=CARTESIAN_POINT('Origin',(0.775,-0.25,0.));
#1988=CARTESIAN_POINT('Origin',(0.775,-0.75,0.));
#1989=CARTESIAN_POINT('Origin',(0.25,-0.775,0.));
#1990=CARTESIAN_POINT('Origin',(0.775,0.75,0.));
#1991=CARTESIAN_POINT('Origin',(0.25,0.775,0.));
#1992=CARTESIAN_POINT('Origin',(0.775,0.25,0.));
#1993=CARTESIAN_POINT('Origin',(-0.775,0.75,0.));
#1994=CARTESIAN_POINT('Origin',(-0.775,0.25,0.));
#1995=CARTESIAN_POINT('Origin',(-0.55,0.55,1.045));
#1996=CARTESIAN_POINT('',(-0.55,0.725,1.045));
#1997=UNCERTAINTY_MEASURE_WITH_UNIT(LENGTH_MEASURE(0.01),#2001,
'DISTANCE_ACCURACY_VALUE',
'Maximum model space distance between geometric entities at asserted c
onnectivities');
#1998=UNCERTAINTY_MEASURE_WITH_UNIT(LENGTH_MEASURE(0.01),#2001,
'DISTANCE_ACCURACY_VALUE',
'Maximum model space distance between geometric entities at asserted c
onnectivities');
#1999=(
GEOMETRIC_REPRESENTATION_CONTEXT(3)
GLOBAL_UNCERTAINTY_ASSIGNED_CONTEXT((#1997))
GLOBAL_UNIT_ASSIGNED_CONTEXT((#2001,#2003,#2004))
REPRESENTATION_CONTEXT('','3D')
);
#2000=(
GEOMETRIC_REPRESENTATION_CONTEXT(3)
GLOBAL_UNCERTAINTY_ASSIGNED_CONTEXT((#1998))
GLOBAL_UNIT_ASSIGNED_CONTEXT((#2001,#2003,#2004))
REPRESENTATION_CONTEXT('','3D')
);
#2001=(
LENGTH_UNIT()
NAMED_UNIT(*)
SI_UNIT(.MILLI.,.METRE.)
);
#2002=(
LENGTH_UNIT()
NAMED_UNIT(*)
SI_UNIT($,.METRE.)
);
#2003=(
NAMED_UNIT(*)
PLANE_ANGLE_UNIT()
SI_UNIT($,.RADIAN.)
);
#2004=(
NAMED_UNIT(*)
SI_UNIT($,.STERADIAN.)
SOLID_ANGLE_UNIT()
);
#2005=SHAPE_DEFINITION_REPRESENTATION(#2006,#2007);
#2006=PRODUCT_DEFINITION_SHAPE('',$,#2009);
#2007=SHAPE_REPRESENTATION('',(#1293),#1999);
#2008=PRODUCT_DEFINITION_CONTEXT('part definition',#2013,'design');
#2009=PRODUCT_DEFINITION('LGA_12_2x2mm_P05mm','LGA-12_2x2mm_P0.5mm v1',
#2010,#2008);
#2010=PRODUCT_DEFINITION_FORMATION('',$,#2015);
#2011=PRODUCT_RELATED_PRODUCT_CATEGORY('LGA-12_2x2mm_P0.5mm v1',
'LGA-12_2x2mm_P0.5mm v1',(#2015));
#2012=APPLICATION_PROTOCOL_DEFINITION('international standard',
'automotive_design',2009,#2013);
#2013=APPLICATION_CONTEXT(
'Core Data for Automotive Mechanical Design Process');
#2014=PRODUCT_CONTEXT('part definition',#2013,'mechanical');
#2015=PRODUCT('LGA_12_2x2mm_P05mm','LGA-12_2x2mm_P0.5mm v1',
'model of LGA-12_2x2mm_P0.5mm',(#2014));
#2016=PRESENTATION_STYLE_ASSIGNMENT((#2020));
#2017=PRESENTATION_STYLE_ASSIGNMENT((#2021));
#2018=PRESENTATION_STYLE_ASSIGNMENT((#2022));
#2019=PRESENTATION_STYLE_ASSIGNMENT((#2023));
#2020=SURFACE_STYLE_USAGE(.BOTH.,#2024);
#2021=SURFACE_STYLE_USAGE(.BOTH.,#2025);
#2022=SURFACE_STYLE_USAGE(.BOTH.,#2026);
#2023=SURFACE_STYLE_USAGE(.BOTH.,#2027);
#2024=SURFACE_SIDE_STYLE('',(#2028));
#2025=SURFACE_SIDE_STYLE('',(#2029));
#2026=SURFACE_SIDE_STYLE('',(#2030));
#2027=SURFACE_SIDE_STYLE('',(#2031));
#2028=SURFACE_STYLE_FILL_AREA(#2032);
#2029=SURFACE_STYLE_FILL_AREA(#2033);
#2030=SURFACE_STYLE_FILL_AREA(#2034);
#2031=SURFACE_STYLE_FILL_AREA(#2035);
#2032=FILL_AREA_STYLE('Steel - Satin',(#2036));
#2033=FILL_AREA_STYLE('Opaque(38,37,37)',(#2037));
#2034=FILL_AREA_STYLE('Opaque(176,169,152)',(#2038));
#2035=FILL_AREA_STYLE('Opaque(210,209,199)',(#2039));
#2036=FILL_AREA_STYLE_COLOUR('Steel - Satin',#2040);
#2037=FILL_AREA_STYLE_COLOUR('Opaque(38,37,37)',#2041);
#2038=FILL_AREA_STYLE_COLOUR('Opaque(176,169,152)',#2042);
#2039=FILL_AREA_STYLE_COLOUR('Opaque(210,209,199)',#2043);
#2040=COLOUR_RGB('Steel - Satin',0.627450980392157,0.627450980392157,0.627450980392157);
#2041=COLOUR_RGB('Opaque(38,37,37)',0.149019607843137,0.145098039215686,
0.145098039215686);
#2042=COLOUR_RGB('Opaque(176,169,152)',0.690196078431373,0.662745098039216,
0.596078431372549);
#2043=COLOUR_RGB('Opaque(210,209,199)',0.823529411764706,0.819607843137255,
0.780392156862745);
ENDSEC;
END-ISO-10303-21;
